<mxfile host="app.diagrams.net" modified="2023-08-22T13:45:41.778Z" agent="Mozilla/5.0 (Macintosh; Intel Mac OS X 10_15_7) AppleWebKit/537.36 (KHTML, like Gecko) Chrome/116.0.0.0 Safari/537.36" etag="4hWZZwaQbq9T4MJ1lbGl" version="21.6.8" type="github">
  <diagram id="zzds6Kp185NoCfkkMVd4" name="Page-1">
    <mxGraphModel dx="5624" dy="3028" grid="0" gridSize="10" guides="1" tooltips="1" connect="1" arrows="1" fold="1" page="1" pageScale="1" pageWidth="400" pageHeight="900" background="#EFF1F3" math="0" shadow="0">
      <root>
        <mxCell id="0" />
        <mxCell id="1" parent="0" />
        <mxCell id="M6gj8kt36gLy5a3jpEOS-1" value="" style="rounded=0;whiteSpace=wrap;html=1;strokeColor=none;fillColor=#003f6a;" parent="1" vertex="1">
          <mxGeometry y="1" width="400" height="899" as="geometry" />
        </mxCell>
        <mxCell id="M6gj8kt36gLy5a3jpEOS-5" value="" style="rounded=0;whiteSpace=wrap;html=1;strokeColor=none;fillColor=#21699e;" parent="1" vertex="1">
          <mxGeometry x="400" y="1" width="400" height="899" as="geometry" />
        </mxCell>
        <mxCell id="M6gj8kt36gLy5a3jpEOS-6" value="" style="rounded=0;whiteSpace=wrap;html=1;strokeColor=none;fillColor=#418bb3;" parent="1" vertex="1">
          <mxGeometry x="800" y="1" width="400" height="899" as="geometry" />
        </mxCell>
        <mxCell id="M6gj8kt36gLy5a3jpEOS-7" value="" style="rounded=0;whiteSpace=wrap;html=1;strokeColor=none;fillColor=#66c6c4;" parent="1" vertex="1">
          <mxGeometry x="1200" y="1" width="400" height="899" as="geometry" />
        </mxCell>
        <mxCell id="M6gj8kt36gLy5a3jpEOS-8" value="&lt;h2&gt;&lt;font size=&quot;1&quot; style=&quot;&quot; color=&quot;#ffffff&quot;&gt;&lt;b style=&quot;font-size: 80px;&quot;&gt;赋能&lt;/b&gt;&lt;/font&gt;&lt;/h2&gt;" style="text;html=1;strokeColor=none;fillColor=none;align=center;verticalAlign=middle;whiteSpace=wrap;rounded=0;" parent="1" vertex="1">
          <mxGeometry x="119" y="507" width="162" height="30" as="geometry" />
        </mxCell>
        <mxCell id="M6gj8kt36gLy5a3jpEOS-9" value="" style="shape=image;verticalLabelPosition=bottom;labelBackgroundColor=default;verticalAlign=top;aspect=fixed;imageAspect=0;image=data:image/png,iVBORw0KGgoAAAANSUhEUgAAAgAAAAIACAYAAAD0eNT6AAAABHNCSVQICAgIfAhkiAAAAAlwSFlzAAAOxAAADsQBlSsOGwAAABl0RVh0U29mdHdhcmUAd3d3Lmlua3NjYXBlLm9yZ5vuPBoAACAASURBVHic7N15nE31G8Dxz519H9swtrFnC0XJlq2UpY0sWUJlr6yJ0qZIComQJGtESKVUsm+lKGRfZzCWrLPv9/fHNeVXlpn5fs895977vF8vr9/Cec4zx3W/z/muIIQQQgghhBBCCCGEEEIIIYQQQgghhBBCCCGEEEIIIYQQQgghhBBCCKuwmZ2AcAobUBQoA5QGSgIRQMF//fIB8l+9xg8IvvrfE4G0q//9EpABXPjXr3PACeD41V+nAbtRP5DQRv6OhDCPqW2wFADuxQsoB9QAqgHVgco4Gn1/J+eSAkQDe4HdwC5gJ3AUyHJyLuLGpAAQwjxSAIg8KwDUu/qrPlCLf97arSoR2A5svvprK3DR1Iw8mxQAQphHCgCRY0FAY6AF0BTH272r/x3agX3AGuA7YD2QZGpGnkUKACHMIwWAuKlSwGM4Gv1GQIC56RguBUcRsBJYjmMYQRhHCgAhzCMFgPiP4kBboB2O7n1P/nvaC3wBzMUxf0DoJQWAEOaRAkAAju799sDTOMbzvcxNx3KycMwZ+BRYjAwT6CIFgBDmkQLAw1UBugI9cUzqE7cWB3wOTAd2mJyLq5MCQAjzSAHggbyBx4HBwD0m5+LqfgEmAEuBTJNzcUVSAAhhHikAPEgI0AkYAtxmci7u5jjwEY5egcvmpuJSpAAQwjxSAHiAcGAQ0J9/dtoTxrgETALeB66YnIsrkAJACPNIAeDGgoEewMtAYZNz8TQXgclIIXArUgAIYR4pANyQH9APeAlp+M32FzAGmMI/5xmIf0gBIIR5pABwM/cDE4GqZici/s9hHD0xX5idiMVIASCEeaQAcBMVgfFAK7MTETe1BhiI44AiIQWAEGYytQ2WzWbUBeDoYt6NNP6uoCmOvQPGAIEm5yKEEKaRHgA1jYCPcYElfTabjWKR+SldMoIyURGUjoqgaJH8FCoQSkTBUAoWCCUsNJDw0CAA/Px8CA5ynCCcmJRKWloGAFfik4iLT+b8hXjOX3T8On32Esdj/uJYzF8ciznH6bOXsdtd4sXyENALWGdyHmZS+ouKPXtBVx5CuJxiRQqqhpAhABcUBryLo/Gw3DMMCQ7grjvKUqNqKapVLkmNqqWoWqkEgQF+Trl/UnIqe/afZOeeGHbvi2HX3hh+++MoCYkpTrl/LtmBT4CheOZqASkAhMgjKQA8T31gHlDG7ESyFYkIp0mDqtS7+zbq176NGlVL4e1trdGdjIxMdu6JYfO2A2z59SBrN+3h3Pk4s9O6VjTQBdhkdiJOJgWAEHkkBYDn8AFeBUbg2MrXNN7eXtSpVYEW99WgedM7qFm9NDaba/1VZmXZ2bHrGCtX/8HK1X+w7fcjZGZmmZ1WJo65ASOBDJNzcRYpAITIIykAPENpYAFQ16wEvLxs3FunEh0eq8vjD91D4UJhZqViiDPnLrN0xTYWLd/K5m0HyMoydQ7BLzi2bPaE44elABAij6QAcH8P4mj8TTmpr/JtxenRuQkd29SnaJF8ZqTgdKdOX2Thl1v4ZP5aDhyONSuNS0BnYKVZCTiJFABC5JEUAO7LhmPjmDdx8nLJAH9f2j1Sh55PNuXeOpWceWtLsdvtbNi6nxnz17D0m19ISU13dgpZOIYD3sJ918tLASBEHkkB4J7CgLnAo868aeFCYfR76gH6Pd2MiILu1cWv6tz5OKZ8+iNTP/2R8xfjnX37b4Ancc9VAlIACJFHUgC4n5LAt0A1Z92wfJlIhj77EF07NCTA39dZt3VJySlpzFm0gfc+/Iaj0eecees/cWz0FOPMmzqBFABC5JEUAO6lGo7Gv6QzbhZVohAjBj7G050a4+Nj6sICl5OensnCLzcz8r2lziwEzgAPA78564ZOIAWAEHkkBYD7aAksAkKMvlGRiHBee+FxenRugp+fj9G3c2upael8PHcNb41fxl8XnLKvQCLQEcewgDuQAkCIPJICwD10AWbhWOtvGH8/Xwb0as6IQa0JC5Vt6HW6fCWJtyYsY/In35Oenmn07TKBZ4A5Rt/ICaQAECKPpABwfb2AaRg80/+R5rUYP7IL5ctEGnkbj3fgcCyDXp3HytV/GH0rO/AcMNXoGxlMCgAh8kgKANfWD/gQA59DkYhw3n29E13bNzTqFuI6vvlhB32GfkLsmUtG3+p1HEtFXZUUAELkkasXANbaMN65hgNTMOgvwGaz8UznJuzfMkEafxM8/GBNdq1/1xnPfiTwmtE3EUII3Ty1B2Ag8L5RwSML52P25D482KSGUbcQubDixx08PWC60ZMEh+E4IdLVSA+AEHnk6j0AnlgAdAc+xaCf/cEm1Zk9uS+RhT1j215Xce58HE8P+IhvV/1u5G2GABOMvIEBTC0AVL9Azb6/cG0W+PzIEIATdQZmYsBD9/fzZdp7z/D9opek8begwoXC+Gb+UCa8+SS+vobtufAe0M2o4EIIoZMnFQAtgNkY8DOXLF6QDV+/Tp9u9+sOLTSy2WwM6tOSNcteNepgJS8cBeZDRgQXQgidPKUAuB1YiAHr/BvWrcyvP46mds1yukMLgzS4pyI7142lSYOqRoT3xrGh1D1GBBdCCF08oQAojuNI13Ddgft0u5/VS0dQJEJ7aGGwiIJhfP/5cLo/0ciI8EHAl0ApI4ILIYQO7l4AhAIrgBI6g3p52Xj39U5Me+8Z2cPfhfn5+TBrUh9GvtgWm037tJCiOM6VkOpQCGFJ7lwA2HCM+d+hM2iAvy+LZgxg6LMP6wwrTPTaC48z58O+RpzLUBWYj3v/OxNCuCh3/mIaBrTRGTA4yJ9vPhtK24dleNfdPNnuXr6a+wKBAX66Qz8EjNAdVAghVLlrAXAfMEpnwPCwIH784mXub1hNZ1hhIc2b1uD7RcONOKjpDRynTQohhGW4YwEQBXyOYza2FoUKhLJm2SvUu/s2XSGFRTWsW5kfFr9EvvAgnWG9gHlAGZ1BhRBChbsVAF7AXKCQroDhYUGs/Hw4NavLd7enqFOrAt8veonQEK09AQVwLA/01RlUCCHyyt0KgBGAtnVdQYH+fDN/KHfdUVZXSOEi7qlZnpWfDyM4yF9n2LuBV3QGFEKIvHKnAqA28KquYAH+vqz4bCj31qmkK6RwMfVrV2TRjAG6VweMABroDCiEEHnhLgVACI7lVlq6V728bMyb+qxRO8UJF9Kq2Z18PL6nzn0CvHHMB5D9AYQQpnKXAmAMUEFXsHde7ShL/cTfunVoyKtDtK4oLY1rHh0shHAj7lAA3AP01RWsR5cmssmP+I83hj5O1/YNdYbsiWO5qhBCmMLUs4g18Ad2AFV0BGvSoCo/Ln5JtvcV15Walk7jR9/i5+2HdIU8CNQAUnQFzAO7ysWq56kL4cqKFSmoGsLUNtjVewBeQlPjX7J4QRbN6C+Nv7ghfz9fls0erPMo4dvQOHFVCCFyw5ULgAo4CgBl/n6+LJk5iIiCYTrCCTdWtEg+Ppv2nM5CcShQWVcwIYTIKVcuAMYBWjZunzi6K7VrltMRSniAJg2qMuql9rrC+QITdAUTQoicctUCoCnwiI5ALe67g95dZS6WyJ2hzz5M03u1LRNtDrTSFUwIIXLCFQsAb2CijkCFC4Uxa1IfI86CF27Oy8vG3A/7UTB/iK6QE3FMahVCCKdwxQKgF6B8JJ/NZmPulH4UiZD9WETeFC9agI/G9dAVrjzQR1cwIYS4FVcrAAKAl3UEeqZzYx5sUkNHKOHB2j58D+0eqaMr3Agcu1oKIYThXK0A6AuUUA0SWTgf777WWUM6QsCkt7uRP1+wjlARQD8dgYQQ4lZcqQAIBobpCDRl7FO6vrCFILJwPt57XVtB+SIg61GFEIZzpQLgOaCIapBHmteiTavaGtIR4h9Pd2pMo3palvMXBAboCCSEEDfjKgWAPzBINYifnw/j3uiiIR0h/p/NZuOD0d3w9tbyT2ogMhdACGEwVykAuqPh7X9Q75ZUKBupno0Q11Gjaime6dxER6gCwFM6AgkhxI24wgJ4G7AHxe1SCxcK4+DP7xMeFqQnKyGu468LcdxWZxCXrySphjqG46yADPWsbkoOAxIij+QwIOO1QsNe6a8PbSuNvzBcRMEwXnxOyyaVZYDWOgIJIcT1uEIBMFg1QOmSEfTQ0zUrxC093+NBChfSMpFf+bMvhBA34mN2ArdQCWisGuTVIW3w8zPnRz13Po6NP+/nz30n2H84loNHTnPpciKX4xJJSHQcAx8SHEC+sGDy5wumYvmiVCpfjKqVStKwbiWPP6HQFZ9fSHAAw55/hCGvz1cNVQeoAexUz8qaNHShCpFnnj6EZfU5AOOAISoBKpSNZO+mcTqPb72l3/44yoJlm1m1bjd7DpzEbs/bMKvNZuP2SiVo1rg6ndrUp1aNMpoztSZ3eH7JKWmUrz2Q2DOXVENNwbEE1iimzgGQAkCYyQKfX1PbYCsXAH7ASRy7o+XZ9HE96OWE0/7iE5KZMW8NMxesY++Bk4bco2rFEjzTuQk9n2xKSHCAIfcwizs+v3FTVzD0jc9Uw1wGigHJ6hldlxQAwmNZ4PMrBcANdAA+VwlQuFAY0b9/SIC/r6aU/uvS5UQ+mLGSyZ/8wMVLCYbd51oF84fQv2dz+vdsQb5w157Y6M7P70pcElF3PkdcvHLb3Q2YqyGl65ECQHgsC3x+ZRXADTytGqDfUw8Y1vjb7XZmLVxHxbqDGfneUqc1XgAXLiXw+rtLqFh3EHMWbchzF7mZPOH5hYcF0aNLUx2hZE8AIYR2Vu0BiABiUZikGBjgR/Tvkw2ZBHbk+Fm6Pz+NTb8c0B47L+6tU4k5H/alTFRhs1PJEU96fjEnz1Ou9kAyMjJVwmThOATrtJ6s/o/0AAiPZYHPr/QAXMfjKK5QaPdIHUMa/+Urf+PuB0ZYpvEC2Pjzfu5oMpzFX/1sdiq35GnPL6pEIR5qdqdqGC+grYZ0hBDib1YtANqpBujRRe+6f7vdztA3PqN1t/FcupyoNbYOcfHJPNFrEsPfWmjJIQFPfn49n9QyCbW9jiBCCJHNigVAJNBIJUClCsVocE9FTelARkYmPQZ9zLipK7TFNILdbmfs5K/p+uxU0tOVupy18vTn17xpDaJKFFINUx+I0pCOEEIA1iwAHgGUFu337NIUm03P0Ep6eiZtnprApwvWaYnnDPOXbKLtM+9bogiQ5wdeXja6P6FU04JjrFDLHsNCCAHWLABaqlzs5WXjidb1tCRit9vpNWQG3/ywQ0s8Z/r6++08NeAjU4cD5Pn9o2v7e3WEaa4jiBBCgPUKAD9Aad3UvXUqUSwyv5ZkXhy5gNmfr9cSywyfLdnES6OUtlJQIs/vH+VKF+HOaqVVwzQB3GsHKCGEaaxWADQAQlUC6Hr7X/LNL5Yfs86Jdz/8hi+/+9Xp95Xn91/tH62jGiIIaKghFSGEsFwBoNTF6e3tRZtWtZWTOHL8LD0GfawcxwrsdjvPDJzO8RN/Oe2e8vyur/2jdXXMTWmhnIgQQmC9AkBpvVSdWhWUj2G12+10f34aV+KSlOJYyaXLiTzV3znzAeT53VjZUoWpVrmkajpathYUQggrFQAhQHWVAC3uq6GcxKyF6y21SY0u6zbv5bOlmw2/jzy/m2veVPkzejuQTzkRIYTHs9JWwPcBP6kE+G3V20pHvl66nEjFuoP560KcShrXFRrsR6vGZWhSpyQ1KkZQqngY+cL8Abgcl8rxk1fYeeA8a38+wXfrjxGfmKY9hyIR4RzYOoHwMGMOwJHnd2trN+2haZtRqqm0BFaqBrnK1K2AhXBlrr4VsNJ2u5rVV7m4SEQ4NauXVkrggxkrtTdeRSOCeaXfPTz5WBWCAq7/uCMKBBJRIJC7q0fSo93tJKVksHDFft6b8RuHYy5ry+XsX1f4cOYPjBjUWlvMa8nzu7X6tSsSGhJIfILSCYH10FcACCE8lJV6AL4HHszrxU+0rsfC6c/n+ebxCcmUrtVf26l0gQE+DOt1N4O61yQ4MG8nEqZnZPH+7B2MnLyV1DQ9m9IUKhDKse2TCAnWu5pMnl/OPdzlPVb8qLQ3wjocSwJ1kB4AIfLI1XsArDIHwAYoTd+vd/dtSgnMmLdGW+NVPiofWxc9wSt978lz4wXg6+PFiz3u4qfZbSlSUE+3/fmL8Xwyf62WWNeS55dzqp9V4C6sVbwLIVyQVQqAkoDS7j31a6t9qc5csE7p+mw1KkWwYUF7br9Nee/3v9W9syg/L+lI1Qp6jk79dIH+AkCeX86pflZxTJgtqxpECOHZrFIAKM3+Dw0JpHqVvJ+T8tsfR9l74KRKCoDjzXXlJ60prOlt81olI0P5ZvpjWt5kd+87wR9/RmvIykGeX+7cfWc5/PyUp99UUw0ghPBsblEA1KpRBh+fvJ8ftGCZ+vKuwAAflkx+yJDGK1tU0VCWTH4Yfz+ls5IAWKBxSaA8v9wJDPDjjttLqaag9G9GCCGsUgAovc3UqKr2Zbpq3W6l6wGG9bpba7f1jdS9syivPae8pSyr1u/SkM3VWPL8ck31M4v0AAghFFmlAKiqcrFK9/+583HsUey+LhoRzKDuNZVi5Mag7jUpFxWuFGPX3hjOX4xXzkWeX95Uq5z3z+xVVVQDCCE8m1UKgLzv3gNK26tu/Hm/8havr/RTm62eW36+3gztcbdSjKwsOxt/3q+cizy/vFEpWq8qjawEEEIosEIBUAjHrOY88fKyUbVSiTzf/M99J/J8LTh2qHvyMee/jHV8qCIhQWqNpurPriOGpz4/DWcCBAGFVYMIITyXFQqA0ioXFy2Sn6BA/zxff+BIrMrtadW4zA13qDNScKAvLRopdZxw4Mhp5Tzk+eVNgfwhFMif57o3W2nVAEIIz+XyBUDpkhFKNz+o2Ag2qaP8JpdnTRXvrfqz64jhyc+vTJTaZxfFoTMhhGezQgGgNB1a9Uv0/AW1iXA1Kip/ief93pXM/dl1xPDk56davALKEwmEEJ7LCgWA0jhmacUCICExRen60iXClK5XundxtXsrHkgDyPNTUSZKeQjf+HWTQgi3ZYUCQGl/1mKRSjsIE6/YgIWF+CldryI8NO9zHwDiE9R+dpDnp6JEsQJK1yMFgBBCgRWOA1b6EitUIFRXHi5HdUe71LR05RzS0jKUrvfzVd+Vz1UVVP/s6jncwESqp6mpnkZo9v11WLzocwb2f9bsNJzqg8lTade+g9lpuDyX7wEomF/tSzRU8VjcuIQ0peuFea7EpypdHxqi9tnRULxKD4Bg61Z923q7ii1bNpmdgltw/QKggNpSKpVz3QGOnbiidL0wz7GTan93oSGBStcXVF8GqDyGIFzf1s2eVwB44s9sBCsUAMEqFxfIp/YlWqig2lvYzgPnla4X5tm5X+3vTvWzo2EIwLiTk4RLOHXqJDEx+k72dBUxMdGcPKm+kZmns0IBoDQLzN9fbTe328oVVbp+7c/yIXRVa36OUbpe9bMTGKA8AVJtFqNweVs8+E1465YtZqfg8qxQACh9ifkrnqtesVwxpeu/XXeUhCT1yXTCuRKT0/l+w3GlGJXKq312VD+7KBbPwvV58li4J8590M0KBYDSl5if4pfo7Yp7sickpbPouwNKMYTzLfhmv3LhpnIGBaj3XiE9AB7Pk8fCt2zy3OJHF9cvAHzVCoCGdSths6kdqvbejN9Iz8hSiiGcJzUtk3dn/KoUw8vLRsO6lZViqH52kQLAo3nq+H+2mJhoTp1SO4rc01mhADA1h4iCYdyu+CZ3OOYy78/eoSkjYbQJs7Zz7GScUowaVUspz+L39lb+6KudwyxcmieP/2eTZ6DGCgWA0nZqaelqG9EANGtcXTnGyMlb2fq7+uE6wlibt8fy1pRflOM0a1RNOYaGz676Vo7CKex2O6+/OoIxb79FUlKSlpgyBq5vDkRSUhKjR73Jq6+8hN3uOXW16xcAijvRAXRqU185RmpaJm2f/4YTZ9QP2BHGiDkdT/sBK0hLz1SO1elxDZ+ZVOXJo+qHOQjD2e12Xn3lJWZ8/BGTP5hIg3q1+WLxIuW4njz+n+1nDSsBVv34PY3vrceUyR8wc8bHvPjCYLKyPGNI1woFgNKXmI4egFo1ylC1otowAMDZC0k81Gu5FAEWFHM6nod6LefsBfW3r+pVoqhRVekQSwBS1YtXta0MheHsdjuvjBjOp5/M+Pv/O3P6NAOe70fHDm05cvhwnuKeOnWS6OjjmrJ0XdHRx/M8D+DwoUN0aNeGbk92/r89BT6bP5dXXh7uET0BLl8ApKToWYL3dKfGWuLsOXSBOm0XynCAhWzeHkuddgvZe1jPvu26PivSA+Deshv/WTM/ue7vr1+3lqaN783TsICsgf9HbucBJCYmMnrUm9zXpCEbN6y/7p+ZPWsmI14a5vZFgBUKAKUhgIuXE7Qk0avrfTq2ZgUcPQH3d1/C2Bm/auluFnmTlp7JmOnbaPbUUs5pePMHx6TRHl2aaol1OU45J5kDYFG3avyzpaenMfmDiTSsX4cV33yd4/ievP7/33IzF+Lrr5bTsEEdpkz+gPT0m5/j4glFgBUKAKW3mIuX9BQAIcEB9O/ZXEsscMwJGDFhM7e3mssnX/xJYrJsFuQsCUnpzFi8m6ot5/DqxC1ai7CBvVsQHKRn9d2Fi8pDRWpLGYQhctr4Xys29hS9ejzFE+0fz9GwgIz//yMnz+LwoUO0b9uaPr2e4XRsbI5jz541k1dedt8iwArHASv1y168nKgrD/r3bMGUT3/k3Hl936tHT1yhz2s/8cI762nRqAxN7inJHZUjKF08jHxh/h59HK4OaemZXI5L5fipOH7fe461v5xg5frjhhRcRYvk47lnHtQWT0Pv1VkdeQh98tL4X2vD+nU0bXwvvfv2Y+CgIQQF/fe4h9hTp2T8/xrZ8wCKF//vPK7ExETenzCOGdM/uuUb/43M+nQmAKPeHqu8Z4zVWKEAyHk5dh0a3qL+li88iHdf70z356dpi5ktISmdL1Ye5IuVB7XHVmEr3NHU+/tUnmjq/XNj3BtdCAtVOwHwWhcuKhcAZ3TkYabYs3rmZVjh/qqNf7b09DQ+nDSRZUu+4I03R/HQw4/83+9v2aL+9n/8y/KUilTeiVKL6DPplG6dt8mQ2bZu2ULbdu3/7//7+qvljHzj1Vy98d+IuxYBVhgCUJotd+rMJV15ANC1/b3KO7wJ99OkQVU6tqmnNebps8qfXekBsAhdjf+1bjQsoDr+X6aYr2Uaf4BSkb6UKaaWz7XPJK/d/bcy61P3Gw6wQgGg9DcUfeIvXXkAYLPZmDelHwU0TQgUri9/vmBmTuylvfI/fkL5KGmX7wFwB9nr/HU2/tdyDAs04NVXXiIhIUF5/L9JTaUT2A3R6E61k61/3rKF5ORkxr83lvubNmLTxg2aMvt/sz6dyYsvDHabIsD1C4CTyl+i/xFVohAzJvR0q64ekTc2m43Zk/pSJqqw9tjRJ5WLV+kBMFl243/tOn8jpKenM3PGx9xb/x7l8f+Gio2tERorFiXHjx+j3j21GD/uXdLSjN0e47P5c3llhHvsE2CFOQBKQwDR6m9R19WmVW1efO5hxk7O+dIc4X5eHvgYjzSvZUjs4zHKBYCchGIiZzX+1zp7Rr3Tp3FNKxYA6jmdPeu8etio3h5ns0IPwIlb/5GbXBx7gdQ0Y5bYjXnlCbq2b2hIbGF93Z9oxFvD2xkSOy0tgxOxShPQ7IC1ZpR6EDMafx2sNv6frVSkL6WLWi+vm3GHIsAKBcBp4HJeL87IyGT/IX0TPa5ls9n45P1ehr0BCut6tPldhg4DHTx6mnS1/QlOA7LntAlctfEH9a52I1mxZ8LdWaEAANincvGe/cb1hPr6erNs1mB6dGli2D2EtXRt35AvZg7Ex8e4PRp271Xq+AJ5+zeF3W7ntVdfdsnGH6zdyDa607rFibuySgGwV+XiP/crf5nelLe3Fx+P78mw5x+RiYFuzGazMWJQa2ZP7oOvwRs07TmgXLRKAeBk2W/+M2d8bHYqeaY6295ITWpZNzd35RYFwK69MbryuCGbzcY7r3Zk2ezB5M8nlaq7KZA/hOVzhjDqpfZOKfJ27Y1WDSEFgBO5crd/NquO/2dzxXkArs4tCoBfth922pKMx1rcxY7VY2hUTzYLchdNGlRlx+oxTp3r8ct2tZ3PgD915CFuzdW7/bNZefw/m5WHKNyRWxQA5y/Gc+io8/ZEKV0ygrVfvsq8qc8SWTif0+4r9CpaJB+fTXuONcteoVSJQk6775HjZ1XPm7ADv2lKR9xEduPvyt3+2VyhcXWFIsWdWKUAiAHOqQT4efshTankjM1mo0vbBuzfMp63hrenUIFQp95f5F1EwTBGv9yBA1sn0Onx+k6//9bflD+rx1E8REvcmjs1/mDt8f9srpCjO7FKAQCwReniX80ZEg0PC+KVwa05tn0S77/VlWqVS5qSh7i16lWimDiqK8e2T+LlgY8RGqLvYJ/c2LJN+bMqb/8GM7LxL1bIhw+HRFKisPP2YbP6+H+20kWdOw8gqogvU4dGUqyQFfbEcz4r/dRbgcfyevHqDXs0ppJ7IcEBDOzdgoG9W/DHn9EsWLqZVet3sWtvDFlZrr9lpCvy8rJRvUoUDzSuTqfH61OjaimzUwJg9Ubl4ftfdeQhrs/oxn/NlFJUjPKjW6tw3px5nomLLpKeYex3hCt1rTeuGcTsb68Yeg8/XxtDOhZgRPdCBAd60fSuYJo+G03s+QxD72s1VlrT1gDYqBLgyK8fULaU/j3bVZy/GM/Gn/ezZ/9J9h06xcEjp7l4KYHLcUkkJKaQluZZHzjd/Px8CAkOIF9YEAXyh1CxfDEqlS9G1UolaFi3MgUtdqjTsZhzlL1rgGqYpsBaDemAYz5Bnpl9nK9uzmr8r7XveCrPjz/L6t8Std8z25zXitG1Rbhh8XWa/e0VGzb8XgAAIABJREFUnhplzOZuAA/cE8ykwZH/+Xs4EJNmRhFgahtspQLAH7hy9T/zZNp7z9Cn2/36MnIBtsIdla63n1vo0vd3NR/N+Ym+Q2eanYZwsiIFfFjzYRRVytz46+2bTQk8N+4MMWf1b21+/MvyLjEEAHAsNp2yjyuvkvmPYoV8GNOv8E0LoUMn0mjybDSn/nJaEWBqG2ylOQCpwO8qAX5Ys1NTKkIY48e1u8xOQThZsUI+rJ9W6qaNP8DDDULYs7AsQzsXxNdHX7vgKuP/2coU0zsPwM/XxvCuBTm4uNwte0EqlPRj9YelPGZOgFUKgBLAy0BplSCr1u8mKdnYoyCFyKuk5FR+XCcFgCe5Ubf/jYQEevHuc4XZOa8MTe/SM27vSuP/2XStBmhWO5hd88sypm9hggNz1txVjPJjzRTPKALMLgAaA9/iWNY0GohUCZaYlMp3P/2hnpUQBli5eieJSVKgeorcNv7Xqlzan9WTo/j8reIUj8h7QxRZ0IeOzcLyfL1ZOj8YTlGFBrhkEV++GF2cHz+IytPzrxjlx1oPKALMKgCa41j2txZoCWjbeH3JN7/oCiWEVvLZ9BzFCvmwNo+N/7U63B/G/kXleCGXwwKNawaxaFRxYpaXp1lt1+sBaFY7mOgvy7N4dHGa1Aoip7tzZ3f371tYlrZN1Qqf25xTBHjUJMDKwAQcBYAhQoIDOLdvOoEBav/wXIXZk/DMvr+rSE5Jo3Dl3iQkppidijBYduN/m2Lj/297j6Xy/ISzrLnBaoGwYC+6tginb5v8t5xv4Gr2HU9l2rLLzF15mSsJWdf9M/ffHcyHL/x3dr+qgzGOiYEGrQ6YBAxEcTVOXjmrB8AfeBvYhYGNP0BCYgrLv5N9UoS1LP/uN2n8PYBRjT9AlTKOYYGFb/7/sECNCgF8NCySU99UYPKQSLdr/MExJDJpcBFOfV2Bj4cX5Y4KAX//XskiviweXZxVk/LW3X8rBvcE9AcmYlJPgDNuegcwB6juhHsBcH/Daqxa8rKzbmcqs9/Azb6/q3ig3dusWr/b7DSEgYxs/P8tPimLacsu0aBGEPWqmbOjpdm2/pnM5p1J9G2TP8cT/FS4Y0+A0QXAk8B0wKmfUJvNxuFtEy23KZARzG6Azb6/K4g+eZ6yd/WXHSHdWE7W+QvXZ/A+AdOBvjixCDCqbPIDPgLm4uTGHxy7ec1ZtMHZtxXiumYtXCeNvxsrVsiHDTlY5y9cX4WSfqwxbp+A3jh5OMCIAiAIWI7jhzHNjHmrZZtdYbr09ExmfqZr115hNUUK+LBqUpRTuv2FNdwW5ce6qaWUlmfeRH9gGk4qAnQXAPmAVUALzXFz7fTZyyz6aqvZaQgP9/nyLZyMvWh2GsIA8ubvuZzQE/A+TigCdBYAQcA3QD2NMZWMm7LC7BSEh5sw7VuzUxAGkDd/YXBPwACc0BOgqwDww9Ht30BTPC127Y1h3ea9ZqchPNSajXv4489os9MQmsmbv8jm6j0BugqAT4BmmmJpNfr95WanIDzU6Ilfmp2C0MyZS/2EazB4n4ABGFgE6CgA+uNY7mdJP23YzYat+8xOQ3iYzdsOsGbjHrPTEBpJt7+4EVcdDlDNtj4wTkciRho5bimrl75idhrCg7z6zhfKMYILF6XLqj14+UqDkyN2O5vGvMju+dO0h/akN/+MTDsHY9L482gqe4+lEns+gzMXMjh3KZPY8xkkJP2zFW9KWhbJqXYKhHlTMNzxK/u/VyjhR6XSflQu7c9tJf3w8zV123vDZQ8HGLRZUG8gBRiExn0CVAqAEBzr/A05aNrm5UXJBs0IKlSE/cvmKsVas3EP67fso1G9ypqyE+LG1m3ey9pN6m//t3fqJY1/Tknjn2fnLmWw5rckVv+WyG/7Uth7PJW09Ny1MRfjMrkYl8mhE9f/fR9vG+VL+FK3WhCN7gyiQY1AyhV3v+eZPRxgUBEw4Op/aisCVEqyaUAfHUlcyzcwmCodnub2jr0IK1mGtIR45t1XkbT4OKW4d99Zjp9XvoWXl3tVoWbvxGf2/a0mK8tO7QdHsH3nMaU4PgFBPLlmPwH5CmjKzI1J459r2/Yms3h1HKu2JbL7SCp2E/apKlnEl8cahvJ4k1Aa1AjC2+zD6TUyeNvgD9BUBOT1kdfHgI1+SjVuQYdvfqXei2MIK1kGAL+QUKq2f0Y59q+/H+GzpZuU4whxM3MXb1Bu/AEqPtpJGv8c2vLuS9L458D+6DRen/EXFdod4Z5njjN+wUV2HTan8Qc4cTadyV9cpHG/aIo9dIjnxp1h1+FUc5LRzAkTA9/TESgvBYAXmrcrDCxYmAc/WEDLqV8QWizqP79frUtfLV2hL4/+nKRk9/iACetJSExhxNuLlOPYvLyo3vVZDRl5Bi8//cvx3KXxz8qCFZsTaPpcNJWfOMKbn57n8Mk0s9P6j3OXMpiy9BI1njxK/V7HmbfyCqm5HIawGoOLAC1dC3kpALoAd+m4OUCBClV4fNE6yjZ75IZ/JrhIMW57qL3yvU7GXuSdSV8rxxHiet6euJzYM5eU45Rv8Tj5ylTQkJFnqNXnRUIiS2iL5w6Nf0qanY+XX6ZqpyM8/MIJ1m5PMjulHNuyO5mub8ZS7vHDfLjkEilprlsIGFQEnARG6QiU2wLAG3hVx40BSta/j9bzf7ruW/+/1ez9Il4+6vMNx07+mr0HTirHEeJaf+4/wbip6jtP2ry9uavvSxoy8hy+gcHUG/6Otnhv9Ihw2cY/Kwvmf3+FSh2O0HvsafZHW+9tP6dO/ZXB8+PPUL6toxBIz3DNQuC2KD9ee6aQzpCDgQQdgXJbALQDyuu4cdS9D9Dyo6X4hYbl6M+HR5Wl4mOdle+blpZB7xc+kdPZhDZZWXZ6DZ5BenqmcqzyLdqSr+xtGrLyLOUeeIwS9ZpqiTVm7nmSU13v++GnXxO566ljPDkylugz6Wano012IVDjyWP89Gui2enkWlJKFmPmXNAV7idAfY3xVbktAIbpuGnBitV4YMJcvLxz1y1yV99heGsY79v0ywE+nrdaOY4QAB/N+Ymtvx1SjuN4+x+uISPPdO+I8VrmCh2LTeeduec1ZOQc5y5l0G7EKZr1j+H3gylmp2OYfcdTadY/hrYvn+TkOdcpcN6ec0FXQZYGPK8jULbcFAB3A3eo3jC4cFFaTvsC3+CQXF8bUrQkldt1V00BgGFvLuBYzDktsYTnOhp9juFv6VnKWPHRzjL2ryBfmQrU6K7n+/Hd+Rc4csr63ecLV8VRtdNRlqxRWybtSpaujada52N89sMVs1O5pUMn0hj3mba3//eB/bqCQe4KgO46bth41FSlCTt39RmGX0ioch5x8cl0fXYqmZlZt/7DQlxHRkYmT/abQnxCsnIs36Bg7hnwmoasPJuuCYEpaXYGvH9WQ0bGuHAlk9bDTtLptVOcv6w+9ORqLidk0uWNWNqPOMWFK9b9+Z8ff0bXaoYTaJr4d62cFgC+gNqOL0D5lm2JaqB2ZlBgwcLU6qNlJIJNvxzgnUlfaYklPM/bE5ez5deDWmLd2XMIQRGRWmJ5Mp0TAr/dnMBXG+K1xNJpx4EU7nrqGMstmJuzfbEmjprdjrF9v/WGPpati+eHX7TNWRiCpol/18ppAXAvkF/lRv6h4dQfPlYlxN+qP9mP8KiyWmKNHLeUbTuOaIklPMfW3w7x1gQ9p/2FFC1JjW5ah/Y8ms4JgYM+OGupCYFzvrtCg97HOX7adcbAjRZzNp17+zj2DrCKpJQsBk3U1oOkdeLftXJaALRUvVGN7s8TVKiIahgAvHz9qDdsjJZY6emZtOsxkfMXpZoWOXPufBzte0wkI0NP12PdF0bhExCoJZZw0DkhcIwFJgRmZcHAiWfp/laspQoSq0hOtdP1zVhemHyWLAuM6o6efYGYs9ac+HetnBYALZRu4utHlfZPq4T4j9JNWhF17wNaYsWcPE+n3pNlPoC4pczMLDr2nsTJ2Ita4pVscD/lWzyuJZb4h84Jge/Nv2Dq7nkZmY7G7YNFej5z7mz8got0eyvW1D0DDsakMX6BdSf+XSsnBUA4UEnlJuWbtyGwYGGVENfV6I0P8A0K1hJr1frdvDbWkF4W4UZeHv05azaqn/QHjgN/Gr76vpZY4r/u6juM0OKllOOkpNl5btwZDRnlXmq6nQ6vnHKJGe9WMf/7K7QeftK0npKBE8/qmvinbce/G8lJAVAzh3/uhqp0UD/M53pCipak9oDXtcUb88FXLFy2RVs84V7mL9nEe1PUd/vLdvfzI/4+9Ero5xMQRL2hb2uJ9cMviU6fEJicaqfFoBiWrTNteDIB2Ijj9Ln+wGM4toEvDhS4+ssfx0tiKRzLxJsCPYFxwArguLOTBscEzodeOOH0bYSXro1n5VZtc/UGYcDEv2vl5ECfF1A4eSiwQCG6bTiKzcuYsx7tWVl82fl+zu7cpiWev58vq5a8zL11lDo9nMbs43jNvr+zrN+yjwfav01amp7jPQtVrsHji9fnejMskXsrej7Kic3qG3+VLurL3oXlCPQ3/kjxjEw7bYaf5JtNhn7//1sasAH4FvgROADomOhSHMdE8vuBRwGt++LezMMNQlg6pgS+Psb/nSUmZ1Gl41FdY/+rAD1j3DeRk1a5nMoNitdpbFjjD46T0xq/NQVv/wAt8VLT0mndbTwHj5zWEk+4vv2HYmnz1ARtjb+3fwBNx3wsjb+TNHh5nJYJgcdPO2dCoN0OPcecdlbjb8fR6HcFIoBmOE573Yuexh/gFPA50AOIBO4D5gDqG2jcwjebEuj+VqxTJgaOnn3eJSb+XSsnLXNplRsUrqbt4MAbKlC+MnUGv6kt3oVLCbTsOJbTZy9riylcU+yZS7TqNJaLl/R9GdcZNJKCt1XVFk/cXL4yFbjjqf5aYjljQuDwqeeY/a3hY/5JOLr2KwONgHmAM7YTzATW4NhYrgSOHuZYI2+44Mc4hk01dtfXAzFpjF+obZLmBBy9L4bLSQFw66P6bqJghSoql+dY9S59Kdngfm3xjhw/S7O2o2V5oAf760Iczdq9zdFofV8eJeo1pfqT/bTFEzlTs/dQQoqWVI5j9A6Bc1de4d352maQX08yjjf8csBAnNTQ3MBFYPzVXPoDhs20HPfZBeZ/b1xR9fz4M6TpmfgXi8ET/66VkwJAaQOg0BKlVS7POZuNpqM/IrCAvuGlPQdO0rzDGK7Euc5Z2kKPy1eSeLD9GK1HRwfkK0DTt6eDzfjxSPH/fAODqT9Mzw6B321JMGQXvt1HUun7rqGrDZYAFXBMLjNnWcP1pQCTgYo4CgJDdjnqOeY0v+7TP+qwZE0cq7Zp2/GvGLATmAk8CahXrTeRkwIgSOUGgfmdNt+DoIhIGr81VesX7Padx2jV6V0SEq231aQwRnxCMq06jeX33ce1xbR5edF0zMcEFy6qLabInbIPPEqx2vdqiTVo4lmSUvQNLMcnZdH25ZNaY17jCI69XNrhGI+3qjgcQwJ3Att1B09Jc0ysvBin7+yAxOQsBk/SPrxQDngamAvE4Pj7M6QgMLwA8Al07g5npZu0pGbPF7TG3LztAC2eeEeKAA8Qn5BMiyfGatvjP1vN3i9SqlFzrTFFzmWkJPHzhNc4s+NnLfGOn05nxlf65gj1HHOagzGGzC2Yh2N53vdGBDfIHqAu8Bb6JiICcPJchtZelunLL3NCz8S/mynLfwuCT3FM3FQaos9JAeCrdAMfpcvzpHb/V7XtEpht0y8HeLD9GC0nvwlrSkxK5eEu77F5m95h0RJ1m3B3v5e0xhQ5F73+ez5/+G5+/2QCWRn6vqzrV1d6N/rbkjVxLPpJ+/y7FBxj/F0xeC25QdKB13CsGPhLZ+DFq+O0nRtQr5opW3iXBZ7CsZIiGse8gcVALyBXG4sYtz7PRDYvL+4b+wmhxZSKo//Y8utBWnYcKz0Bbig+IZkH249h/ZZ9WuOGFoui2fg52Ly9tcYVt5Z4NpYfBnbmu75tiT8VrTX2XZUDuKuy+tLjS/GZ9Nc/qfAMUB/HLH9Xtx5Hb4DWf5jPTzjDyXPqxWCd2wO5o4KeJegKiuIY3pkOHL36axaO4u+m3LIAAMeEqwcnLcA3UM9Wwdk2/SLDAe4mu9tf95u/b3AIzT/8nIB8BbTGFTdnz8xk17ypLHyoJkd/NOa4775tlOZG/23o5HOcPq9nf4mrDgD1gB06g5rsCI6NhPTs9gZcSchi8Ad6xu77tMmnJY5GZXAss5xzqz/otgUAQESVO7h/3Cztb19SBLgPoxp/L28fHhg/h0KVqmuNK27u3J/bWdqhEZvHvEh6ojE93/lDvXni/jDlOOt/T+LTFVr3GtkJNACO6QxqERdwDAes0xXwC02z9zs9EE5okGs2pa6ZdS6UbtKS+sPHao8rRYDrM6rxB2gwYhxRDR/UHldcX1p8HBtHDWbZE034a+8fht6rW8twggLUvjrtdnjxw3PY9W1Vfwh4EDD/7GLjJACPoLEnoP8E9fX7oUFedH4wXFNGzuX2BQBAtc59qN71We1xpQhwXUY2/jWe6k/VJ3pojyuu7/DKpSx8qCZ/LvgYu8F7vtps0Lu1evf/8g3xbNurbULxSRz7xhu3Q5F1xONY0rhXR7D90Wl88rV6L0yf1pYbBsgRjygAAOq9OIbyLdtqjytFgOsxsvG/7ZGO1B3itI28PFrciWOs6PUYq4Z0I+kv5+xr06RWMJVKqZ0rkJkFr36sbWJ7Co4Ddo7rCugCLuL4mbXsvTtm7nnl43trVAig7u2mrAhQ4jGnkdi8vLjvnRlkJCdzfO23WmNnFwErPx9OSLDpM0LFTRjZ+Jdt9ghNRk8z9PArq8hISSYzLdWp98xMTSEjxfHWfOjbxez4eNzf/9sZ/HxtPNUqnKOn0snItBOflLfehnU7kthzVNuzexb3mvCXU4eBJ4CVgNIkr5PnMpjx1WWea6vWs9OnTX62/ulay8RzsmWeUmnUd6+1lqBmpqXyXb92nNyyRnvsBvdUdHoRYPZxvGbfPzeMbPxLNrifllMW5/rUuWlVQpTuq/LvKyszg+nVXLPrUgAwA8fab082ChihGqR4hA9Hl5bHzzfvu8gmp9op8cghrTsNanDTH8j9X1X+xdvPn+aTF1K0Zl3tsWU4wLqMbPyL3VWf5pMWaDly1plsOar/hUUdBwabnYQFjAR+Uw1y6q8Mlq1TO98h0N/GvNeL0bVFOFFFnL8BXl54XAEAjoNBWk3/ksiadbTHliLAeoxs/IvWrEvLj5bhE6BnVzghcqgPrrnDn27pOHbFU97VZ8rSS8rJtKwXwpzXihG9vDxHl5Zn1ivF6NYynFKR1iwIPLIAAMcmLQ9NXy5FgJszuvFv9fFyfIP0bjblNHIqoauaB/xgdhIW8icwSTXIpp1J7Dyk7zu7TDFfurcKZ/arxTj+ZXmOLbNeQeCxBQBIEeDupPEXbigZkIMl/mskGo441rEk8EZKF/1vQTD7VUdBULqoOQWBRxcAcLUImPGVtmNCryUHCJknMSmVR54cZ0jjH1mzDq2mf+nyjb9NegBc0RSsfaSvWeKBd1SDLFkbT6axW0n8rXRRX7q1dBQEx5aVJ/abCiweXZxej+WjShl/p+Tg8QUAOOYEtJzyhSE9AXKAkPPFJyTTvMMY1m3WslfI/ylasy4PffwVvsFqs/eFyIN4QP+2pu5jOo6T8fLszIUMtuxK0pRO7hQt5EO7pmFMH1aUPQvKcvzL8obfUwqAq2Q4wD3EJyTTsuNYNv0i3f63JD0ArmYG7r3Vr6oUYKJqkC/WqK0G0MUZ8wSkALiGFAGuTRp/4cbswMdmJ+ECPsUxTyLPVmy2RgHgDFIA/IsUAa5JGv88kl4AV7EGx1G/4uYuAItUAhyLTSfmrPKqQpcgBcB1SBHgWqTxFx5A3v5z7jPVAOt2mDMPwNmkALgBWR3gGrJn+xvR+LvLbH/h8uKAb8xOwoWsBc6pBFgvBYCQ1QHWJrP91clSQJewBMVxbQ+TiWLB9PMez3jcUgDcgvQEWJO8+QsPMt/sBFzQWpWLD8akkZKmdkSwK5ACIAd8A4NpOW2JIUXAll8P0rzDO1IE5EJiUioPdX7XkDf/yJp1eGj6crd/8/+b9ABYXSywwewkXJDSca8ZmXb2HnPucddm8DE7AVeRPRzwbe/WnN6xVWvs7OEAZx8l7IoSElNo8cQ7MuFPExu2PJ/37eXrh2+gSYcg2Wz4h5l3lLFfcCg2b6Vj6AHISElOuHRk/80+zItxdGmL3DkNRAOl8hpg3/FUalZ07+/jnJT/Sv0gKueVW1F6ciLf9W1L7LaNZqciNPK4N39hEbZp06oE9zM7Czf1A/BAXi8e1TuCEd0LaUwn92x19ymHuNlvyhBALhk5HCDMIY2/MIsN+3Gzc3BjSt2E0Wfcfy8AKQDyIHs4oGjNumanIhR5ymx/YU1Z2GPMzsGNKRUAJ85m6MrDsqQAyCPf4BBaTf9SigAX5olj/sJa7DbvaLNzcGMHVS6+cMX9p15IAaDANziEVjOWy3CAC5KlfsIK7BlpShvWiJv6S+XiS/FSAIhbkOEA1yPd/sIyvH09Y8s5cySqXHw5QQoAkQPSE+A65M1fWIp/qhQAxlF6tukZshGQyCFZHWB9MttfWM6l/FIAGEepByDD/TsApADQSYYDrEu6/YXwOGkqF2dID4DILRkOsB7p9heWlf+SSVspegSlrSID/N1/m2wpAAwgwwHWId3+wtJS/aUAME5+lYuDA9y/eXT/n9AkvoHBtJy6xOw0PJ50+wtLy0yXAsA4agVAoPs3j+7/E5pIupzNJ38HwspsPn6Fzc7BjSkVAIXC1Q97sjopAIQQwiQ2e2aeT6sTt1Re5eJiEe5/WK4UAEIIYRIbNikAjHO7ysVFCkgBIIQQwjD20mZn4MZqqFxcpqivrjwsy/1LHBe3+OvVZqdgqvaP3Gd2CuIWki+c49QvGzi7cxuXjh0k/uRxki+eJz05iax0paXYnqDP1V83MgkY4KRc3Ik3UFklQMVS/ppSsS4pAIQQuZZ65RKHVizmwNcLObf7N7PTcWcdgMGAB+xLp1VVQGmFRcUoP02pWJcUAEKIHEs8d5qdsz5g7+JZpCcr7bQqcqYIcD/wg9mJuJhWKhcHB3pRroQUAEIIQVZmBn8u+Jhtk94kPTHB7HQ8TUekAMith1UurlkxAG8PmCEnBYAQ4qauRB/hx8FdOb9vp9mpeKo2QF8g2exEXEQEUFslwF2VAjSlYm0eUOMIIfLq2JoVLGnXQBp/c4UCj5mdhAt5CMckwDxrUMMzNmiUAkAIcV0Hln/GjwO6kJYQb3YqAnqYnYALudmqilvy9oImtaQAEEJ4qH1LZrNmRB+yMjPMTkU4NAEqmJ2EC7gbxe7/u6sEkj/U/bcBBikAhBD/cmzNCtaPHAB29z8P3YXYgGfNTsIFKD+jVvU85/AwKQCEEH+7En2ENcN7Ys+UZecW1BPHskBxfUVw7JugpG3TMA2pqIs+k274PWQVgBACgKyMdH4c3FXG/K0rCHgBGGp2Ihb1BqA0fb9qWX8qlTJn/X/0mXTW7Uhi3Y5E1v+exLFYKQCEEE6ya+4Ume1vff2AD4FosxOxmKpomCjZ5cFwDankzLUN/rodSRw/bXyD/29SAAghSDx3mt+mjDE7DXFrQcB4oK3ZiVjMOBTbM18fG91bGVcAWKHB/zcpAIQQ7Jz1gWzt6zoeB5oBq8xOxCIeApqrBmlVL4TIgvqaxPikLL7aEM9Pvzq69K3Q4P+bFABCeLjUK5fYu3iW2WmI3PkEx3G3l81OxGSFgRk6AvVvX0A5ht0O639PYtaKyyxdF09icpaGzIwjBYAQHu7QisXy9u96ooApQGezEzGRDZgFRKoGqlUpQHnzn5Q0O3c8eZQDMa5zBLblC4BpVdTWZPbda+7BJV6+fkpnomdkZODjY/m/JkOkp6t1mXn5uv9pXjoc+GqBtlgFKlShctvulKjbhNDiUfgGBmuLnS0rPY0/Zn3A9o/eJSPFudvjLxpVnPb3qS0T++yHK3R5I1ZHOp2AtTh6AzxRf6CljkBDOxdUjrF4dZxLNf4g+wAYzjdQrapMTk7SlInrSVH82X2D9Dc+7ib5wjnO7dmhHMfL1497X5lA+2Vbqf5kPwqUr2xI4599r5q9htLhq21ENWhmyD1uZNqyS8oxOjYLp2pZfw3ZAI5egAa6grmQhsBYHYGqlfOnnYa1/9O/VP9sOJsUAAZT/RJMSfbcA8CSFX92oxogd3Lqlw3KO/55+frRavoybu/UC5u387ZQDStZhlYff8kDE+YSXLioU+65/vck9h1PVYrh5QVv9ozQlBF+wFKgrK6ALqAG8DWgpYoa1TsCL8WWcNfhVLbsdr3vaikADOYTrNYIxcdd0ZSJ61H92aUH4NbO7tymHKP+sHcoUaexejJ5VK55G55YsYNqnfsYXoDY7TBtmfq8u9aNQqldJVBDRoBjItxqoKSugBZWFlgJaFmv16BGEI/cG6oc5yMXfPsHKQAM5x+i9jk9HXtSUyauJ/aU2s/uF5ZPUybu6/KxQ0rXF6hQhaodntGUTd75hYTSYMQ4Hl+4loiqdxp6r7krLyvP7rbZYMoLkXjr+wYujaMIKKYtovWUBH4AtHT3eHvB5CHqOyvHJ2Ux/3vXfFGTAsBgYSVLK11/6mSMnkRcUOwptZ89rERpPYm4scvRh5Wur9y2u1O7/W8l4vaaPP75Ohq8/B5+IepvdtdzJSGLBT/GKce5q3IAfVrn15DR3yoAm4GKOoNaRHVgK1BeV8C+bfJzRwWlnYMBWPDjFeKTrL3c70akADBYWEm1obkTMZ674+eJmONK14dHedKwaN6kxau9uZSs11RTJvrYvL2p1qUvT6zYQbkHWxtyDx2TAQFG9YnQuvkMjp6AzUA9nUFc5LlnAAAgAElEQVRNdj+wESiuK2DJIr6M6l1YS6yPNAwJaXYMmA10u9UflALAYGElyyhdv2/PLuweeCyr3W5n35+7lGKoPntPkJaotkw2JLKEpkz0Cy5clAfen0er6cu09wb9fjCFn/9Un/SVL8SbGS8VxWbTkNQ/CuJYHvic1qjm6AN8C2g7os9mg5kvFyU8RL35+/nPZP44lKIhKyVHceyH0A0ohWOexFPA3FtdKAWAwcJLlVO6Pu7KZeU3YVd0/NgR4uPVulmlB+DWVPaoAPANtv7Z6VH3PkCHr3+lZq8X8PLx1RZ3q4YCAOCh+iH0a6N1KAAcqwMmAwsBV5wMUxjHTP9pOH4Wbfq0zk+z2nomCJs08/8I8CnQFceGUOWAp3E0+LkaN5UCwGCFKlfHy1uti2/X79s1ZeM6dv2h9jN7+fhSqHJ1TdkIV+cTEMg9A98gsmYdLfFKRfrS+zF97ep7zxfhdn17A1zrCWAP8KgRwQ3yMLD76n9qVaNCAOP7q0/8y9b7sXxEFdFXVN7Avxv88sAzwDzghEpgKQAM5hsYTEHFhmjThtWasnEdm9ar/cwRVe7AJ0BtEybhXo78uJzYbRu1xJowoAhBAfq+PgP9bSweXVxLt/R1FAOWA0twvC1aVUVgGY43fz0D9NcID/FiydvFCfTXN94SHOjFhAH6CoqrDgMzgSdxrHzQ1uD/mxQAThB5xz1K1x89fNCjhgGijx8l+tgRpRi63vSEe0hPTmTLO8O1xHrwnmDaNNa/wqByaX8WjCyuc2ngvz0O7AUmYkADq6AIMBX4EzBk1qaXF8x5tRjlS+jfHvzxJqE8cI+2PUfOADWBHsB8wNB14FIAOEHRmnWVY6z9aaWGTFzD2lXqP2vknerPXLiP7R+9S8IZ9e9Sf18bk4conz1zQy3rhTD2We1vlNfyAwYA0cDHQCUjb3YL1XE0/IeBvhh4Ns34/kV4tKExy0IBJg+OxN9XS89CJPC6jkA5IQWAE5So11T5YJqfvv9WeVKcK4i7cpnVq75TiuHt50+Juk00ZSRc3eWjB9k5e7KWWEM6FaRCSWMPmRrSqQDPtdU+KfDfAoCeOHoE1uGYRKZtpv1NhOLo2t4M7MTR8Bs6k7R/+wIM7KB+1O/N3Bblx+CO2u7RH6iqK9jNSAHgBP5h+ZS3Sk1JSWblN8v0JGRh3369lNQUtWU1Jeo1NWwTGOF6Nr79gvJqB3BM/BvRXf3UuJyYNDiSpx5yyuR9G9AIx5jzGRzb7A4EKl/9PR1uB4bi2KnwPI7Z6k7Zp6Bby3De1z9Gf10juhfSNSHQF8cKDsN55jmzJij7wKPEbPxRKcbKb77kwVaPER7uiqt6bu3SpQt8/+1y5Thlm7nShGdhpCM/fMnJLWu0xHp/oN6Jfzdjs8GMl4qSmJzF4tVO6/kLBJpf/QVwBdgBbMcxEz0Gx9DBJSAZiMPRhoRd/ZUPxx4Et+F4g83+Zezr9w10uD+MmSOKKR/0k1PZEwLbvqxl2L4J0BHHMk7D5KTCU9qFpu9etY1G3EXK5YvMaViOrAy1M+4bNX2AZwcO05SVtUwa/7by7H8vH1+6bzyKf7jhXah/S75wjlO/bODszm1cOnaQ+JPHSb54nvSrxxn7BgYRWKAQoSVKk79sRYrUqE3xexoSWEDbiXB5Nq2KWu+rlf99pycn8nmrWlrG/pvXCWHl+84/aycj006Pt08z5zvX3GveLF1bhDNzRFF8vPXusJQTDw6M4cdfEnWEisUxRyNeR7DrkR4AJwnIV4Ay9z3EkR++VIqzYe0qmjZrQeWq7rXGfc/uP9i8Qf1NrWyzR5zS+KdeucShFYs58PVCzu3+7eZ/Nj2N1LjLXD5+mBObfgKmgM1GkWp3cdsjHanQqp1TCxZPsX3aWG0T/yYNdk438r/5eNuY9UoxIvL7MO6zC6bk4GoGdCjA+wOK6N5dMccmD46kepejpKYr7+BaDMeEwBfUs7o+mQPgRNW69FWOYbfbmTJxLImKW7haSUJ8PFM/eFfLlsc6nvHNJJ47zZaxw5nXtBIbRw+5ZeN/Q3Y7Z3f9ysZRg5l3XyW2vPsSSX+d0ZusB7t89CA753yoJdYLnY2f+HczNhu891xhxj1fxGnd2a7I2wvGPV+EiQPNa/zBkAmBVXQF+zf5ODlR0Vr1tBxVeu7sGT58/x23OCPAbrczbfJ7/HXurHKsiCp3EHmnMev/szIz2DVvKgtb3cnOOR+Snqyliw+A9KREds6ezGcPVufXKW9rmbDm6Ta/M0zLcyxZxJeXujpn4t+tDOlUgJ8mlaJwfum4/beQQC+WjinBkE6mTDf4j1eeKkTpotomBH6EvgmZ/0cKACe7vVMvLXG2b9vK18sWaYllpi+/WMCvP2/WEqt6N2POPrkSfYSl7RuxecyLpBvY85KRksRvU95mWaf7iDtxzLD7uLsjP3xJzKZVWmJ9MKgIwYHW+ZpsUiuIrTNKU0PDMbbuonp5f36dVcbQdf65FRTgpXPL4XuBDrqCXcs6n2wPcdsjHclXWs+R1gvmfsL6NWorC8y0bvUPLPpslpZY+ctWpELLdlpiXevYmhUsadeA8/t2ao99I3/t+Z0v2tbn+Fq1/RA8UXpSIlvGvqQlVvM6IbRuZJ1GJVvZ4r5snVGaAR0KmNrVbQV9Wufnl5llqFTKvCGaG2nTOJQH9e0QOA7HHgpaSQHgZF7ePtQeoGejJ7vdzkeTx/Pbti1a4jnTr79sZvqH47UNY9wz8HVs3t5aYmXbt2Q2PwzoTFqCYZNwbygtPo4f+ndi/7JbnugprrH9I9ef+JcTgf42Jg4swurJpSgVafhhNJZTorAP300oybQXIwnws24VNEnfDoHFgdd0BLqWFAAmKPfAYxS+vZaWWJmZGYwfM9KlegLWrf6BCe+MJDMzU0u8IjVqU+Y+vQeH7Vsym3WvP49dU455kZWZwdpXn5UiIIfcaeJfTjWpFcSu+WXp376AKUvenM3LC3o/lp8/PytHi7rWP4r6tig/hnTSNodkAJonBEoBYAabjXrDxqCr/y4zM4OpH7zLV0s/t/TEQLvdzrLFnzFt0nvaGn+blxf1hr6t7VmCo9t//cgBYIVnabez/vX+RK/znLMg8mrj6CHadvx7uZs1Jv7lRFiwFx8MKsIfc8vQ9C5tXc6WU796INtmluGjYZFGnZpoiBHdC1p2h0DXeYpupmitelTt8Iy2eHa7nc/mzGDcmNdJNKHL+lYS4uN5b/RrfD7/U61FStUnemg9+e9K9BHWDO9p6pv/v2VlZvDTsGdkYuBNHPnhS05uXasl1kvdCjptxz+dqpb1Z/XkKL56twR33uY+kwSrlPFn8ejibPyoNLUqud7PFRTgxcv6tpBuCjyhK5jsBGii9MQEPn/kbhJOaz3imYjCkTw78EWq3F5Da9y82rP7D6Z+8K6WpX7XCi0WRYevf8U3SM9bT1ZGOks7NHbqhL/ciLi9Jm0WrsHLW98yMHfYCTA9KZHPW9Uk4ewpLfGKFfJh3dRSLjEEcCN2O3y9MZ6RM8/z+0G1szXMUrWsP8OfLEjHB8KNPCLZcIdPptG4XzSn/srQFfIUjrMalN/0XPixuj7f4BAajZyktfsa4K9zZxg5YgiTJ4zh8qWLWmPnxqVLF5g0/m1GjhiivfHHZqPxmx9qa/wBds2dYtnGH+CvP3ewe/5HZqdhOds/Gqut8QeIPZ9B437RHDrhuvsx2GzwaMNQdswpw9oppWh/Xxi+PtafI+DlBS3qhvDDxCh2zy9Ll+bS+F+HtgmBsqOEyaIaNOOOpwbwx6cTtca12+1sXPcT27dtpcXDrWn5cBtCw8K13uNG4q5c5tuvl/L9iuUkX90PX7c7nxlEiXpNtcVLPHea36aM0RbPKL9+OIoKrdoRVMi6M9SdLStT65cr8E8R4Oo9AQCNawbRuGYQp89nMOvbyyz6KY5dh1PNTuv/lC/hR7eW4XRrGU5JPePlpjOo8c+mZcmTDAFYQFZmBit6PMqpX9Ybdo+AgEDue6AlTZq1IKpUGUPuEX38KGtXrWT1qu+Uj/S9mRJ1GvPQjK+0LvvbMna4thnkRrvj6YHUfWGUlljuMASA3c7md4axa95U7aHdYTjgevZHp/HF6ji+3hTP7wdSyMxy7v1tNqhRPoBHG4bwWKNQ7nCzjY0Mbvwn41gRoDyZSgoAi0i++BdL2t6rZQ3zrZQuW54GDZtS/Y5alCpTDlsehyDsdjvRx46w84/tbFq/muhjRzRn+l8hkSVou2QTgQUKaYuZeuUS85pW0rq9r5F8g4J5cs0B/MPUj4V2iwIApAhQcDkhk/U7kli7I4mtu5P582gqSSl6KwJ/XxvVyvtTu0ogje4MokmtYCLy6d23wypcpfEHKQAs5fz+XXzVrTlp8U47/5vQsHAqV61Gyf+1d9/xVVR5H8e/Nw1IgwRYkCRABEEgVGnSFBUQpIgCCgpYV117eVRw18Wu7KMIa39QUcCCqIiIuipY1oKVKihIgFClJ4RAQpLnj0tcdCG5yZm5M3Pn8369eO2+MHPmN8PNPd85M3NOw8ZKS2+o49LSlZiYrISERFWvUUOSdKCgQPn5+7RvX642b9yozZs2KGfDOq1cvlR5Yay1WlJNDX7hXdU50dqVEJfPfFqf3XezpW3ardedj6rV+ZcZtxMxAUAiBFikuET6ZWOhlqw5oNU5hdq8/ZByfj2kTduLtDuvWPkFpSosKtXe/GKVlEg1E6MUFQgoKT5K9WvHqG5KtOqnxqhJepyapseqWUacWmZW88QzCKa81PlLHggAEfUFFYIt33+peZcN0aED9tw796qY6vEaNHWupa/8lXl9xCn6dfl3lrSVekJLtRh2kdJP7q2ktIaSpLxNG7Txy4VaOXuadq3+0ZL91GvbWee8bL58csT9fhEC4BCvdf4SbwG4znEdTla/yTMUFRMZD8JYISo2Tv2mzLSl8y/Y+at+XfG9cTtRsXHq+bdJGvHmV2oz+i9KbdpCsTUSFFsjQalNW6jN6L9oxBtfqucdDysq1rwD2bb0GxXs2mHcTsQJBNT99ofUZvRfLG86Et4OgD282PlLBABXatizr/pNnqmY6jWcLsVxMdXjdebkmWrYo48t7W9a9KnxjH9RsXEa+Mybyhp5uQLlLNgeiI5W1gVX6Kyn3zAPAaWl2vz1p2ZtRCpCAMLIq52/RABwrca9B2jQ1LdVrWaK06U4plrNFA1+7m01OrW/bfvYtuRr4za63/6Q0rqcEvLPp3c9Vd1uvd94v1bUHrEIAQgDL3f+EgHA1ep36KqhMz5QYv10p0sJu8TjMjR05oeq166LrfvZk73aaPvUE1qq1YhLKr1d1vmXK7VpC6N97zasPeIRAmAjr3f+EgHA9VKanKhhsz+zdNIbt8vofrqGvfaZUo5vbvu+9qxfY7R9i2EXVWk+gkB0tE48d6zRvvca1u4LhADYIBI6f4kA4Ak1Uutq4DNz1Onq8Zavee8mgehodb72rzrr6Tctfc+/PIV5e422zzAIZibbStLB3D1G2/sGIQAWipTOXyIAeEYgKkodrx6vQVPnKjnDnpn8nJSckalBU9/WSVfdXu6DdFYrzDd7jc3k9kxSg4ZG+y4yrN1XCAGwQCR1/hIBwHPSupyi895apHaX3GDpqnBOiYqOUbtLbtB5by1SWpdeYd+/6frxsQlVf4/eZFtJKi5013zurhdBISC/oESPvLxLXy0vCMv+3OiblQWaMmuX5bMWHkukdf4SAcCTYqrH6+Rb7tW5r31qy7vx4VK/Q1ed+9qnOvmWexVTPd7pcuAHERACXl+Yp5Yj1+rmKdt08uXr1H5Mtp6es1t5+8M8ob8D9hWU6P/e2qOOF2er8yXrdP2kbWo1aq3mfGq8Mm65IrHzlwgAnlbnxDYaOuNDDXr2bdXN6uB0OSGr3ayV+k6arqEzPrR8Wl+gQjaHgJ5XrteP2daPzqzZWKgBN+Vo2PiN2rCt6Le/X7z6gK58aKvSBq3WFQ9t0eLV9i3E5ZRV6wt1+xO/qtHZa/TnB7fou1X/OcZ1W4o09LaNOuPaDVq5zvrzvjrH1s7/GTnU+UsEgIiQfnJvDXv1E5055SXVb2/va3Mm6rfvojOnvKQRb36lJv2GOl0O/OxwCGh94VWWN71t1yH1uW6DZSMB+w+U6I6ntitr1Fq9++Wxn/vI21+iZ+bsUfsx2ep2+Tq9+O5eHSh0pF+xxIHCUs14b696XLFOLc7/RQ9N36lducXH/PmPvs1X+zHZ+tsz21Vw0JrjXrOxUL2vtvXK/0o51PlLkvdvIiMoEFDmGYOVecZg7fxpmZa/PFWr572iov3OrnAXG5+gZoNGqtX5l6p289aO1gL8TiCgHuMmSpKWzXjS0qbLbgeYrh3wxsd5uvHRbb+74g/Fl8sL9OXyAt37/A6teqWJwvhcrSXe/XKfRt+1WTv3HrvDP5qDRaW69/kdmvHeXk26oZ7O7pVU5Roiddj/SASACFS7eWudMmGyuv3PfVr/6fvK/uhtbfjsX2FbZTAuKVkNe/ZV5umD1KhXP+OH3QDbuDQE/LyhUNc9slXvLzIL8KtzCvXx9/k6rWOCUTvh9uqHuZXu/I9UdltgQLdETb6xnpqmV+78+6HzlwgAES02IVFN+5+rpv3PVUlRoTZ9/Zm2fPu5ti5epO0rvlfhPmsenIlNSNSfsk5Svbad1aBTD6V17mnJgjdAWLgoBOw/UKL7pu3Uwy/t1MEia/qHafP3ei4AfPy9Nauhzv9inxZ8m6//ubC2xo2poxrVKl4A1+bO/zG5pPOXCAC+ERUbp4zupyuj++mSpNKSEu3+ZZVeHdLZqN3z3vpaKU1ODOu7+4DlXBAC3vg4TzdN3qb1Wys33F+R1xfm6bGbS5Sc4I3f0ezNRZaegwOFpbrnuR2a/u5ePXpDPQ0p57ZAGDr/6+SSzl/yQABw3XrjESIQFaXUE1oat2NFG4ArOBQCVucU6tqHzYf7j2X/gRK9+Umexg6oaUv7VvvkB2uu/v9o3ZYinV3ObQG/df4SbwEAwH8cDgHheEWw4GCpJkzdrjYXrrWt8y+z8DtnHwaujI+/t7fW+V/sU8uRa3X9pG3aVxCcOyEMr/q5rvOXPDACAABhdfgVwdLSUstHAspeEbzz0jp64IWdlg/3H8vC7+y5qraDVff/y1N0qFRTZu3S3M/yNH5sHd317HZfXfmXIQAAwB8dHgkIBAJaOv0JS5vevOOQrnxoq6VtVmTDtiJlby5SZoPYsO63sqy+/1+RdVuK9OcHt9jVvGuv/MtwCwAAjsbGGQOdYPfQuhW8UGOInpHDk/yEggAAAMcSQSHArofrrOSFGkPgic5fIgAAQPkiJAR44TmAcNz/t5lnOn+JAAAAFYuAELBhW5HWbQnf/fXK2rAtvPf/beCpzl8iAPie6Yx9RfnenafBdCbE6LhqxjU4ef7dcPyeEgEhwM1X2Au+dW9tIfBc5y8RAHwvznCe/n1bN1pUSfjt25JjtL0Vaxw4ef7dcPyeY+MqguHg5ofsPvnBvbVV4DF5sPOXCAC+Vy25ltH2OV8ssKiS8DOt3fTcWdGGyTG44fg96fArgl4MAW5+yM7NoxPlcPV7/hUhAPhczYZNjLZfOXuaSourvmqXU0qLi7Vy9jSjNmo2ampch1Pn3y3H71keDQHrtrjzOYD1W91ZVwU83flLBADfq5V5gtH2u1b/qBWvTLWomvBZ/vIz2v3LKqM2UgzPneTc+XfL8XuaAyEgvm594zbcOApg0dW/bTP6HIXnO3+JAOB79dp1MW7j84njtPGrj82LCZONXy7UFxPHG7djxblz4vy76fg9L0whIComVu0uuUGj3l2img2PN2rLjc8BWFDTWknNJE2UVGhcUPkiovOXCAC+l9allxSoeI3s8pQUFeqdK87RsplPufp2QGlxsZbNeFLvXHGOSg6ZDTcGoqKU1rmXcU3hPP9uPP6IYHMISO96qkbM+Uon33KvYuMT1MDwvLvxXrsFoxIfS9on6TZJbSV9aNrgMURM5y+xFoDv1Uitq3qtO2rb0m+M2ikpKtS/77tFP776rE48d6wyup2mpLRGio1PsKjSqinan6+8TeuV8/lHWvn6C8bD3mXqte2k6im1jdux+/xLcvXxRwwblhJOrJembrc9oCZnnvO7v2/QqYfR8xvrtgTft29U3x3rAqzfGlynwNDHR/z/VZL6SBou6RFJ6aaNHxZRnb/kgQDwZEuzV42u+tG776mHS7PBI407oDK71qzUFw/dbklbbtZs8EhL2/La+bfy+COGRSEgKiZWrc6/TF2u//tRX7Vs0Klnldsu03joGuM2XOaTo/zda5LekXSrpNslmUxc4fqFfaqCWwDQCWcNV2wNZ6/UvSQ2IVFN+w+zrD2vnX+rjz+iGN4OSO96qs6bs0g9xv/jmPMsJNZPU3JGpkmVkWatpA3H+G/7JU2Q2W0Bz77nXxECAFStZopanneJ02V4RtbIP1v6DrzXzr/Vxx9xqhACEv50nE574BkNem6eah3frMKf5/mL31kYws/8pOBtgcGS1lei7Yi88i9DAIAkqd3F1zt+v94L4hKT1Paiay1v1yvn367jjzhlIeCCK8v9sajYOLW/7CaNnL9YzYeMCrn5Bp3NbwNEkE8r8bNvS2ol6UFV/LZAxF75lyEAQFLw/eKOV5u/GhbpOl37N9VIrWt5u145/3Ydf0QKBNRj/D+OORKQ1qWXhr/+ubredHelw58VzwFEkKPd/y9PvqRxkrIkvXuMn4noK/8yBAD8ps3ov6huq/ZOl+Faf2rdUVmj/mxb+24//3Yff0Q6ykhAYv109Z00XYOfn6/Upi2q1CzPAfxmrSo3pH+k1ZIGKPi2wJELYzyuCL/yL+P6twAQPlExser7yIt6bVh3FeblOl2Oq1RLqqk+D09TVLR9vzJuPv/hOP6IdXgkIComRlFx1XTSlbda8tBng049lZuTbUGBnlbZq/+jma3gSMAdkmpIukk+6PwlRgDwB8kZmTr9wal80R8hKjpGZ/zjOSWnN7Z9X248/+E8/ogVCKjbbQ+q6413WfbGRxrPAUi/f//fRL6k8ZJulE86f4kAgKNo3HuATrlrivEMdREhENCp9zyuhr36hW2Xrjr/Dhw/QsODgJKsCwC+RADAUZ14zhiddv/Tiopxx2xhTghER+vUu/6p5mdfEPZ9u+H8O3n8qFhi/XS/PwdQ3vv/CAEBAMfUfMgonTnlJcUlJTtdSthVS6qpAY/PUothFzlWg5Pn3w3Hj4r5/G0AK+7/+xoBAOVqdGp/DZ/9uepmdXC6lLD5U+uOGvb6564Y9nbi/Lvp+FG+Bp16OF2Ckz52ugCvIwCgQskZmTrn5QXqPm6i4hKTnC7HNrE1EtT1prs19KUPXfXAW7jOv1uPH8eW1sXXMwIyAmAolKeMjJ6INF2Mh8WA3KVg569a/NxkrXh1qor2u29d8aqITUhU1vmXq+3F17l+khs7zr+Xjh//bWbfLOVuXOd0GeGWLel4p4vwOgIAquRg7h6tfuc1/Tz35eBKdqUee3MmEFD9dp3VbPBINe0/zHNz2xuff48fP/5j4R1XadWb050uI9yel+SdBTRcigAAYwW7dmjz159q25KvtXvtz8rdmK0Du3eqMH+fSooqmm7bXlGxcYpLSFT1lNpKTs9USpPmqte2s9I694qY9ezLO/+SIv74/e6nt17SgnG+m6HxIkkvOF2E17k+AAAAqsb0Akqh9RHwKB4CBADAhwgAAAD4EAEAAAAfIgAAAOBDBAAAAHyIAAAAgA8RAAAA8CECAAAAPkQAAADAhwgAAAD4EAEAAAAfIgAAAOBDBAAAAHyIAAAAgA8RAAAA8KFQ1noutb0KAIAbhdJHwKMYAQAAwIcIAAAA+BABAAAAHyIAAADgQwQAAAB8iAAAAIAPEQAAAPAhAgAAAD5EAAAAwIcIAAAA+BABAAAAHyIAAADgQwQAAAB8iAAAAIAPEQAAAPChGLt38O2Sn+zeBcrRsW1zo+1L777OokqqJnDnFKPtqd+Maf38/jvL9PcfkY0RAAAAfIgAAACADxEAAADwIQIAAAA+RAAAAMCHCAAAAPgQAQAAAB8iAES42NhYo+3zDhZaVAm8Jtfw3z4uLs6iSgDYgQAQ4eITEoy2z8ndZ1El8JoNe/OMto+PN/vsAbAXASDCJSfXNNr+gzUbLKoEXmP6b5+cnGxRJQDsQACIcBkZDY22n/rdChWXlFpUDbyiuKRUU79bYdRGRqPG1hQDwBYEgAjXqHGm0fbLf92pJ79ZalE18IrHv16qH7fvMmrD9LMHwF4EgAjXum174zZufu/f+mhtjgXVwAs+/CVHt7z/mXE7bdqYf/YA2IcAEOE6duqiQCBg1EZhcbEGTJ+rf361hNsBEay4pFRTvlqiATPeUlFxiVFbUVFR6ti5i0WVAbCD7csBw1mpqbXVKquNli9bYtROYXGxrpv/iZ7+drku7dBSfZo2VONayUqMM3vNEM7aV1ikdXty9a81G/TsdyuMh/3LZLVpq1q1UixpC4A9CAA+MGDgEOMAUGbFrzt103vmw8PhYrqevdO8Wv9ZA4c4XQKACnALwAfO7D9QNWrUcLoM+ER8QoL69DvL6TIAVIAA4APJNWvqnGHnO10GfGL4eaOYAwDwAAKAT4y+6FLFx8c7XQYiXEJCoi4YfbHTZQAIAQHAJ+rUqavLr7zG6TIQ4a68+nqlptZ2ugwAISAA+MjIC8aqRctWTpeBCNUqq41GnH+B02UACBEBwEdiYmL0wMRHlZiY5HQpiDBJScl6YOIkRUdHO10KgBARAHwmPaOh7r5/Il/UsEx0dLTufeB/1SAt3elSAFRCKAHAaFHwoqIik81hg16nnKY77rzHeIZAIBAI6G8T7lP3nqc4XQr+oLDQ6Ktbkg5aUQfcK5QAYLQgfC/+kK8AAAvKSURBVMH+/SabwyaDzz5XE+55UDExzAWFqomKitYdd96jgYOHOl0KjmL//nzTJvKsqAPuFUoAyDXZwd69e0w2h43OGnS2/jHpMZ4JQKUlJSVr0pQndfY5w50uBceQm2v01S0RACKe7SMAOTkbTDaHzXr26q2Zr76plq2ynC4FHtEqq41mvvomw/4ul7N+nWkTBIAIF0oA2Gqyg/Xrsk02RxikpWfo+emzdNMt4xSfkOB0OXCphIRE3XzrHXruxVd44M8DLPjuNfruh/uFEgB+MtnBsiU/mGyOMImOjtao0Rdpztv/0uixzBqI/4hPSNCYiy/Tm/P+pZEXjOENEo9YutT4u9foux/uF8pj4NdKqvKSZKmptfX+gs954txjcnNz9f678zR/3ltavmyJSktLnS4JYRQIBNS6bTudNXCI+vQ7i7n9PaakpER9e3fTnj27TZq5RtLjFpUEFwqlV+4r6X2TnUybMUtZrduaNAEH7d69S99+s0jLli7Wuuy12rQxR3v27Nb+/Hxe8/S42NhYxSckqFatFKWlZygzs4lat2mnjp27qFatFKfLQxUtXfyDLhlrvABYH0kfWlAOXCqUd8C+l1Sq0MLCUc2f9xYBwMNSUlLVp29/9enb3+lSAITgnXlzTJsokcT92wgXyjMAOyQtNdnJe+/OU0FBgUkTAIAQ7M/P1wfvzzdtZomknRaUAxcLdSrgBSY7yd27V2/MfsWkCQBACF579SUr5gD4yIpa4G5hCQCSNH3as9rPrIAAYJv8/H2aOf15K5oy/s6H+4UaAD6UZDSl344d2/V/Tz1m0gQAoBxPPT5Zu3YZj9zvFgHAF0INAAckzTbd2cszX9DKH1eYNgMA+IMVy5dq1iszrWhqllgIyBcqsxzwdNOdHTp0SONuvUH79jHDJABYJS8vV+NuvVHFxcVWNGf8XQ9vqEwA+EzSGtMdbszZoDvH32rVBxUAfK24uFh/HXeLNm/aaEVzP0v6woqG4H6VndPzoKRBpjtdvz5bv27bql6nnsYMgQBQRaWlpbr77+P10QfvWdXkbQrO/QIfqGwAWCpprKSapjv+adVKbd60UT179VZUVGUGIgAAJSXFuv+eOzV3zutWNZkj6TJJDM/6RGUDQImCswKeacXOV/+8Sj+tWqkevU5RXFw1K5oEgIiXl5er22653ooJf450h6SvrGwQ7laV8fcakpZJamJVEWnpGXpg4qOsSQ8AFVixfKnG3XqjVff8y/wsqY14+t9XqrKu5yEFl4m80Koi8nJzNXfO69q7Z4/atu+guLg4q5oGgIhQUFCgp56YrHsm3KHcvXutbn60pFVWNwp3M3kC7w1JQ60qpExq7ToaPfYSnTt8JGvSA/C9/fn5mj3rZc148TkrJvk5mlmSzrOjYbibSQDIkLRYUqpFtfxOcnKy+vUfqAEDhyirdVveFgDgG6WlpVq2ZLHemTdHH7w/34q5/Y9lh6S2kjbbtQO4l2mvOljSHAvaKVdKSqo6duqi1m3aqXHm8UpLz1CtWimKT0hQbGysnbsGANsUFRVpf36+9uzZrU0bc5Sd/YuWLV2sb79epD17dtu9+1JJAyVZ+iQhvMOKjvthSTdZ0A4AIHweknS700XAOVYEgFgFFwvqZUFbAAD7LZTUT1KR04XAOVYN3SdL+kRSO4vaAwDYY5mCF2xGK7zC+6y8d99A0r8lZVrYJgDAOtmSukva4nQhcJ6Vc/BultRXwQ8YAMBdsiX1EZ0/DrN6Ev41krop+HogAMAdlkvqKekXpwuBe9ixCs9WSb0VfCYAAOCshZJ6SNrkdCFwl6pMBRyKA5JmKPieaS/ZPE8AAOC/lEr6p6QxkvY7XAtcKBwd80BJ0yTVDsO+AADSTgWXbn/H6ULgXnbcAvijeQpONTk7DPsCAL+bpeDKfnT+KFe4h+Z7S3pcUosw7xcAIt0aSddKes/pQuAN4RgBONJCSe0V/JDmhHnfABCJNki6RlKW6PxRCU4+nBen4MMpt0o6wcE6AMCLfpY0UdJ0SYUO1wIPcsvT+ScpGAZGSarjcC0A4FZ7Jc2V9KKkjxR80h+oErcEgDLVJZ0m6fTD/9tG4b9NAQBuUSJpiaQFCnb4CyQddLQiRAy3BYA/qq3gMwPNJZ0oqZmkepKSJNWSlKjgrQQA8KJCSfsUXJgnT9I2ST9JWqXgEP8PCr7SB1jO7QEA3mc0RDlr7kdW1eFJIwafbtoEv+MAjorhdQAAfIgAAACADxEAAADwIQIAAAA+RAAAAMCHCAAAAPgQAQAAAB8iAAAA4EMEAAAAfIgAAACADxEAAADwIQIAAAA+RAAAAMCHCAAAAPgQAQAAAB+KcboAWCpTUldJnSV1kFRXUsrhP9UcrAvOKXVovwcl7Za0S9J2Sd9L+lrSIknZDtUE4AgEAO9rIGn44T/dHa4FKFNNUv3DfyTplCP+24+SXpM0TdK6sFYF4DfcAvCuRpKel7RB0qOi84d3tJT0d0lrJD0rqaGz5QD+RADwnkRJkyT9LOkiSdGOVgNUXbSkSxT8LD8iKcHZcgB/IQB4S0dJ30m6QVKcw7UAVqkm6UYFP9sdHK4F8A0CgHdcK+kLSc2cLgSwSXNJX0q6yulCAD8gAHjDbZKmSIp1uhDAZnGSnpD0oNOFAJGOAOB+D4ovQ/jPbZLucboIIJIRANztCgW/CAE/+qukS50uAohUBAD36ippstNFAA57TFInp4sAIhEBwJ2SJc0Ws/cB1RWcNCjR6UKASEMAcKc7JaU5XQTgEo0kjXe6CCDSEADc5wRJ1zhdBOAyN4tXYAFLEQDc5xEx9A/8UZykh5wuAogkBAB36SDpLKeLAFxqiIKzYQKwAAHAXe6SFHC6CMClApLucLoIIFKwHLB7dJSFV/8tWrVR7zPOVMustkqtXUcxMc78U48YfLoj+0XQrLkfObLfoqIi7dq5QytXLNWCD+Zr1Y/LrWp6iKT2kn6wqkHArwgA7vF3WXD1n5iUpCuuuVldTu5pQUlA1cTGxqpe/eNUr/5xOvX0flr0xad6+vFHtC8vz7TpgIK/K2ebVwn4G7cA3MGSq/+kpGTd9cCjdP5wnS7deumu+ycpMSnJiuYGKzgKAMAAAcAdLLn6v/rG25TRsLF5NYANMhpl6pobb7eiqbJRAAAGCADOs+Tqv0PHrurQsasF5QD26dCxq07qfLIVTTEKABgiADjPkqv/4SPHWFAKYL8Roy5SIGD8kQ8oOGMmgCoiADjLkvf+O3bupiYnNLegHMB+mcc3VcfO3axoinkBAAMEAGdZ8t7/ueddaEEpQPgMGznGqlEA5gUAqogA4Byu/uFbmcc31UmdLHkWgFEAoIoIAM6ZIK7+4WPDR41lFABwEAHAGR0kDTRthKt/eBmjAICzCADOmCCu/gFGAQAHEQDCj6t/4DBGAQDnEADCb4K4+gd+Y+EowF8tKAfwDQJAeHH1D/yBxaMAnaxoCPADAkB4TRBX/8B/sWgUQOJZACBklvzGISQdJH0rzjlgt86SvnG6CMDtGAEInwmi8wfCgVEAIAR0SOHRXtJ34nwD4cIoAFABRgDCY4Lo/IFwYhQAqACdkv24+gecwSgAUA5GAOw3QXT+gBMYBQDKQcdkvxJxngEnlIqLHOCY6JjsV+p0AYCP8R0HHAPpGAAAHyIAAADgQwQAAAB8iAAAAIAPEQAAAPAhAgAAAD5EAAAAwIcIAAAA+FCM0wWgfE88P8vpEgDH/OXiEU6XAEQsRgAAAPAhAgAAAD5EAAAAwIcIAAAA+BABAAAAHyIAAADgQwQAAAB8iAAAAIAPEQAAAPAhAgAAAD5EAAAAwIcIAAAA+BABAAAAHyIAAADgQwQAAAB8KOB0AT5Q6nQBgI/xHQccAyMAAAD4EAEAAAAfIgAAAOBDBAAAAHyIAAAAgA8RAAAA8CECAAAAPkQAAADAhwgAAAD4EAEAAAAfIgAAAOBDBAAAAHyIAAAAgA8RAAAA8CECAAAAAAAAAAAAAAAAAAAAAAAAAAAAAAAAAAAADvp/L+5fkyoZ9oYAAAAASUVORK5CYII=;" parent="1" vertex="1">
          <mxGeometry x="1219" y="45" width="381" height="381" as="geometry" />
        </mxCell>
        <mxCell id="M6gj8kt36gLy5a3jpEOS-10" value="" style="shape=image;verticalLabelPosition=bottom;labelBackgroundColor=default;verticalAlign=top;aspect=fixed;imageAspect=0;image=data:image/png,iVBORw0KGgoAAAANSUhEUgAAAgAAAAIACAYAAAD0eNT6AAAACXBIWXMAAA7DAAAOwwHHb6hkAAAAGXRFWHRTb2Z0d2FyZQB3d3cuaW5rc2NhcGUub3Jnm+48GgAAIABJREFUeJzs3Xd8W9X5P/CPrrZkWbLkLe8Z24kd29kkJCEJAcIIZEBYIUDDTBMgtL/22+G2tHQBHVAKhdKy9wx7hZmE7G07ieO9bdmWbG3p94cCpTSBxM+50pV83q/XfbWF6rnn2ta9zz3jOTJwXGzSAzB/47AcO77+z+KO/f+1ADTH/nscAOWx/24EIADwABg+9s9cAJzH/vvwsX8HAIMA+o4d/d84vv7P3MyukuM4bpRkkW4Ax41SAoC8Y0c6gLSv/e+8Y/9eqmwAOgC0A2j42vHlP2sEEIhU4ziOGxt4AsBJmRZACYCyrx0lADIBqCLYLrE5ARwBcBDA/mPHPgCHAfgi2C6O42IITwA4KRAAjANQAWA8gNJj/5l37N9xIR4AtQAOIJQQHACwHUBzJBvFcVx04gkAFwnxAKYAmAmgGsB0hMbmudHpQCgR+PL4BMBARFvEcZzk8QSAE5scwESEHvJTjx2FEW1R7PMh1EOwGcAWAJ8DqI9oiziOkxyeAHBiSAOwAMC5AOYhNNuei6xOhHoG3gOwAaHJhhzHjWE8AeBYiAMwDcD8Y0d1ZJvDnYQGhBKB1wB8itDSRo7jxhCeAHCjVQrgIgCLAExGqKufi05OhHoHXgHwMnjvAMeNCTwB4E5FGYBlx47SCLeFE88BAM8BeBJ87gDHxSyeAHDfRgBQCeA8ACsAFEW2OVwEfJkMvIbQCgOO42IETwC446kCcBWApQhN6OM4IFSY6GkA/wbQFOG2cBzHcYwkAFiN0FtekB/8+JbDj9DEwdX4z14KHMdxXBSRIzRr/1mENqiJ9IOFH9F3DAJ4FKG/I96jyHFRhH9hx6YyANcAuAxAcoTbwsWOQwD+hdAQQVtkm8JxHMd9SUDoLe01hHaai/SbIz9i9/Ah9Hc2HxzHSRbvAYh9RoTe9m9CaHOdMSNeoQqalGpfnELl1gtKp1aucGjliiGNILepBUWvRhB6VILQEQwKbrkgc8kh6wcAQZDZVZANAIAvgB61VukMuAKmoMwfDwDuAJKCCGgAwBv0pwSDMjmEgN7tD6Z6Ar5kp9+X6Ar6TE6/P97p9+lHfF7NkN+j7ve6FE7/mNvM7wsAfwbwPEKbGXEcJxE8AYhdBQCuBXAdAFOE2yIKo0IdTFPrnYkqTb9eoeqLkyva4+TKWp1ctUMn139y19HPJTdTfX3xlFyn21Pu8vmLR4KeCXavp8Du8yYP+b2mHvewod09rAwEg5Fuphi6EBoe+Cv48ADHSQJPAGLPAgC3ADgLMfD7FWQyWNV6r1Ub15eo1B5NUGl2GBWqTxIVmjdrDm8ZinT7WLulaLrV5R4+e9DjmdXvc43v8TizW5x2U7dnJFYqLboBPAXgbgB7I9wWjhvTov4BwX3lHAA/Q2i3vaikEuQo1JvsmRrD4USVbqtBrvxEp1G8dVf99t5Ity3S1hdPybWPuM4e8rtn9Hic1UdHBnManUMaf/T2FgQRKjv8SwC7ItwWjhuTeAIQ/eYD+DWAKZFuyKlKUmkDuVpjT6Y2bkeiUrdBKxee/FPjLr6P/Ulamzs1xeVzLun3uea3uuxV9Q5bRp/XFY09Be8B+DGArZFuCMeNJTwBiE4yAOcj9MZfFeG2nBQZgDyd0VWsN+9P0+peN2k0T91Vv7020u2KNWtyy2cNeL0XtzmH5x9w9OV3uocVkW7TSQoCeB3ArxCaOMhxHMd9jQyhuvxbEfmlXt95mJUa//SEtMalqYUPr0ovj4pEJdbcmjd53mXp456caba2xitU0bL881MAc8T5iXAcx0WfeQB2IPI35xMeSkEITjKm9CxLK3rphpyJi8X7UXCjUZMzR7M6a8J1F6Tkf1BqsNhlEvib+Y7jNQAlov1AOI7jJK4YoVK9kb4ZH/dQC/LgFGNq5+XW0gfW5lVnifhz4Bi7rah63OXW0gemGFM7lTIh4n9LJzj8CJUaThXvJ8FxHCctFoQKqHgR+Zvwfx1aueKrh/66kmq+W2AMuL2gOv+rZECQZDLgAFADQCveT4HjOC6ytAjNiB5C5G+6Xx0aQRE83ZzRcHVG6c9/UFxsEPUnwEXU2rzqrMutJX+rNqb0yGWyiP/tfeNoAnA5QqWtOY7jYoIMwBUAmhH5m+xXx4T4RPuV1rKn7yiZkS3q1XOStDq7vOq8lLzXsjQGFyTw9/i1YxuA2aJePMdxXBgUAfgAkb+pBgEEk1U638KknF1rsqsuEvm6uShyQ1bF5QuTcnaZlGoprSZ4FnxHS47jopAWoSI+HkT4RqqQCcGZCektqzLH/19NWZlK7AvnotctGdPNl6eX/K0iPsmGyCcAQQB9CO17weuacBwXFeYAqEWEb54GhSqwMCln1605VdPEvmAu9lyZWXrBXEvmXq1cEekkIIhQ/YAysa+Z4zhutFIQWtYU0ZtllsbgujAl/6mbrFMsol8xF/PW5pYXL0krfCtVrfchsn/bHoRWz+jFvmaO47iTJQNwJYAeROjmKMhkwUpjSt+qzLJf1fBZ1JwIrsrJ0VyaXvzbMoMl0sMDRwAsFP2COY7jvkMugI8QoZuhUhCCZ1iyDn4/u2JuGK6V4wAAq7PLr51sTOlCZBOBRwDEi36xHMdxx7EMQD8i9OCfbc44clNe5bxwXCjHHc8NWROWzUxIb4lg6eFG8L0FOI4LoyQALyKCD/5bcipnh+NCOe5krMmuumh6QlpjhBKBAEJzA9RhuFSO48awhQDaEIEH/1xL5t6bMysnheUqOW4U1mVXXXSGJasxQlUG9wGYGI7r5DhubNED+DtCbxthu6kpZEJwfmLW/nU5E/mNjYsaN2VXXDjJmNKN8CcBTgC3gU+E5TiOkSkA6hDmm1mlMaXvxqzKpWG5Qo4TwTWZ49cX6hNGEP5E4DMAeeG4Ro7jYtdqhLmaX54u3nV1RunPw3N5HCeumjlzFCutJXenqfXh3v1yEMCFYblIjuNiigHAMwjjDStZpfOtsBY/xsv1crHotqLqxCWpBW/EKZThHEYLAPgtAHlYLpLjuKhXhjCW8tXKFcHFKfnv31ZUnRim6+O4iFljraw4w5JVK4R3ouDbAPj3i+O4b7UCgANhujGVG5J6r80uPyNM18ZxknFd1oTV+TqjE+FLAloA8H0xOI77HwqEugrDcjNKVGn9l1tLHwjTtXGcJNXkzNEsSyt6US8P27CAC8DaMF0ex3FRwIrQrGHRb0AyIDjbnHHk9ryJheG6OI6TurW5laeHedng4+CbCnHcmDcdQFhqmufrjM7rsyZ8L1wXxnHR5uL04t8nqrTh2nVwF4DMMF0ax3ESsxyhwiGi3mhUgjx4UWrBmzXp1bqwXRnHRam1edVZ8yxZB8JUVrgNQFW4ro3jOGlYC8APkW8weTqj6+aciovDdlUcFyOuzhz/42SVLhy9AQ4AF4TrujiOixwFgPsh8k1FBgQXJGZtqymYyrcr5bhRWptbXjw9IT0ce2/4APwwXNfFcVz4GQC8AZFvJqlqvffarLJ1YbsqjotxK60ldxsV6nCsFHgAoZcEjotqskg3QGJyAWwAUCrmSeZYMo5UWjJn31O/qU3M83Cjd0vGdLNc7zcCgMzrUQSVKh8AxCmGe2r273dEtnXciazJLZ/1UW/7a3vsvUaRT/U6gEsQGhrguKjEE4D/mArgFQApYp3ApFQHz08p+OOjrft/INY5uP+oSa/W2TS+KpcPlcN+d5nL77e6Aj6Ly+83jQR88SN+r27Y59PY/R6V0+8TPEG/zOn3nXR8vVwZVMgE6BVKf7xc5dErlE6tXDGslcuHNDLFgFqu6NPJlY06Qdivk6m3TZuSu2f5c8/5RbxkDsDq6mplX9vgK692N5ztDQTEPNUuAOciNEmQ46IOTwBC5iH08BdtzW9JnNkxPzFnwV8bd2wW6xxjUU1ZWVyXXTh7OOCf1e9xVQ/53On9Xre5xzOi7/U45f5gMNJN/IpSEJCi0nkTVdphk1LdZ1KojyYoNTt0SuV7STrvRzX793si3cZYckN2+bUvdR75e6d7WMwa/40A5gM4IuI5OE4UPAEAzgPwLACNWCdYYMnaV5monfH7ujq7WOcYC9bkTpoy5B1ZZvO4pvR6XfntLkdSq8uh8gVFfcsLC7UgR7Y23pmq1nUlqrR1JoVqk0WlevIPDbsORbpt0ey2oupxH3S2frZzqMss4mnaASwAcEDEc3Acx9hyiLiNr1qQB5enFT0YxuuJGevzZyTfkD3xphXpxa/Ms2Q2WTVx4Sr8IqkjUaX1Tk9Ia1yaWvjclRkl196YVBbH5Ac8hnw4Z47ikvTi90XeWKgPwJTwXRXHcRSrEFrWI8oNIVtrcN+UXcH3GT9JN2RNSLgmo+yHi5JzN4/Tm4cVMiHiD18pHhpBEayIT7ItTsl/7/rsiqv5ttAnb1VG2S9EXiVgAzAjfFfEcdxoXA8RC/xMTUjtuC13RnYYrycq3ZJTOXuFtfixmQnpLWHc6CWmDr1cGag0pvQtSS1444asistH9YsYQ9bkVE0riTPbId7vxIHQcADHcRL0/yDSl18ukwUvSi3cUAMIYbyeqFGTXq27OnP8j+dbsg5YVFrRKyyOxSNLY/AsSs7dfH12xdU1/O/wuNblTDSdYcmsh3i/BydCqwM4jpOQH0KkL71OrgheZS39dTgvJhqsy5loWpVZ9qv5lqwDFqWGP/TDeKSodb75lqwDqzLLfsX3mPhfy9KKXhRxXoAXwBVhvByO477FryHSjTZJpfVdnz3xsnBejJTVlJWpVmWU/WxmgrVJJ1fwrn0JHBalxr8gMXvf9dkVV3/nL3AMWWktuVsjKMT6ufsALAvj5XAcdxy3QKQba77O6FyXXTk9nBcjVTfmVJ11fkr+xjS13gsJPPT4cfwjRxvvPj8lf+P3syfyCWsArs+uuFrEISkPQkuNOY6LgDUQ6UZabUzpvrm4Mj2cFyM1t+ZPzlxhLX6szGAZggQebvw4+UMhE4JTjKldqzLH/7GmbGwvL1ybW3l6rjbeBXF+1k6Eio1xHBdGKyHSbP8zLFkHb8mYrg3nxUjJTXmV885Nzt0Ur1DxLv4YOBJVWv+5ybmb1uZNnvw/v+wxYl1JddokY0o3xPkZDwM4PYyXw3Fj2sUQYZ2/DAguTS18JaxXIhE1gHBN5oSfTDKmdMsk8NDiB/tDJciDcywZh28co3NaatKrdXMsGWKtEBgAUB3Gy+G4Mek8iFDhTy6TBVekF/8jrFciAevzZyRfkl78dI423g0JPKT4EZ5jgiFxcKW15O6xVmyoBhDOSsrZDnF+rj0AysJ3NRw3tsxHaMyN6RdXKQjBK62ld4X1SiJsff6M5AtSCl418+V7Y/rI1cZ7VmWO/2dNzhzR9suQorOTc9+DOD/TdgCFYbwUjhsTpiFUiYvpF1YtyIPfy5zwq7BeSQTdmDM59byUvA0JSvWYefCrBCFoUqqDZqUmmKOND+Zo44MFelOwIj7pqyNXZwzmaOOD2dr4oEmpDpqU6qBc3PrykjqyNAbPNZkTnrivbM6YmTB4QUr+SyINdx0BkBzOa+G4b4ql3QDzAGwC4y+VXq4MXp5e8oMHWvb8kWVcKbq+qMLaPmB/5GNb2/wBrzvq/zbkMhlS1XpkagzI1MbBqjEgXa2HRaWFWamGSamBWalBglINvVw56vMM+Tzo97pg87pg87ph87rQ53Gh1WVHq8uBFpcdrU4Huj0jDK8ucqyaON8CS/bzJXGm1T+s+yzmd7hcnlb05POdh1YE2G8tvQXAXIR6LDku7KL+Jn9MAoDPAJSwDBqvUAUvsY5b/WDTnodYxpWamoKp8fsd/Y+/09t87qAv+h78BoUKxfoElMSZj/2nBXk6I9I0eihl0qmG6w740eqy49DwAGqHbah19KHOYUPdsA3ugD/SzTtlVk2cb15i9n15rftvrQGif0/mb3G5ddzfn26vv06EradfRKhYUEz//Dhpirqb/XEoAbwF4AyWQc1KTWB5atFlf2/Z8zTLuFJSAwgNGWV3v9/bdFOby6GIdHtOhkGhQlV8MiaZUlAdn4JSgxmZGkOkm0XiDwbR6BzEnqFebB/qxvbBLuwe6omapKDMYHHMNKXd/kDLvr9Hui1iujKj7PdPtR+83Rtg/qy+G8BtrINy3HeJhQTgnwht7cuMWakJXJZWtPivzXteYxlXSq7LHH/9pwMdf9hv75P0eG6ONh4zzVZMMaai2piMIn0CBFks/Nl+O28wgL1Dvdg22IWtg534uL8NvR5p9xSflpDeNjEhZeV9DTvfj3RbxHJ1xviax9oP/FyEJGANgHtZB+W4bxPtd9IfI1Tjn5l4hSp4adq4S2P1zf+WnMrZWwa7Hv/c1p4R6bYcj1GhxiyzFXMsGZhjyUSuNj7STZKEIIB99l5s7GvFxv4WbLZ1whXwRbpZ/0MpCJhnydpZFpd+4V1HP2+KdHvEsNJa+sfH2w/e5mc7J8AP4EIAMfvSwUlPNCcAFwN4CgyvQS9X4sr00hvub9kdc12Zt2RM1x7xdj37bm/zuU6/tB4cRfoEnJuch4VJ2aiMT4Z8DLzhU7kDfmyydeDNnqN4vfsoOtzDkW7Sf0lUaQPnJeU/8Ejbvhsj3RYxXGod98DT7XWrGU8MHAYwG8B2lkE57kSi9U47A8D7AJitS9YIClxpLbn1wZa997CKKRUrM0tXfdrXft+RkQHJlC4uNyTi3OQ8nJuSh2J9QqSbE9UCwSC2D3VjQ1cDNnQ3oNE5FOkmfWWKKbX/9OTMi/9Yv/W9SLeFtUvSi59+ur3uYsZh2xGqFtjJOC7H/Y9oTAAyEcqQk1gFVAoCrswo+eXDzft/ziqmFKzNq87aN9i94cP+1gkiLGE6Zfk6Ey5NL8bi1ALk8K590eyx9+KFjkN4tqNeEksPtXIFzk3Je39OQvrim/ZvdES6PSwtTil49eWuw6x3+/sUoUnNXsZxOe6/RFsCoALwMYCprALKZTJcnl5y17/bDqxnFVMKVlpL7n69p3Ftr8cZ0XVwBoUKi1PysSJ9HKaaUiPZlDHHFwzg/d4WPNlei3d6G+FhP3HtlOTrjK4zk7LX3B9jy2rPS8775LXuhpmMw/4VwPcZx+S4/xJtCcB9AJiNKQoyGVakFf/jifba1axiRtr64im5W3raPvykvy07ku2YkZCOK6wlOC85D1p5VKwwjGl9Xhee76jHo20HUevoj1g7FDIB56TkfFolJCysad8e+e4JRs5KytnxVk9jJeOwVwB4nHFMjvtKNCUAlwN4jGXAZWlFLz/XUX8hy5iRdE3GhB9s6Dnymy73iDwS51cLcixJLcTqrAmYYEiMRBO47xAE8HF/Kx5o3oN3e5sRqaGhEr15ZH5i1vK/Nu16PSINYKwGED4wZxz+uL81l2HYEQCnAdjFMCbHfSVaEoDxADYD0LMKOD8xq/a93mamlQMjZV3ORNPhkcE33+hpnBaJG3qSSotL08dhddYEpKqZ/Yo4kR11DuGx1gP4d9sBDHjdYT+/WpDj3OTcNyeMyzi/ZuNGaS1NGYWa9GrdK47m1p1DPSxntTYBmASgl2FMjgMQHQlAPICtAIpYBZxsTO1ZlGHJqNm/38MqZqTckD3x0rd7Gv7ZMDKkDve583Um3JZXhQtTCqESpFNylzs1dp8Hj7Tux31NuyNSbKjamNJ3mtG68C/NO6J++dvtBdX5z7bVH2hy2lluofw2gHPAywVzjEk9AZABeB7ARawCFuoTXMut4wp+Xb+pjVXMSFmeVvTkS12HV4hQlexbFepNuC13Ei5KLeBr9mPIiN+LR1oP4K+NO9ET5kTArNQElqQV/OQfzfvuDOuJRXBjdsXcp9rr3rN5XSyz4l8B+BnDeBwn+QTgBwB+xypYkkobuDS9dMafG7dvYRUzEtblTDTtsfdt+aCvhVmvyMko1idgbW4llqYW8Qd/DHMH/Hi6vQ5/aNgW1gJDMgCLknM3TyrNnhXtQwLXZZbf+K+2/fcx3M8hAGA+gA9ZBeQ4Kd/FZwD4CACTKeQ6uSJ4VXrpZX9r2fMUi3iRsia3+sw3ug6/cmRkkFkRpO+SqTHg/wqmYklqwZiow8+FuAN+PNi8F/cc3YFBX/jmCEwxpnafkZI5/bf1WxvCdlIRrMwouffR1oM3MZyV0wxgIgAbu5DcWCbVu3kcQjNf81kEk8tkuCqj7NcPt+z7CYt4kXKFtfQ3L3Ud+n8Onzcsv7d4hQprc6twQ1Y51EJEFhaQBAEMet1QC3K+FJGgz+vCH45sw79a98PLfjvc47Jq4nxL0wqv+fPRnY+G5YQiuTCl4P2Xug6z3Kn0WYTKoHMcmVQTgH8AuJZVsCWpha+90HnofFbxwq2mrEy1tWfk4ze6j04Nxxx/hUzAyoxS/CBvEhJVkqkefFL8wSA2dDfg8baD2DbYhSFfaJ5nltaA+ZYsXJ05HiVx5gi3MjodGRlAzaHNeKP7aFjOpxbkWJJW+MiTbbVXh+WEIqgBhA/N1iMf9bflMAx7NYBHGMbjxigpJgDnA3iFVbCZCdb2+ba2zJoonUG7Pn9G8qf9Dbs32zrDUkZvjiUDvy2ehUK9KRynY6rJOYTr972PLwZOXEZdIRNwU3YFflQwBUoZX7kwGp/Z2vHD2k9wMEwFhS5Iyd9+2elVU5c/9xyzAfVwWp1enfjewOGWBnbDdg4AVQAOMYrHjVFSSwCSAew99p9kOdp4z/KsCbm/r/usnUW8cFuXM3HiWz3Nn9UO9+vEPleiSos7ik7DsrRCsU8liibnEM7b9graXCdXan56Qhr+Vb4w6no4pMIbDOC+xl34Q8P2sGxLPNNsbZuVbK24s/aLPtFPJoKbcicu+HfL/rcZDt9tRahIEN8vgBs1qQ3s/hvAZBaBdHIFlqcXL/nTka3bWMQLt5tzJi5+ruPQu41Ocdf3ywAsTyvCE5XnYJIxRcxTicYfDGLZjtdRP3zyc6NaXQ680HkI00xpSNPw4kWnSi6TYVpCGpamFeLw8CCOOgdFPV+z0x7f73bduCKl8LUtQ13dop5MBFsHOhsut5aqdg11z2IU0orQBOn3GcXjxiAp9QBcA4DZJiErrWX3/7ttf1TuRX5VZumPn+84dIfYk/2K9Qm4q2Q2piekiXka0T3WdhDrDmwc1Wc1ggL3lM7G8rSwrqiMOS90HsL/1X0mev0AqybOtzQ5/8I/N+/eIOqJRHJOUu7WN3qOTmIULgBgJoBNjOJxY4xUegDyALwMgMnb7sKk7D0vdB5ivUVnWKywFj/2dFv9La6AX7SHvyCT4eaciXio/Ezk6KJ/W971tR+Per26LxjA691H4fB7cbrZypc5jlJpnAWXWsehyWlH3Sn0xJwqu88jHBy2rbgiY9zgjsGezaKdSCSXJU98zBZwrOlyj7CYDyADMB3AwwCicn4EF1lSSAAEAK8CKGARrNRgsZ+Vbi7b2NMTdWV+l6YWbniuo35pAOLN9c/UGPDYxLNwpbUUihiYBOf0+/D/6j4l/8S2DnZh60AXFiRl8yWDo6SVK7A4JR85unh80t8GhkVw/os74Jftt/eftdJaJts51L1RlJOIZONAo++y9OI3D48Mrh7x+1hkm0kIrXjlBYK4UyaFBOB6ADewCGRWagIXpBbP/n397vCsU2Lo/OS8j17qOrJAzHNcnFaMJyrPjsoZ/ifS5BzCgy17mcV6rasBM81WJKtEn3cZs8YbErEkrRB77b1ocdlFOYc/GMQ+e++cK6zjjLvtvW+LchKRbBro7LrCWmbbPdRzNqNkfwZCK6e6WATjxo5IJwBpAF4EwGR5zPK0cb99sHlXVBUOqQEEXVLu1g09R6eLdQ6zUoP7J8zDrblVUVnQ59sM+tzMEgAAGPC58UxHPfJ1Rozj9QJGzahQ4+K0YujlSnw+0A6/CLtUBhDEPkff9BXpJZl77b2vMj+BiLYPdn1xXnLuvLphWzaDcHKEdgz8JyBi9yEXcyL9NHgYQDWLQGdYsupe7jp0IYtY4VIDCJuScna81dNYKdY5yuOT8GL1eZhiCksZgbCLU6jw18ZdTB8w3mAAr3YdgSvgx0w+L2DUZDIZpppSsSAxGx/2t2DQx35ULghgn723alla0cQDjr5nmJ9ARCuSKp7q9tvX9XicLHYOtAKwA/icQSxujIjkIPDZAJazCGTVxPnKk5PmsogVLjU5czQfmDMOv93TWCHWOVZllOGtyRciWxv9E/1ORCkTMNXEfhVDEMCfG3fi8l1vflVNkBudivgkvDtlCeZYMkSJHwTwXEf94otSC94S5QQiqWnc6JprTr+Y4ZyTX4DRXCpubIhUD4AOwOsAEqiB5DIZLk0vWXfvkZ1Rsx52dXW1cmtXc93H/W25YsTXyhX4S9kc3JpbHRMT/b6LQaHCS12HRYl9ZGQQG7qPYo4lExZV2PZfijk6uRJLU4sQQBCbbR2inOOgo7/gotSC6Qcd/Y+LcgIRbB3sPrQsrbBsn72vjEE4JYAJAKJqGJSLnEglAHcAOJdFoEXJeZ8/2V57HYtY4VADCLs9yr0f9reKUnIvV2fEC9XnYa4lU4zwklSkT8COoW40jIhTjMbmdeHpjjoU6RNQpCfnrGOWIJNhltmKSmMK3u9rhkuEVQIHHf0FS1MLJx9w9D/JPLhIltr7Xhg2pt7Y7nawqEiVC6AeoYqqHPetIpEATEBoIwvyuQv1Cc6zrOaKaFnyVwMInyVl7X6vt5lFtv8/pppS8WL1+THd5X8iZyZl4+P+NnSKtH+9JxDAy12H4Qr4MctshYzPCxi1fJ0R56Xk48O+FvR7XczjH3T0F12cXly43973IvPgItgIBJenFr9fO9K/mlH9j2kAHgQQFfdFLnLCnQAICBX8Ic98VQtyXJI27uLfHdqzh96s8NAk5Wx5p6dJlAl/l6QX41/lZ8GgUIoRXvI0ggIXpOZjr70XR51Dop1ny0AnDjr6cWZSNlQxtqIinBLb30D7AAAgAElEQVSUalyUWohtg11oPcn9G07FQUd/+cqM0qxdQz1RsTpg82BHx9L0wrg9Q70zGIT78g3gAwaxuBgW7jvYVQBuYhHogpSC1//Vtv9nLGKFw+KU/Pc2dB+dyTquDMCP8qfgjuLToBjjb6UaQYElqYVwB/zfuiMgVf2wDW/1NGKuJRMJSj4vYLS08tDvq9k1hAOMdxYMAthr7628KrNMuWuoJyoehHuGet+dZbauanbaWRTqmAzgaQDilWXkol44EwAtgBcAGKmB8nVG15natMkb7R1RsRPWFdaS+5/rqGey4uHr1IIcfy07A9/LmiCpTR0iSZDJMMeSgUJ9At7ra4E3KM4u0L0eJ57qqMO4ODMKYqiwUrgpZAIWJedBI1fg4/5WprGDAGodttOvySjt2j7UHRWbgi1OzH2vdmTgBjd9KECBUE/r0wyaxcWocCYAPwZwATWIIJNhmbVw9V0tu7YyaJPors4o/fkT7XXrWZf3NSrUeKZyEc5KymEaN1aUxJmxIDELH/SJs/4cADwBP17pOgKNoMDUGK2zEA4yANNMacjSxuOd3iaw/K74ggEccQ4uuiazdOvWwe5DzAKLZMtQV/eS1ILCvfa+cgbhxiG0UdARBrG4GBSuBCAFoUyUvNnPmUnZe55pr4+KWf83ZJWvfLK97h4G2fx/SVCq8VzVuTFb3IeVFLUOy9OKsGeoF00izQsIAtjY34pDIwNYkJgNpRD7yy7FMt6QiAmGRLzefZRpYSdXwC9rdjkuuTaz/O0tAx1tzAKLZEn1hFd7+xzruj0jLDZHm4TQhEBxusK4qBauBOBPCO1aRZKs0vlnp+RP+aK/TbxZXoysza08/cn2upeGfB6mT4RUtR6vTroAEwyJLMPGLK1cgSVphXD4vNg2KF6p9FpHP97rbca8xCwYFUw2tRyTCvQmTDQmYUP3UfgYDt8M+72Czeu6bFVW1T8+t7WIs1SEkY2NjYFL0sbV7RjquphBb0gSgH4AUbdzIie+cAwdlwLYjdCYFMlKa+ld/247sJ7eJHGtK6lOe63pcMORkUGmM8QyNHF4ufp85OrI0yjGpBc6D2HtgY1w+n2incOs1ODh8gU43SxO1buxYpOtAyt2vQE74+Gb6Qnp7QsrirJrNm4U74+AkXOTczdt6D46jUEoG4B88AmB3DeEowfgMQBF1CCTjSndb/Q0nsmgPaKqmTNH8eGRo3V77X1MZ4bl60x4bdIFyBqDa/xZKY2zYEFitqjzApwBH17oPAyVIMc0EUoUjxWZWgPmWjKxobsBzgC7Z3Wry24wjijm1A33/4tZUJEsySx6uckxeMuQz0O9T2sBuAFspLeKiyViJwALAdRQg+jkCixNKzprk62jmd4kcelHZJ9/2Nc6jmXMfJ0JGyZfgDQ1i0JhY08QQKvLjl1DPdjn6IMMYL7s7OsCCOKj/la0uhyYn5gN+RhfnjlaqWo95lqyvirAxEr9cH/2VRmlll1DPW8yCyqCT3vbnMvTivw7hrrnMQhXBeAhACMMYnExQsw7kwBgF0KV/0gWpxS883LX4YX0Jonrcuu4vz/exrYscZbWgA2TFsOqiWMZNmZ5gwEcdPRj11A3dg31YOdQD+oc/XCLUHb2ZJyVlINHyhdCxScHjtr2wS5ctOM1OHzsVv1qBAVWZZRdcX/zbsnvGzAjIb3tc1t7OoNQ9wC4lUEcLkaImQBcAuApapBUtd6/Krcs5c7aL/oYtEk0N2VXXPjP1v0vshxfTlXrsWHyYuTybv8T8gQC2DrYiU/62/Bxfyt2DfVE7GF/IutyKvHTQhZDuWPXZ7Z2LN/xOlwMhwPSNXG+qzOKx91xeLukl8ndmF0x9x8tez/wBsiTIl0IDce20FvFxQKxEgABwB4A5Jr3V1hL/v5Y28Eb6E0Szy1F060vtuxraHLaWezrDQBIVGnx6qQLUMw3n/kfzU47Xu9uwPt9Ldg80CHqpD4W5DIZtp526Zjco4Gl93qbccXuN+GhPwi/MsWY2nXOYGd6jcSXyZ2dlLPzzZ7GiQxCPQTgewzicDFArH7Ji8Dg4V+sN4/kF6asYdAeUW3padrM8uFvVITW+fOH/3/UDdtwV8N2zN3yPCo/fRw/qf8cH/a1SP7hDwD+YBCPtR2MdDOi3vzELDw4YQHTORVfDHam7E4pkPRcAAAYl5C0xKhQsyiOcBUYTMrmYoMYkwBlCHX9p1ADLUkt+tFde7Z8Rm+SeJanFb34Vk/jVFbx1IIcz1YtQrWR/OOLer0eJx5tO4hbD3yE3x7Zik9sbehyR+ccJkEmw6XpTOeGjknF+gSkqfV4q6eRWcxDI7b8G7LLh7cOdn3OLChjm/vabecn51UfcPQXE0MJCNUGeIFBs7goJ8YQwIUAyNtwTjWmdm4Z7JT0Oqrrsyde9nDLnscZjM0BCP0yHpgwH0tSC5nEi0b+YBDv9jbhifZavNvTJFot/3BL18Rh76wrIt2MmPGrw1vwp6M7mMVLUmkD12YUldzZsLueWVDGagqmxj/cur+3xeWgbvkZQKg+Sx2DZnFRjPUQgAzAT6lBFDIBVaakqxm0RzRrCiqT3upu+Cerhz8Q2tVvrD787T4P7m/ajUmfPYHLdr2JN7qPxszDH8CY36mRtZ8UTMXilHxm8Xo8TuEDW9dGZgFFUHN4y9AZlsx7GYQSANzOIA4X5Vjflc4H8Ao1yIKkrL3v9jSz2AxDNPMsWQfe72suYRVvRfo43Fs2l1W4qNHstOPBlr14vO0g86pvUjLHkoEXqs6LdDNiijvgxwXbXsFWhiWeL0krfvzpjjopd9XIygyWwf32PgMxjgdAHgDJ743AiYdlD4AMwM+oQbRyBYq0CSsYtEc0V1lLf83y4T/TbMXdJbNZhYsKLS47bjnwEaZ89iTub9od0w9/AJjFSwMzpxbkeHzi2chhuLri1e4jl9+cWSXlmiPBWeaMHzOIowKwjkEcLoqx7AE4B8Dr1CBnJ+Vuf7Pn6CQG7RHF2oyq8ke7Duy0eV1Mkqc8nRHvTlkCk3JsbCDT7nLgnqM78Hj7QabLuaRMK1dg96wrYFEy3RqCO+bQ8AAWfPECsyRynN48cnZCceI9rZucTAKKYGJ8km3XUA+13LgdQDb4HgFjFssegFuoATSCAuP1ideyaIxYvhjufJPVw18rV+DfFQvHxMPf7vPgF4c2Y9JnT+KfrfvHzMMfCI1X84e/eAr1JtxbNpfZ20ztcL/uqLeHPJQppsnG1F8xCGMAcCODOFyUYvWdKQOwlxpvYVL2rrd7mirZNIm9K6wldz/WdpCc6Hzp/vHzsDwttpfkBoJBPNVehzsOb0G3JzqX8FEsTsnHQ+VnhmXbzbHu5/WbcG/TLiaxVIIc38sYf959zbs3MAkoggnxiYN7h3qp4x/dAHIASLa3gxMPqx6ANSA+/NWCHCW6xGsYtYe5W/Mqit7oPrqWVbyrM8pi/uG/bbALC754Ad8/8OGYfPjPMlvxt/Hz+MM/TH5aOBUzEliUzAc8AT822lqfqikrY1bgi7UZprTfMAiTDGAVgzhcFGJxbzIjVFtaRwlyZlL2nnd6mioYtEcUp5utRz/ub8thEavKmIwNkxZDLYRjN+bwG/Z7ccfhLXioZR8CQRbFy6JPuSERr066AAaFZJ8fManbM4I5m59jVjBqaVrBK893HF7MJJgIjq0IoPYCHAZQDImXQ+bYY9EDcC2ID3+VIEeJIVmyY/+rMst+wurhb1Fq8Ej5wph9+H/Y14KZm57Bg817x+zDP1cbj2eqFvGHfwQkq3R4aMICKGRsOjdf72684OasiacxCSaC6Sbr7xmEKQCwgEEcLspQewAUAI4AyKIEmWfJ2v9+X/N4YltE8cO8auOT7XU9DKpvAQAerTgLi5JzWYSSFIfPix/VfYon22sj3ZQTMis1KNCbUKg3IU9nwosdh7DfwXaTySSVFm9OvhC5OiPTuNyp+d2Rrfh9wzYmsaaaUju2DHSyGVsQQanBYj9g76PuF/4KAMn2dHDiUBA/vxjEh79cJkOJ3nzd+33NxKaI4+DwwEusHv6Xpo+LyYf/rqEeXLv3XRwdGYx0U76ilStQbUxBVXwyqozJqIxPRobmP/fIPzfuZP7wNyhUeLZyEX/4S8BtedV4r68ZOwa7ybG2DHSmXZVRWvOv1gM19JaxN82U9pcD9j5qbYBzAWSCbxU8plB7AD4BMJMSYEZCetvntnZJVkm5NrN01mNtdR+z2F8+WxuPj6Yti6lu4SCAvzXtxh2HN0d8WZ9cJkNlfDJON2dgttmKyabUEw6zPNlei+/v/xAsByjUghxPV56D03nBH8k4MjKA2ZufY7JjZIYmzntecm7K/c17JbdmvmbOHMXDm7eNMHhRuQMMSrlz0YPSA1AJ4sMfAErjLHd+bmunhhHFnqG+51g8/OUyGf42/oyYevjbvG5cv+89vNcbuZ4bpUzATLMV5yXnYVFyLhJV2u/8zFs9jbjlwEdMH/6CTIa/jZ/HH/4Sk68z4ZdFM3D7wY/JsVpdDmWre+QlAHPIwRir2bjRtzytaENLR/2FxFDXAvglAC+DZnFRgDJThrxZT5E+wflQy977qHHEcE1m2U++GOxisifvmuyJmGaS9MaGp6TW0Y8FX7wQsYd/tTEFd5fMRu3sq/B81blYmVF6Ug//LQOduHbvu/Ax3mTozuKZTDem4dhZlVGG+YmkUcqvvNvTNPvWnKppTIIxlhyvvzlOoaTmtakI7ebKjRGjTQDUAC6lnnySMfkJagwx1JSVqT7sa/0/FrFK4yz4Yf4UFqEk4a2eRizc+mLYx/vNSg1uyq7A5zMuwTtTLsLKjNJTqqBY6+jHZbveYNId/HW35lbj2kxJzl/lEBrj/EvpXBgV9GqbroAP24a6JXnPurduZ/usBOtuBqFuYBCDixKjTQDOR2j9/6hZlJpAskoryS0p62z+BxtGBsm1WwWZDHeVnA6VwHrX5ci4++h2XLH7LTh84eshzNMZ8YeS07Fn1hX4ZdEMFOsTTjlGq8uBZTtfh83rZtq2K6wl+HFB7CR3sSpFrcPPCtm8uH9qa8u7IavicibBGMszJKwX6NtOzwbAbKMzTtpG+9fyOkKb/4za+cl5H7/a3SC5LfDWFFQmPd1c29HjcZIX6q/KKMMfS05n0ayI8geD+EHtx/hX64GwnbMiPgm351VjYWIOKDe1fq8Li7a+jPphtnO3zk7Kxb8rFkJOv+FyYRAIBrFo28v4YqCTHOvYRjykFyCxTDWmdm4Z7KQOXd4JgMWOg5zEjebVNB0AabtMpSAgTxfPrKwuSy32oadZPPyTVTr8tHAqiyZFlDvgx9V73gnbw78szoLHKs7C+1OX4uykXNLDf8TvxSU732D+8J9mSsND5fP5wz+KfNkbp2RQIGjXUE/CqoyyXzBoFnMTDMl3MQhzGdhuFMdJ1Gh+yVcAID0gp5rSmv7UuIvNrh0M3ZJfVvBeX/NcFrF+U3wak3HHSBryebBsxwZs6G4Q/VyZGgMemrAAG6ctwznJueT1qd5gAKv2vIPtg11M2velkjgznph4NjQCtYQGF26lcRbclM2m2vgn/e2310jwIZnRuueuPJ2ROtaVBWAWi/Zw0jaaP+CV1JMW6xPupcYQQ7195FGHz0t+rZufmIULUwtYNCliBrxuLN7+Kj4TeYmmVq7AD/MnY/Npl+DC1ALSG//XrT/4MfNVCpkaA56rOndMbN8cq9bnTUKOllo6Hzg8YtM2ZJT+jkGTmKoBApPiU99hEEqS8xw4tk41AZgG4gSRNLXel5mf+CdKDDGszS0v3tjXSp4ppBIE3FlMLo8QUYM+N5bseA27h3pEPc85ybnYPGMFfpA3iekb9fOdh/B420Fm8YDQHg7PVZ2LNLWeaVwuvLRyBX5VNINJrM/629bUzJkjua6gVKX6xwyGOpYCIE+E5qTtVP9KrqKecLIp9bOajRvZrsVioN5hf2zYT3/7X5UxHnlRXAp2yOfBku0bsEvEh3+iSouHy8/EYxVn/Vd5Xhb8wSDuPPwF05g6uRJPVZ6DQr2JaVwuMs5JzsVpDLYNPjIyqD58qOuPDJrE1F9a9uyrMiVTZzuaECoPzMWwU0kA5AAuopxMBiBfG/9zSgwx3JwxYcLG/pbJ1DgmpRrr86pZNCki7D4Plu7YgJ1D9PrpJ7IsrRCbZlwiWuGczQMdaHQOMYunlAl4pPxMVBuZ1ITiJOKXRTOYDDd91t92vRR7AUr1lkcZhOHDADHuVBKA0wEkUU5WHp80cE/jzo8oMcRw1ON4gEWBmFtzq2FWRmevmScQwMrdbzOfNPelOIUSD0yYj7+Pny/qz2izrYNZLBmAv5TNZVZJjpOOifFJWJpaSI5z1Dmkbjjc9RsGTWIq24hfmZUaasnLswFYWLSHk6ZTSQBIb/8AUBZnfp4ag7V1JdVpn/S3kcf+c7TxUVsRLghg7YEP8VF/qyjxJ8YnYePUZUxuuN+l3+tiFqumaDqWpxUxi8dJy/8VTGUy92TrQJfkqufV7N/vmGpK3UMMowIvDRzTTjYBkIH4h6CXK4NJatNPKDHE0GYbemDI5yH3Bf60cNoJd5+TujsObcazHfWixL4mczzenHxR2LbIZfU7uCm7AjdnT2QSi5OmDE0crs8uJ8c56OiPW51V/n0GTWIqV5/wewZhLmAQg5Ook00ApgKwUk402ZRy+M9Ht4jTvzxK61PK9R/b2kgVDQFgvMGCC6J0M5hHWvfjT407mcdVCQLuLpmN34+bFdZSyAUMJuotTyvCLxjNFOekbU32RMQz2KVz52AXk71DWPpb486nCvUJTmKY+QDYztTlJONk78zk7v98rfFhagzWOuSee7rcI+RXxvV5k8iFayJhk60DP6r9lHncRJUWL1adj5UZpcxjf5czE7OhICyBmp+Yhb+UzY3K3yd36kxKNb6XNYEcZ9tgV/INORMXM2gSUxUGy0ZiCA2IlV856QpLAmBUqoPxiP8LJYYYtg12XUaNURJnxqKkXBbNCasO9zBW7XkbXsZb4+Zq4/HWlIswPSEy2x8nqrRYNspx+2pjCh4pP5NJuVguetyQVYE4hZIUIwig3t4vucmAKToDi9LAfBggRp3Mna4CAKl/uzI+6cg9rZuoXVFMrc4uv7Zu2KajxlmfN4lZ9bpwcQf8uGr32+jxsP2VjDdY8MaUC5HLoNIaxc8LpyH1FAv2FOpNeKryHOjktAcBF30SlGpcm0nvBdg00F7y/8ZNy6G3iJ37Gna+X6hPoM6MXQRAcksdObqTSQDI3f95OuNT1Bis1dr7ybtdFesTcH5yHovmhNWP6z7FNsbL/WYkpOO1SYuRrCLnVGRJKi2erVqERJX2pP7/JXFmvFh1HixRuoSTo7sxuwJ6YvI34vfhyGD/3YyaxEyZwbKZGMKM0DJwLsacTAJAqgallyuD8XKlpL4U67KrSjYPdJD77W/Lq466t//XuhuY7+x3WkI6nqk8h8lkKlbK4iz4YOpSnGHJPOH/Ry6TYWVGKV6fvBjpjCsSctHFotTg6swycpwvBjrOfXbZMkktB8pUx/+VQRg+DBCDvuvplQigC4Rdr2YmpLd8amuXVCWVxSkFb7/cdfhMSowMTRy2z7yMNOEs3Drcwzh907NM18pPM6Xh2apF5LcnMW0f7MKG7qM46OiDzetGqlqPSmMyLkjJj/hwBScd7S4Hqj59gjwv5uqssh/9s3n/bxk1i4lsrcHd5LRTMvQmADmMmsNJxHeN68wDccvLXJ3x+U9F3lHuVNQAwkODneQtf6/OHB9VD/9AMIib9n3A9OE/xZSKZyql/fAHQpP7eClf7ruka+JwXkoeXuw8TIpTZ7fdCEBSCcAEQ+KOJqedUvAsG0AxgDpGTeIk4LueYAsowdWCHKmmOBbFKJjpyKq4qdXlID2xtHIFrrSGf4kbxf3Ne5hW+ivWJ+CpieeQZ09znJRcl0UvDLR1sCvzlqLJkpoclKWLe4BBmDMYxOAkRNQEYKIhqesP+7dSd6Vi6tBw/xpqjOVpRUiIoj3hG0YG8evDW5jFS1Xr8UzVIpii6GfAcSdjEoPeIk/Aj/ahQUktCUxu3PtoqlrvJ4aZx6QxnGR8WwJQDIA0dp+rN26kfJ619fkzkrcMdBZQ40RTzf8ggPUHP4Y7QP3uh8QpQlvjZmoMTOJxnNRcx6Aw0B57r6S20q0BAqUGcwMxzFwQh4Q5afm2X+Z8anCLWiup6n8dzv47hv1e0rT92eYMlMZFzwZZT7XXMuv6F2QyPDB+PsoNiUzicZwUnZ+Sf8p1JL7p4HC/fl1OtaQqA2ZpDG8RQ5gBVLJoCycN35YAkGbJp6n1vvuO7nqXEoO1g8M2ck2DKyNQ3na0+rwu1NRvYhbv9rxJOCsph1k8jpMipUzAivRicpwjI7b1DJrDTJpKeS+DZct8GCCGnCgBUACYTQlcEmc5Qvk8a7fmVRTtGeohvbqblGqcHUUPwJ/Xb0Ifo1n/ZyZmY31uNZNYHCd1K9KLyftB7LH3TGHSGEbubNhdX6gjbw7EE4AYcqIEYBIA0v6tGRo9tbuJqXan66c+4vreJamFUbPl7x57L57pYLNiJ1sbj79PmBd1RY84brTydSZMMaWSYjQ57crrM8svYdQkJor0pj3EEDMB8Nm/MeJECcB0UlCZDFa16m+UGKzVDtvI2/5emj6ORVPC4mf1nyMQDJLjyGUy/G38GTAq+HeeG1tWMPi+t7od5FVHLKVq9C8RQ+gQ2h6eiwEnSgAoBSNQpEsYubNhdz0lBktrc8uL99l7zZQY4+LMmBifxKpJonqrpxGf9LcxibUutwrTTJHZ2Y/jImlxSj60ctoeOLuGuiczag4TekH+gEYg7+vDE4AYcaIEgPQLztMbqd1MTHW5XT+idv9fFiVv//5gEL84RN37I2RifBJuz5vEJBbHRRuDQoXziJt9tbocyuuzK5cwahLZnxp3DZQZLP3EMDwBiBHHSwDSECr7OGrpav1rlM+z1uR0kFY0yABcmEouHxAWL3QeQv2wjRxHKRNwb9kZUEZRuWOOY43F977LZV/NoCnMZGkM24gheAIQI453dyd1/8sAmHQ6yWz/+4PiYsOeoR7SbJ5JxhSkEdcFh0MgGMSfG3cyibUmpxIlcaRRE46LerPNGeRdLutHbKQ5VawlqrRvE0NkALCyaAsXWcdLAEjZXY423v3Hui+OUmKw1DuiXEMt/nNuiqTKep/QK11HUOug9u4BuTojbsurYtAijotuakGOMxNJHaI46Og33JwzQTJjiElG3RMMNjKT1BJHbnSYJwDZuvhmyudZa3M5llNjLCKOA4ZDEMDdR3cwiXVXyelgMFGI42IC9QUgEAxi0Otby6g5ZL/Zt6UrV2ekFgjhwwAx4JsJgByhGgCjlqrWUceXmDpg7yWV7ptgSIyKPePf7mnEAUcfOc5ZSTmYbc5g0CKOiw3zLJnk1QBHnYNnM2oOE9laA7WXlicAMeCbCcB4AHGUgGa56hXK51lak1M1rYW49e+5UfD2DwAPNu8lx1DIBNQUSmq4kuMiTidX4gxLJinGQYcts0ZCG+kkq3XUpUKTEHph5KLYN/8gJ1KC6eQKJMsTJZMA9HqGr6HGWJhEG/8Lh/phGz5msOHPldYSFOpNDFrEcbGFugdGn8cpdGWWS2aHwCS5+kViiDiEdozlotg3E4AySrACvWmgpnEjm+LzDHS4h+dSPp+o0mJ8FOx891DLPlBr/unkSvwgX1I1SzhOMuYwGBbr87suZ9AUJhKad78Rr1BRbxuk5wUXeccbAhi1LI2hlvJ51g46+nMon59jziBvCCI2h8+LZzvoRRevyihFkkrLoEUcF3vSNXHk3rEWp2MGo+aQ1QCBIn0CdckQTwCiHNMeALNKu5XyeZZuyiqf1+UeIY1RzbFIfzLcC52HYPd5SDHUghw3Z5NGfzgu5s0lzgM44OhLXyahcfNUte4QMQTphZGLvK8nAAYApL9wg1z5Ia057PT73ORduE6PgtnwLN7+L7eWIEWtY9Aajotd1NUxg163LDV74lmMmkNmUmqpJdt5D0CU+3oCUAaMvsdbIROQpNS8T28SG71uJ6miYbE+AVYNaUGE6JqcQ9gy0EGKIZfJ+Ns/x52EmQlWcmnsfq/7IkbNIYtXqD4mhigA3xo4qn19cSspm8vUxLlrDm8ZIraHmWaXnbR+b5ZZ+pUun+84RJ78tyAxG1laA5P2cNyJBIJB7BrqwV57LwZ8biSptKiIT0JpnEXy82y+FKdQotKYjC8GOkcdo9M9LJl1tkat6i1BJqNsG65AaCWApDZ/404eswQgTRPXc9Qpjef/TdYplgfat5H6tCcZSdsHhMWznfTu/2sz+TAeJ55AMIhHWvfj3qZdaHba/+ffF+sTsD5vEi6Kks22JhtTSAlAk9Oey7A5JHfWftGXpTF4m112Sq2U8eAJQNT65hDAqCWptIeJbWHGIwxfTN3+d5IphVFrxHHA0YfDwwOkGAV6E+YQJzZx3IkM+71YumMDflD7yXEf/gBQN2zD9/a+i+v2vgcv8TsbDpOMtPvCUeeA5sacyZJ5u0jXxlHLh/J5AFHs6wlACSWQUaFmU4ieAZvPM5/y+USVVvLlf9/uaSLHuMJaEjXdr1x08QeDuHTXm/joJAtUPd95CN/fL5k5xCdETQD8wSB8ftcSRs0hS1TpqCWBC5k0hIuILxMAJYjbOxoVqg/ozWGj3+Mi9WtXG5NZNUU0b/U0kj4vyGRYksq/u5w4Hmzeg0/7207pM8921OPVriMitYiNdE0c0omTgwf8ntMZNYfMrFDtIobIYdEOLjK+TAAyQahTrRQEKPxaySQAbS4HKZmhZvli6/E4sWOomxRjVoIVaWo9oxZx3H+4A378pXF0z5W7jm5n3Br2qPeHfo9TMhNvDEoldSVADot2cJHx5UM/i8IkfdEAACAASURBVBIkTaX33tO6ycmgPWRrCgrUjc4h0gTAaoknAO/0NFFm7gIAlqcVMWoNx/23TbYOdHtGRvXZffY+JrtaiomaAHS4hyUz8Ual0n9CDJEIgL9JRKkvEwDSjjdmlcbBoC1MBDz6Be6AnxSjLM7CqDXi+MRG2/hHKRNwTrJkJiNzMWaXvYf0+c9s7YxaIg7q/aFxZCiuRiI7A95Tv6nNqFBT3iZkID4/uMhh0gNgVmp6GbSFiSG/Zx7l84kqLRIlXhP/Mxut+M+0hDTEK1SMWsNx/83udZM+v4n49y22cXEJpM8P+70yW27lTEbNIUtW66gbuPEEIEoxSQDiFCrJpOx2n4c0vlasp325xdboHEK7i9bhQt3alOO+jUFJKw4n9QQgVa2HiXiNQ373aYyaQ2ZWqQeJIXJYtIMLPyZDAHq5soFBW5gY8LlJfdvj4sysmiKKTQy6Rxcm8oSdE08p8TvU7RlBwwj1mSSucXraNQ77/JKpv52g0NBmFPMEIGox6QHQCqqDDNrCRI/HmUT5fInEE4DPiW9Hudp45OqMjFrDcf9rsjGVXF9C6r0A1GGAIa9bMmtw4+TKZmII/kYRpQSEJnGQEgC1Sr6TTXPoOlzDpEW61MxebLuGaBOsZpjTGbWE444vQakm96RtJm5yJTbq9fV7XJLZbEQvV1C3BU5j0hAu7AQAJgCjnvUmA6AOBLcxaxHB9UUV1n6vizS7tkBvYtUc5twBPw4N20gxZph4AsCJb7qJ9kzYL/GlgPk62n2i2zMimRuNTqnaSwyRyKQhXNgJAEhrWswqbeBPjbtoRekZkbsxhfJ5tSCX9AqAOkc/uV769ASerHPim0b8O6sftpFrXYgpU0PbQbPTPSKZZThamUAt404aduUiRwBA6ssyKpQeRm0hcwUCpI0pMjQGSdfG30d8K0pR65At8T0OuNhA7QFw+n1oksjuoseToYkj3StcAR9uyS+TxBaI8UFjHfG+Z4ZE6hpwp4acAMQpVLRFvwyN+L2kL1QGsca32PbaaeUWJhh4Tx0XHumaOHJv2kFHP6PWsKeVK2AhXp/Tp6pg1BySmsaNrjiFitLdIgfxOcJFhgDi+I1erhpm1BYyh99Lmo2aqaV164ntyDBtadR4ngBwYUSdKFc7LN0EAACsxBcGb8BD2oGVpXiFilY+lc8DiEoCANJ6Fq0gl0wZ4GGfl7TPttR7ABqJXaJSL3HMxZYS4oqaWgdtwqvYqPMARvx+SQwBAIBBrqIO5fIEIAqRhwA0gkIyFTscPg8pmZFyAuAPBtHioiUA1AItHHcqqD0AUp4DANDvF06/N4NRU8j0CiW1HDCfCBiFyAmAWpBLJk0fDnhJg3JmpXRXALS7HfAERr8CQAYgR8cnAHLhQy2q1emWzOjicVlUGtLnXQG/ZDJynVxB/WHzHoAoRO8BkMtplWkYGvF5SQW6E4j1vcXUNEJ7G0pR66ERFIxaw3HfLY9YcbLLPSLppYAmJTUB8EkmI9fKyT250p5AxR0XOQFQyeSdjNpCNuT3KimfTyB+ocXUNcr91b+Uw5f/cWFmUWqglI1+dZg3GECfl9ozLZ4EBe2FYcTnk8yYo0Yup9ZykW73KXdCAgAdJYBCJqduJMHMkM9NWosq5R6AfuKNMEviKxy42CPIZEhWk24v6JDwMICZOAQwEvBJ5qGpBnkoVzLXwp08AQCpIpVCJpPEKoD1+TOSvcQxcuoWn2Lq89ASgCQJVzjkYleaWk/6vJTnAVB7AIZ9HsnccOSC4CSGkG73KXdC5ARAhiCtb5oRp3eYNAvVoFBBQeiuFFufh/b9NPMEgIuAVGIC0E9MfMVEnwPglzNqCplcJlALuvEbTBQiJwByhTQSABlkpM019HLS9AHRUcdCLRKe38DFLmrPkzPgY9QS9vQK2j3DHfBL5o1DFgRPAMYgcgIAv1wSCYBf5ifNclMJkknGj2vE7yV93swTAC4CtHLayhOnX7oJgFpGu2e4A37JbD0iCDLqEABPAKIQvQdABkkM0gUDMtKaI5UgmWT8uNyE+Q2A9Hs4uNhEXXrqknAPgJJ4z/BIKQGAjDrWwhOAKMRgEqCcmjkyERBAWlKjJGbzYvMEaKW6qTcrjhsNHbEHYETCPQDUXkNvMICanDmS6JqTC+A9AGOQAID0auj3QRJDAAjSljNK/QHpCdISAKkPcXCxSUP8u3MRE18xyUDvORz0uWnrJBmRgbwKQDK9GdzJI/cACDrpbAZEoZLwCgCA3gOglvj1cbGJmnhS/+7FRu05dAkOSZQ6lIE8B0DavyjuuMg9AEF5QBpDAEHaK7JC4j0AMmKCLYm7DDfm+IK0uStS77miLh1WC3JJfDWFoIy6CoD2i+YiQgBAml6u9NK63lmhPr59xEl2YqPeCN0Sf5PiYpOT2nMl8QTAS0xwTHqvJCY5BBGgjuHzG0wUEgCQ9oH2uIK0Sh+MBEHrAfAQv8hio94Ipd6VysUm8tCVxBMA8vfKppHEjSeAIDUBkMR1cKeGnADIFdLoAZDJZKSuNKk/IKk3QilPpuJiF7XnScoJQCAYJA9xSEeQuhohVn4QYwo5AXAKQUnsaCXIaJMRPRIfAqDeCKmFhDhuNFzEZXzUVQRionb/y2Uy1LRvl8QqKj9kvAdgDCInAEJAKkMAftJuVl7iMjuxxStoBRt7JbytKhe7qLtYqomFhMRE7TXUCApJTAAEgEDQzxOAMYicAPj95MkjTGihICUAUu8BoJbylfKmKlzs6nLTXnATiVvuiok6b0gjl04C4A+Qd/OT9hsUd1zkBCAoJ08eYcIt+Pspn3f4ST8G0SUSN1XpJe4myHGj0e2hJQApxN0ExTTko90ztIJcMg/NAALUBEASJeG5U0NPAPzSmATodyv7KJ93+LyS7gWwEN+Eeog3Yo4bjR5i4kndTVBMg17a0nm1hBKAIHVTOMDOpCFcWJETgIAMBkZtIbG1b7fJZbRiOYM+ai0M8ViUtBthk5N/P7nw8gYD5DkAKSpJvF8cl414bRq5QjIzc72BAPUHzW8wUUgAsevGEwikMmoLyXOA36hQk17hqTcrMaURu0IbnYOMWsJxJ6fZOYRAcPTD3AaFirydsJhsxB4AvaCUTLecKxgwE0MMMWkIF1YCANLYudfnTWHUFjKjQkXKqKkZvZiydfGkz9u8bgwQb1gcdyrqh0nzcpEs4bd/gH6/0CkUknlrdvu9JmIIyVwLd/IEAKSxc7fMn8ioLWQGhYr0jZTyA9Ki1JCXAh7lvQBcGNU5aAlALjHpFRu1B0ArKAcYNYXMGfBTh3J5D0AUIvcAuHyBBEZtIdMrlKRiQFKfKZ+jM5I+f8BO+lVz3CmpI/YAFOklc2s5Lur9QiuXk16+WBrxeajLLXgPQBQiJwDOgI/adcSMVlCSstA2l7R3Ns7V0t6I9th7GLWE474bdQhA6glAm5t2v1DL5ZL5Qjr8PuoyQJ4ARCHyEMCIzyuJUsAAEKdQdFI+3yLxBKBAT8u19tp7GbWE476dJxDAQQetx0nqCUArcWWNViY/zKgpZHafh7oMkA8BRCFyD8BwwCeZhbp6ubKR8vkWl7ST2HIDbbrFPnsfaVY2x52sPfYe8kZAUk8AqPcLlVy9j1FTyIZ8HuqmC11MGsKFFT0B8HnUjNpCphMUdZTPt0l8rfwEYgIw7Pdiv0Myw45cDNsyQOqMQ5JKiwSlZG4t/8Ph85InARrl+q2MmkPyu+LTDMO0zcL84AlAVCInADafm9p1xIxCLuylfL7N7ZD0G3KWNh5GBe2m+LmtnVFrOO7EthITgHJDEqOWiKOV+PYfJ1cGf9fwaTOj5pB0etwlxBA94HsBRCXyHIABr1u2Pn9GMqP2kMgUsm2Uz3sCAXRJuGSuDMB4g4UU41OeAHBh8MUgLQGYapJEfbETos4XSlZrJbP5yIjPW0UMQftlcxEjIDR5g5TOur2OqWyaQ/P3I3u6TUpaNcDDw5JZmntcVUZarrXJ1i7pXg4u+tUN28i7AE6ReAJwmLjCwaLUSWbSnCvoGU8M0cGkIVzYCcf+s4kSxBEMlDNoCxNWTRyptHHtsLTXys9ISCd93uZ1o2GEFwTixPN2TyPp8wqZQE50xVZLTQBUmlZGTSGz+7wFxBA8AYhSXyYApLEoV8A7jkFbmEhSaUndUbXEpUtim25KA3XTo0MjtJsXx32bt3tI7xMoNViglysZtUYc1PtEglJVy6gpZHafN5MYgg8BRCkmCcCw15fLoC1MJCg1RyifryWWLxWbQaEirwbw8SEATiQ2rxtbieP/0yTe/R8EvciRQa7dzqY1dDavizrjkk8silJMhgAGfG5avzRDBoV6N+XzUh8CAICZCVbS56W8xzoX3d7tbYKfmGBS/77F1uZyYMhHm8OnV6o/YtQcMpvXRd10gQ8BRCkmPQCDPhd1K0lm9HLZJ5TPD3jd6HSTphGI7ozE0ffYqQU5JsZLe4kVF71e6SJ1wOH/s3ff4VFV6R/Av9Myk957LwRCQiCEXjRSBUFsoFhBcW2r6Ora3c3a29pRsYuriFQFASmC0hMgjQDpvdeZzGT6zO+PMbv8EEKSc+7cOzPn8zx54AHmPYeUOe895T1ysQRZgVGUesMN0ul/L4nM6luZc5JSd4g163tJj3KTfdEZ3lCZAWjVa0kvkqBGKtPtkYvJilqd6hF2sZxp/pGIVgzt8q7rwoZBIRbuHeuM42o3aLG3nexo+zT/SMGv/58iLKYV5+GrzgaITivR8mzCmGEas5FkU5EVLAFwWFRmAFoNvdKH48YI4lKg98vL9fHuvkSP8MeVwi5qJRGJ8M9hkwb9Oi+pDI8lZHLQI4YBNjSXwWglG9fmBsdS6g13jneTvT9EyD0FUQAIADos1mmEIZoBCPsSFeai+hKARgBDrgVptlphgnUunS6Ri1B41ZG8/oTAEwAAuDYsCSuiB358VyoS4/2RVyCO8EZBhrmY7xuJKnEDAOY4QgJAuMkxWO4hmOl/pVE/nTBEGZWOMLzoSwDMIJwFUBkNl5N3h44guXshyetPKFvhCPvkXx0xHY8njINUJO733wW5uePr0XNxdWiinXrGuJpTPR3Et02megUOeWnLXmq0KrQZtEQxfCWKPZS6Q6zboCet4SKYGw2ZwTt35DhNEqjTqBtD2Bdq/CWyfSSvV5r0KCM85mMPIgBPJI7Hvkk3YGnECATK/v+V3rHuPvh7wjgcmXITrgyO46WPjGv4vI78YrtFDpCgki4PSkVihHgrtlHqDrFWQy/plAtLABzYubvBigEsHGqgNqNWMLUAvN18NklF4o9MBOuRJ5Qtgr+OtM9Ir0B8kHoFrABa9BpozEb4SuUIYsf9GDtoN2ixrols+l8sEmFJRDKlHnGHNAFI8PDVZRcfEcxZ4wadmvRNji0BOLBzZwCKSQI1atVkt9RQ9GbF4dZED1+iYuQ5hBt9+CACECb3RKKHHxv8Gbv5or4YegvZZXBT/CMEP/0PADmEtxzGu/sIZsf840kTo5r1GrIjU2wGwKFRSwAa9BrZU0nTBXPAPM7Dlygz/b1TMKW6GUaw9BYzlen/m8KF//TfZdQT73MIkXsQ1SmhqceovZJwr5MFLAFwaOcmAGdBcKezxWpFt0ElmJMAIXIPokpb1VoVqrWCubCLYQRpbWMJ2gk3xXlIZA6xQfVAZz1xlcMwmeJ7St0hpjIZSI8AVoAdAXRo5yYAWgCVJMHUJsNlZN2hx0fq/h1pjP0dbBaAYS5GbzHjrSrykvYLQuIFX/wHAH4jnBUMdnO3vFGdJ5wSwAY96TXA+VQ6wvDm/PNjRMsArUbtBJLX07Sq+sSxMLmHiSTG/g6icgIM49S+qDuFBh35A+Bg6lnwifSBYLhngKBuzWvQq0mvAWYJgIOjmgDU9faQfkNRNcIroJrk9b93NhBP+TGMM9KYjXinOo84ziS/cGT6hlLoEbeqKCwJxrh7CWb9/62oye5lmi5fwjAsAXBwVBOAMm2X5xMJmaTfVNREyb13k7xeadIjX9VKqzsM4zRW1RQQr/0DwH2xpHVo7IPGbGCk3OsLCl2holyqu6bXTDRBCgBEN68y/Ds/ASAqUWm0WKA0GZaQxKDJTyz9iOSWCwDY0VZNoysM4zSa9BqsqiF/+It398G8YMGUD+nXTsL3gUiFl/mNqhO76PSGXKehdxFhiDYADTT6wvDn/ASgFADRVVcdRv18ktfT9EF9UVG8h6+OJMZPLUT7IhnG6Txdcghq05CvDvmve2NHQyIiTdG5pzIZiI8Fp3gFCub8PwA06zXjCEOQr/8wvDs/AbACyCUJ2KTXjCV5PW3DPQOIljUqeruJ7/9mGGexp70WP7WQj2UBMgWWRgyn0CPu/dJWA4OF7JbDaIX3TkrdoaK6VxVNGIJN/zuBC90ic5QkYGWvMoLk9bRFuXusJ42xrbWKRlcYxqHpLCY8cZbOPraH4jIc4ugfAGxtJUt4pCIxIt2kH1DqDrEnE8cm1WhVboRhyM9/MryjngA06tTSR6IyR5HEoMlXL/nAW+pGtJV/WytbBmCYNyqOUymOFS73xN0xjnH0r9dsxK+EGwBHeQd2v1iZL5ia+e16wy0UzjYdIg/B8O1CCUAOQHYbbhd0N5O8nqY3Wwo1o32CiK46LuppRxWrCsi4sGPdzXifwsY/AHgsYRwUYuml/6EA7O2og5Zwt3yyV4Bgiv8AQJtBN4MwRDUAViXNCVwoAegCQHS1V7NeM4/k9bTFe/j9SBpjU5NgEniGsSuN2YgHin+lUhMjwcMXt0SOoNAr+9hI4ec+1t3rXQpdoaZC251BGEIw9QwYMhdKAADgGEnQEnVnCsnrafNTeL8hE1/svzow3zaeJZsWYRgH9diZ31HVq6QS6+nECZCJyH4W7aXTqMOu9hqiGMM8/HWvV5zYR6lLxB5OyQwvUXeSXrvIpv+dxMV+Eon2AVRpVW4r4zInksSg6f3yY/WjvYOJrvGq0apwpKuRVpcYxiFsai7HD02lVGJN8AvDIge49KfPxuYy4muO03wCjlPqDhUqtf6vRivZiQYAh2n0heHfxRIA4i9wu6H3L6QxaEr2DCBeBljbSLQywjAO5ay6E4+c2U8lllQkxpspl0HsAOf++3xH4ec9TuH/JoWuUNOoUy8gDNEFwoqxjHBcLAEoAkB0cUWtTjWT5PW0hXr5/ZN049GWlgpozOQFUBhG6LqMetxasJNKwR8AuDcmHalegVRi2cMZdScKVW1EMYZ7Bujerj5O/OBB01l1J+kGjEMAiKcQGGG4WAJgBfArSeDT6o7oHxYvlpDEoOnt0iMNY31DiEpX9pqNVIqgMIyQmawW3FW4i9q6f6TCC48nkhaes69vG88SxxjlE7SfvCf0PBg/bkI1+fl/Nv3vRPrbjbOHJHCHQSf+Pbf0BpIYtA3z9FtLGuPr+tM0usIwgvWP0iP4jbD07bleGT7NYYr+ALaCRz8QTv+LAMR7+LxIp0d0dBnU91IIQ/RgyAhLfwkA0U16ANCs672NNAZN/lK3l0iLAuUqW5DHbghknNTq2kKsri2kFm9+SDyuCnGMC3/6bGgqQ4eR6AoRpPsEq96oOC6o3fI12h7S8/8dAAS1qZEh018CUA/gDEnwit7uKSSvp+2d6vzuiX5hRP8nAFTfIBlGKL5vLMEzJfTGrBA3D7ydcjm1ePayuraIOMYo76AtFLpCzXtJ8+SnejpI6//vBkB2LIIRlEsdyCVaBijsafd/NDlTUFU/kjz8XyWNsaW5Ak16DY3uMIwg7GyrxsrT+6nVuhABeDc1C0Fu7pQi2sfvnfU4rSa6EBWeEpk1xifoSUpdoqJI3/Bgl1FHWoBBUBcaMeQu9Q1BtAxgtlrRpNE8ThKDto9rC75J9vTXksQwWi34qp6dhGGcw4HOBtxZuAsm8vPh/3V3zCjMCYqlFs9eaDz9T/aPKH35zIEmCt2hpkanup0whBXALhp9YYTjUgnAfgBE54DK1d1XkbyeC2N9Q34ijfFV/WniIiGMY6vXqfFKRQ4WHN+C5P1fYtj+LzEvdzNeKDtK5dIce/itsx435++g+r2c4hWA7GGTqcWzl6peJXHlPwBI9Q54g0J3qPlh8WJJvqp1JGGYAgCCSmoYcpdKAHpAWBY4v6ct5JHkyZEkMWiLlAc+4S4hqwnQbtDie1YYyCWZrBa8Xnkc4w5+izcrT+BIVxM6jDp0GnXI6W7GO9V5mHDoO/yr7Kigk8SdbdVYmrcdvRRrW7hLpFg9ahbkYsGcAB6wD2sKYCG872CYh7/u3aq8zyl1iYp9OSXLW/W9pF8QNv3vhAayJkT0tGywmNHRqxTUeti/qw7XTPYLJ65v+k71SVAoq8k4kHaDFted2IrXKnL7/dqbrVa8V52H2wt2CjIJ2NBchmUFv1DtmwjAeyOvcKiCP30adWoqZ/8n+IURzy7SVtPbQ6Mq6y8UYjACM5AEYBNpI+Wa7mtIY9CW4hVAnJTUanuwjs0CuIxCVRtmHduIQ4O4E2JPey2yy45w2KvBe6c6D/cW7aGevK6MH4vrwpKoxrSXd6vziJMhP5ncOsw/dCWlLlFT1NM2hjCECqwAkFMaSAJQAdv6z5Dlq1qjspOzgkhi0LaqpmBzhk9wF2mct6tOUt08xQjT+qYyzMvdgjpdz6Bf+1ndKRQT7iynwWS14NEzv+GFsqPUb7acGxyLZxInUI5qH816Db5pID4djOkBkbnZxfuJSqjTtjJu9I11OjVpFaZtAAw0+sMIy0CPhRDNAvSaTajubXuMJAYXxviGfEgao1qrwnpKt6UxwmOyWvBc6WHce2oPdBbTkGJYrFbeK0j2LV18xUE/kj39sTptlkNd9HOu96rziZ/+ZSIx0ryDHqbUJWqqezX3UwiznkIMRoDskgAAQKmm61bSGLTFJgZnxyi8iXdAvcVmAZxSp1GHJSd/xoc1RBNgAGzny/mSp2rFjGMbBrV0MVCBMgW+HTMP3lLSEvP8aDX0UknOJvmH171SniOotZ5sQHxS1Ux6HKMHbP3faQ00ATgFgOgxN1fZHPn3hDHDSGLQlr1/v2lyQARxxa7KXiW7KtjJnOrpwKxjG6nVxK/sVVKfdr8UK4BP64pwVe4WNOjU1ON7S93ww9gFSPDwpR7bXt6sPDHkmZ1zjfUN+ReF7lDVHDv6fkrT/0R1UxjhGkxlqI0kDRktFtRotS+TxOBCuJv7X4Ld3Ikf318sP0bt6lSGX1taKjAvdzNqKJ7lt8K2S95eOow63Jq/A0+ePcjJKQS5WIJvx8zDGJ9g6rHtpVzTjTUUnv7H+4Z1Cu3oHwCUajofohCGTf87scEkAJtJGytQtc4njUHbO9X53VkB0cRnXNsNWnxQk0+jSwxPzFYrni87ihWFu6iejQeAKIUX1Xj92dlWjelH1mFnWzUn8aUiMb5In4Op/hGcxLeXf5YdoXISYpxf6EsUukPVY4lTQo51NZMeyVCDnf93aoNJAI4DqCVprETT5XF/TIagrggGgEh/7xV+MjnxDO2qmgJ2R4CD6jbqsTRvO96tzuNkqn6qP/e1sNoNWtxdtBu35O9Ai76XkzZEAN5PvQJXBsdxEt9eDnY2UEmQ0n2Cej6qKXiLvEd0tWi7XtSYjaSTTj+DTf87tcEkAFYA60gbrNR2PUUag7Z3zpxoygqM/o00Tq/ZiJfKc2h0ibGjM+pOzMrZiL0dRPltv5ZFkVZivTiL1YpvGs5gyuHvsam5nLN2xCIR/p1yOZaEJ3PWhj1YrFY8R6k2wxS/iH9TCUTZKXU7jQetDRRiMAI22NuhviJtMLe7eUx2RKYHaRzaRvj43+UtdSN++FvXVIKinnYaXWLsYFtrJebmbEJVr5KzNm4IG4ZxvqGcxD6ubMHsnI14+PR+4jvs+yMVibEqdQbu4DCRsZf1zaUoVLURxxnpFdj7UW3h8xS6RNUj8WOnF/S0+xOGUQLYTqM/jHANNgE4DYDoEbfDqBNXifTPksTgwquluZWzg6P3ksaxWK14/OwB4priDLcsVitersjBsoJfoKG83n+uMT7BeCPlMupxK3uVuLtoN67M2YR8CoNZf9zEYnyWPtvhn/wBQGnSI7v0KJVYlwdGviSC3Q93XFKVVvU8hfefdQC4WUdiBGMo90N/RdroGXX7naQxuJDuEXpLIIUTATndzVhDobIYww2VyYBb8nfg35UnOH33zgqMwubMq+FD8Yx8g06Nv5357b/T/VyPPp4SGb4ZPQ8LQxI4bsk+Xig7hlYD+bg21jek+6OaQsGdaspOTXXL6W6eRiHUlxRiMAI3lATgOxBuDMlVNoeujBs7lyQGF7IrDrfODIwhLnoEAP8qO4JmtiFQcCp6uzE3ZxOVa1/7c0fUSKzLuIra4F+tVeGpkoMYf+g7fF1/2i6XUIW4eWDruEWYFRTDeVv2cFLZiq8byI/9iQBMDoj4O3mP6KtW4sVGnZrsqlOgBACdaRJG0IaSACgB/EjSqBVAqabzVZIYXBkZIF0eqfAirgyiMhnwXCm7P0NIdrZVY+axjSjVEF8BcVEeEhk+GzUbb6VcDqloKD9e/2OFbbf6soJfMP7Qd/iktshuNwsO9/THronXYbQDn/M/l9FqwcrT+6kszU0NiGxaVZX/GYVuUZenaqVx85/gahow3BjqO9RXpA0f6GoY/UjyZO7PRg1SdnGxemZg9Kc0Ym1qLsevHXU0QjEErABerzyOW/N3oMfE3Z0mce4+2DnhWlxLeCNel1GPT+uKMOXw91h04idsba20656SmYEx2D7+WkQrvO3WJtc+qinAaQoXMslEYkz2C6UxyFL3QFz6TQWqNtKyjCYA39DoDyN8Qz0nKgFQDSCKpPEbw5M3rWsqvZ4kBheyAfEG70DlqZ4O4uotce4+ODB5CTwkpBU5maFQm4y499Re7Gir4rSdKwKj8emo2fCXyYf0er3FdjxdKwAAIABJREFUjN3tNVjXVIo97TUwWOx/t4QIwMPxY/F04gSHvdjnQqq1Kkw7sg5aM3nJ3/kh8YXbW6tGU+gWdVcERpft66gjLf6zFcDVNPrDCN9QZwDMoJAlHulqWpidlUW6XkVdNmC5LCD6XhpvgtVaFVsK4ElVrxJzczdxPvjfETUS32fMH/Tg32s2YmdbNe47tRcjfvsKdxT8gu2tVbwM/l5SGb4cPRfPJk10qsHfYrXiweJ9VAZ/P5ncOtbLV3CFzADg4WFjUw53NZIO/gDwBYUYjIMg+UlPgm2zCNFC5/Lo1Be/rCt+jiQGV64IjC7f11GXSBpHBODbMfMxNziWQq+YgdjdXot7ivZAadJz1oaHRIb3RmYNeMpfbzHjuLIFv3fW40BnA04oWwVxi+QYn2B8Omq2Q1/qczFvV53Ei+XHqMS6JTLlh28bztxIJRhl14Ql7dvSXJ5FGKYFQDQAdqmJiyB5+i6HrVDEApIOFKra7wcgyARghLvvdTmS5nzSkppWACtP78PByTciyM2dUu+YC7ECeKfqJF6uyOF03TzO3QdrxlyJVK/AC/693mJGiaYLZ9QdOKlsxUlVK4p7Ouy2iW8gxCIRHogdjacTJ8JNTLZhUYgKVW14rSKXSqxhHn76WbLQO76F8I73Zqemeq0qq6RRbOITsMHfpZDO9c0GsIu0A3+NHXv9+zUnqRy/o21xWPK29c2lV9GINT8kHt+MvpJGKOYCNGYj/lq8Dz+1VHDaznjfULyechlEsN0h0KTXoFGvQaNOjTptD8o0XajR9Qi6GFS43BOr0mbg8gCibTyCpbOYcMXRDVROfIgA3B87+tFVAqz5DwC3RaR88k3jmbsJwxgAxAFoIu8R4yhoLPYVAhhFEmBaQGTtwc4GQc6PZ8dlKb5rK+gs1XRReXR/d2QWbo1MoRGKOUev2Yib8rbjUFcj310RNBGAxeHJeHn4tCFvWHQET5w9gM/qTlGJNTsopnx3e+0wKsEoW52ZKXvjTHlPea+S9Iv5DYDbafSJcRw05v1WkQY43NUYszI+Q5A7T7Or9+uuCI56QEJpY9TTJYdQwuE5dFf1QPE+NvhfQoKHL34ctwgfpc106sF/Z1s1Pqc0+Ae6KSxTg8KozABy4VCL9t8UBn8AeI9CDMbB0BjVPADUAQggCXJZQGT1750N8RT6w4krg+MKd7ZVE8109En29MfuCdfDS8qOBtKwu70WN+X9zHc3BMtdIsXKuAw8GDcGCrHgDt1QVaVVYebRDdQ2fy6PSv3ky/rie6gEo2wxIDnh4aOu7FUpCEMdBjCVRp8Yx0JjBqAXAHFVrENdjXEPxmfOodAfTqT7hs4PlXtQ2cFVqunCytP7aIRiAHxWV8R3FwTrmtBEHJ2yFH9PGOf0g7/OYsLygl+oDf4TfMM6v6gvvpdKMA54Ro58ncLgDwDvUojBOCBaW39XwVZBasjMViuKVC0fUuoPda+XH6u/OjTxJVonpLe0VODj2kJK0VyXyWrBgc4GvrshOON9Q7F13CJ8nj4HUQrielYO4bEzB6hdxe0llVkvD46+Toi3/QG2YmUHu5rupxCqDoAgN2Az3KOVANQC2EIa5GBnY+IjCeNnUegPJz6tLfrnzKDoUlrxskuP4Fh3M61wLqlW2yOoo3V8S/MOxLdj5mHnhOswxT+C7+7YzZqG01jbeJZavOtCk759ozz3N2oBKauJSn2lvLeLxtM/8cMb47hoHv4lPiJjslpQoGwm3lTIpbGBMVdEULgsCLBdUHJn4S52ayABs4CP2tnTKO8gfJ4+B/smLsaVwXF8d8euTipb8eTZg9TiTfILb/+64YyQd8SLDnY1/pVCHCWA1RTiMA6KZgJwBMAe0iAHOhuSH4nLuJxCfzjxesmhxquD4x+nVS61Wa/B0vwd6DWz+htDEeTmTmUnq6OaFhCJ9WMXYP+kxbgmNNGpyvgORK22Bzfnb6c2C+Qvk1uzAmOuFOrUPwAsj059oUzT5UEh1AcAuinEYRwU7XeL6QB+Jw0i5LoAfeYHx5/c3laVQSvelcFxWDP6StA6buhKph5Zh7PqTr67YTcKsRTXhiVhRXQaxjjJdb1DoTIZMC93M9Wv/Z3Rqau+qCum8XTNiezUVLc1VfWqSvKjf2rYCv+QX5HIOCza9T8PACDe3n6osyHmofgxKyj0hzMTfEOyRngG9NKKt7Otml0aNES3uUhhpeGe/nhl+DScvvx2fJB6hUsP/karBcsKfqE6+M8Jjq0U8uAPAKVd5i8oDP4A8BHY4O/yuHjczAKFJGCUT1BPoardV8hTcQ8kZMz8qubUbtK7As712ojpWBGdRiucS+g1G5F1dAMqep1vNjNM7olrw5JwfVgSMnxC+O6OYKw8vR//aaBXlz/Rw9dwZ8K4mGdO7W2hFpSy++PGh61rPNXQYdCSPrj1AkiA7fIfxoVJOIhZDWAGAKIp/FZ9r7wmKtUjX9W2m0qvOJDb1Vx1S9SIsHxV2zhaMfd11GGUdxCSPP1ohXR6MrEEk/0jsL6pFEYB3K5HKlLhhcVhw/CPYZPwyvBpmBUUg3C5J9/dEoy3q07ig5p8avHcJVLcGjNy6UtnD+VQC8qBcDf3nfmqVhpLo6sAbKQQh3FwXC04zwSFDYGx7t7G5QkxAdnFxWoKfeLMrKDosj3tdTTu4gZgW+NdlzEf0wIiaYV0Cb921OGW/O0wWBwrCZCKxMjwCcbsoFjMCY7FKO8gvrskWF/WF+PvZ36nOi14e1TK2jX1Z26mGJK6lQnjx39Sk5ejNRMfQNIBSATA6mYznG6gPggK5SUXhydvXt9Ueh2F/nDmqaTpwRubTtWWaqicywUAeEpk2JS5EON8Q2mFdAkbmstw36m9gr6JTyGWIt0nCFP8IzDVPwIT/cLgKWFloS/lh6ZSPFD8K9Wv7YzAmOq9HbUJQl5qBICswKjy/R31iRRCfQjgAQpxGCfAZQIwB8AvpEH8ZHLrXxNGJ75YklNFoU+ceTA+ffo39SW/dRv11D6nfjI5tmRezZ4IB+nj2kI8U3KI724AAELlHkjy8EOKVwDG+AQj3ScYwz39IRXR3n/r3H5urcKdhbtgorjEk+IVqLszYXjs3wsPt1ILyoF7otOXflpf9B2FxEcLYDhs1f8YhvMj1L8BuIw0yPzg+OPb26rGU+gPp+6LTX/6k9qil2gWpwlyc8e2cddgGNsTMCgvlB3FO9V5nMQWAfCVyeEtcYOXVAZ/mQIRck8Eyz0QKfdEqNwTiR6+SPTwYxc+UfBrRx1uzd9BteKjv0xhXRE76gohV/vrM8YnuDNf1eZPIdRrAJ6kEIdxElwnAOMBHCNtRyYS4/649CXvVuWvp9Mt7iwJH77zh6aSuTRjhss9sXX8NYh396EZ1qlZAaw8vQ/fNtArDwvYNujtmnAdwtimPLs43NWIJXk/g8La939JRWLcF5P+zPs1+S9TC8qR2yNTVq1pOEOj5n8HbGv/SgqxGCfB9TxkLoC1pEGMVgv2ttd9np2VJfjrzEY2lcy/LCCS6hRbk16DBblbUKrpohnWqYkAvJVyOfWyuA06NRaf/JnajXPMxe3rqKM++APA4ojknx1h8H9s+IT4n9uqad1G+ALY4M+cxx4LkU/Adu6UyKmeDu/S0qavyLvDrWzAMt8vZVSGb4iKZtxmvQbzczfjpFLQy5WCIhWJ8Xn6bEz2D6ca97S6A0tO0h+YmP/Z2VaNW/J3UP8czw6KLV3bcHYB1aAcyW9v/pnCmX8AqALwMYU4jJOxRwJQD+A9GoG2tlbd/LfYcdTK73Llyco9yisDw8fHuntTLfDfZdTj+pNb2Q2Cg6AQS/HdmPlI8w6kGve4sgUrinZT3ZTG2GxsLsOygl+o3/I40S+s87aI4WOpBuXIvbGj7/y1s45WicsnAbApK+ZP7LUV+WVQqDrVYzKIcnuaNlPoD+deqSwoXRo2coG/TEH1eJHKZMD1J7dif0c9zbBOzUfqhnUZVyHG3Ztq3J1t1XioeL+wz485mK/qT+PeU3upF3RK9PDVzwpPGHt74S7BX72ZHZel2NtW+wGl4445AAS/d4rhBxeVAC/EANsywFWkgWq1PX4rotOMJ1WtB8i7xa2D3Q0VyyJT1YXq9jk0TwaYrBb82FKBEV4BSPaksTnY+XlJ3TAzMAabm8uhtdCbVi5Wd8AMK6azok3E3qnOw7Mlh6gnVGFyD/OyqJGXv1h69BTl0JwIVEh/OtjVSOvp/xbYqrMyzJ/YKwEAgDwASwAQH2pvNWgv/1vClI/2d1RTu4yHK8dVLUdujRzhcaqnYyrNNzaz1YofWyvgJZFhvF8YxcjOK9BNgan+kdjUXE71CfNIVxOC3Nwx1pfV6h8Kk9WCR8/8jvc5OLbpL5Nb744atfililzBlhQ/1/0xo6etby57mdLS0mYAr9MIxDgneyYAFgC1AJaSBlKZDGIvieiyUk335+Td4l6Bqn3PbZEpSYU97ek041ph2yndbtBiRlC0y90FPxThCk+M9gnGluZyWCg+a+7tqEOypz9GeAVQi+kKVCYDbi3YgR9bKqjH9pTIsCIq7b43qk78h3pwDmQD4n3A8VptjweFcBoAC8F2/jP9sGcCAAClAMbCVo2KSHmvMuqemPSu48qWY+Td4l5BT/vm2yJTJhT2tA+jHTtP1YbjyhbMC46HXGzvL6njiffwRbyHL35uq6KWAlgB7GyrwljfUMR7+FKK6tya9BrccHIbcjjY1OomFmNFdPoL79bkvUk9OEfCw5K/29VRO4FSuOcAbKcUi3FSfDwyxgIoBkBcSSVa4WW8Ljw1+t2qYw5zreWi0MTcH1sqqN0eeK4070B8N2Y+IhVeXIR3Oh/VFODZ0sNUY3pL3bBt3DXUTx04mzxVK27O24FWA/1VPKlIjOVRqR98Wlf0IPXgHHkgfszsL2tP7eqlc+zxNIAxAKieQmKcDx+Pi0rYNgXOIQ2kMhkknhLJwiqt8gPybtnHWU3XZ8dD4heVabqpL9y3GrRY31yGDJ9gxLCqgZc03i8MeouZ6rFKg8WMA50NuDlyBNzYbMwF/afhDJYX7oLKZKAeWyIS4S9Roz5fXVd0H/XgHMmOy1L83FF2olGncaMQzgrgRgCVFGIxTo6vd6gc2NaniCu0VGmVQbdGpLgX9rQTXz9sD/8CUKrp/qQgLOnqs+pOuhVqAPSaTVjfXAqL1Yop/hEQsX0B/bosMAqNeg0Ke9qpxewy6uApkVEvQOTo9BYzHj97AK9W5ILmqZg+EpEIt0eO/OzT+lN3Uw/OIW+5ZPehzoZkSuH+A+BtSrEYJ8fn6DARwGFQqEUQKFNYloeljX6z7rhDHPMBACsgWhASn/dza9Vortq4MjgOH6bNgK9UzlUTTsFkteD2gp34pa2GWsxwuSdOXXY7tXiOrlqrwvKCX6gmWueSiERYEZ321eraouWcNMCRu2NG3/ZlXdEaSrv+uwGMAIWaK4xr4PNO0mMAPqIRqMOoEx9Q1zvEMZ8+IsA6vrVq7IKQ+EKu2tjZVo2ZRzfgVE8HV004BalIjM9HzcFEiscpm/QalGu6qcVzZDvbqjHz2AbOBn+pSIzlkamfOdrg/2hyZtDutqrPKFaTfBZs8GcGge9LyZ8B0EQj0LGu5rBbIkd8RSOWvWQDlq2tVWOuC03i7PL6Kq0Kc3M24ZPaIlaxrh/uElvJYJrH+Br0amqxHJHOYsLTJYdwa/4OdBu5qUQrF0uwImbUvz9zsGl/ACjsattXrVXRWPcHgCNg9f6ZQeI7AVACWEkr2JbmittXxox2iIs++ogA66aW8mk3R4zYxtV6jM5iwlMlB3HDya1o0gu+Eipv/GRyrM+4ClGUTlFwsc7tKAp72jHj6Aasri3kLPH0lMhwd/SoZz+uKXiMoyY4sywq9ZU9bbVplML1AlgGgO7lCYzT4zsBAGx1qn+iEUhjNop+aqva+HTKdIfbffVd49mFt0emrpFwuGlvf0c9ph9Zh83N5Zy14egiFF7YMHYhAmUK4liuWA/AbLXineo8zM3ZiBIOr6/2k8mt98WMfvCDmvyXOGuEIw8kZMzc2Fz2BMXE6GnYaqwwzKAIZYt4CICiP34lNj0gsu5AZ0MMjVj2dk9s+htr6k8/xvVVszeEDcPrKdPZBsGLOKFswTUntqLXPLSj1HHuPjg+7RbB/IDZQ41WhftP/Yqj3VRW9S4qXO5pviV6+M1vlp/8gdOGOPBocmbQT/WVtWW9Xe6UQv4O4ArYKq0yzKAI5aCyBrYMlrhMMADUant8bwxPTi9WdzjcG8QJZcvue2JG1VVpVQt7zSbOxo/T6k5831SCCLkXUlj52j+JUHhhtE8QtjRXDKlk8EPxGZjk53ATUUNislrwYW0B7ircjSott5VnR3gG6G6LGnnZq+W5uzhtiCNySApOqlpDKYVTA7gSQCeleIyLEUoCAAAlAKJhKxVMrFTTlfKXmPTm48qWEzTi2VOusiXvr4kZhxp71Uu7TXrOvkYasxE/tVbipKoVE/zC4CdjswHnSvDwRYy7D7a3Vg3qdUmefliVOgNSkRBW2Lh1XNmCW/J34IemUupX+J5vkl94xw3ho0Zmlx04w2lDHFkaOfybbS1VWRRDPgzAoU4/McIitBlKbwD5ABJoBAuRe5hvDB2e/n5t3mka8ewte8SE5B8bq3LzVG2cl/Vzl0jxWMI4PBA7GjIXGLgG44v6Yjxx9gAGcj97kJs7do6/1unX/5UmPV4sO4avGk4P6PNCal5wXMnypPCMJUeOaDlvjAP3xoy+7Yv6U2sMFmr79PbAVk3VdXeaMsSElgAAwFQAv4HS7ESGT3DX8pBx4Q+V7+DmHBLHXhs+1fvXjoacX9qrR9ijvRSvALwyfBq73/48O9qq8NiZA2ju5xTFFP8IfJQ2k9opAiGyWK3Y0FyG7LIjaNFzfxu3TCTG0sgRP35df/pakYMOdo8kj09YV3u6pFGnkVIKqQIwCrbbVRlmyISYAADAS7DtbKXiqpD4Yz+3Vk2iFY8Pt0eOXLe26ewSo8U+e33mBscie9hkJHv626U9R6A2GfFDcyl+bq1EqaYbvWYjAmQKjPcNw+LwYbgiMJrvLnLqUFcjnis9jAJVm13aC3RTWG8LT338nZoTDnOj3/myU1PdttW3NxxXtgRRDHsTgHUU4zEuSqgJgBS2MsHjaQVcGjH827WNJbfSiseHv8aOuX9dU8n7bQatXebopSIxbokcgacSJyDYjdamZcbRVPR246XyHPzYUmG3Nod7+uuvj0y66uXS3L12a5QDc4Pj8n9pq6ZZ7ns1gHspxmNcmFATAAAYCSAXgAeNYDKRGHdEjXzss7pT/6YRjy/PJU2Z/GNr6a5CVbvd5pm9pW54OH4s/hKdBg+JzF7NMjxrM2jxZuVxfF1/mvMNfueaHRhTfVX4sEkPn9rr0GVtF4cnb1zfVHodxZBFsN2h4pD7IBjhEXICANiOBX5HK5iXVGZdFpV63QfV+VtoxeTDW1GT3Q8a23Zvaa2Yao8NWH0CZQrcFZ2G+2JHw0dKq4IpIzTtBi0+rCnAJ3VF4LoexbkUYimWhCf/sKbh9I12a5QjK6JTn/uy/vTzFKtBamCbEXXIExCMMAk9AQCADwFQu9s7UuFlui5k2GhHPRlwrr/Fjc1e03jmH+0GrV2/jgEyBVZEp+He2HRWSMiJtBm0+KimAKtri6Cz2G/gB4B4dx/jNZFJt77tgMV9znd/dPrSrxvPfKsxG2n+XC4D8DXFeAzjEAmAHMABUNwPkOYd1LPAf0Tsq7UHuatVaifPJI6fsq2temeBqs3b3m37yeS4JyYdd0alIojtEXBYVb1KrKopwHeNZ6Gnd0xtwOYExVbOCo2f+njx/ma7N07ZyoTx49c2FB9p1ffSrN/xNWwJAMNQ5QgJAGArEHQSALWdtNP8I+pnjU6Oz96/376POhw4nvkX2VtNv2/c0Fy2kOI54wGTiyVYFJqIB2LHIM070O7tM0NztLsJn9QWYVtrJS8XFwXIFNbbIlM+frc67367N86BlfETQ7e3llaVaaiV+QWAMgCZAHooxmQYAI6TAADAXADbQfECowWhiUe2tVRMoRWPb48njL9lc3PZ52W93bzNy08LiMQ90aNwZXAcxBxebMQMjc5iwvqmMqyuLcQZNX8VZCf7RXTMDYqZk11+9CRvnaAoOy5Lsb3rbE2OspnKfSbneA3Ak5RjMgwAx0oAAOCfALJpBrwhbNi2Dc1lC2nG5NNbqXMDfmsv27uttWoMn9fRxrr74OaIEbgxIhnRCruvTjDnOdXTgbWNZ7G+qRQdRh1v/fCSyHBDePLGL1csXiLKznaKC2yys7KkvxaWlf3e2RDHURN/A/A2R7EZF+ZoCYAYwM+wXYBBhQjATREj1q5tPHszrZhCsDJ+7N3bWyrf53M2AADEIhGm+UdiacRwLAxJgLuEVjE05lI6jDpsbCrD2sazKOxp57s7mOIf0TkvNOb6584e3c93X2jJBsQHg2KK9rTXjuS4KT6TAHcA42Bbiu0FUANbyXaHrMzI/I+jJQAAEAhbfYB4WgHFIhHuiBz52Zf1xXfTiikErw2f6p2rbNmytbVqBh+bu87nLXXDotBEXBuahGkBES5xWY699ZqN2N1ei43NZdjdXgODnSpH9ifIzd26JGL4N6uWXbPcWZ76+1wZHJezs62a2gblS3gEwDt2aguwDfj/hK3yoOd5f9cI4F0A74PVJXBYjpgAALYiQYcA+NEKKBWJcVtkyutf1hc/QSumUDyRNG7R7rbaNSeVrZxfKjRQ/jI5rgyOx4KQeFwRGA25WEgXUzoWpUmPX9pqsLW1Er+219n9CN/FiADMDo6tnh4aPv+5U0ed7vz6otDEfT+2VGTZuVl7JQFXAvgewKVutSoEsAhANdcdYuhz1AQAAGYC2AGAWmk6mViMuyJT//FxXdELtGIKhRUQ3RmZtmpHe9U9zXqNoB69vaQyzA6KxdygOFweGIkQNyrFH51aVa8S+zrrsbO1Gge66gXxpH+uFK9A3aKw+KdfLT/ulGvXN4QP27ShqexanprnOglYAuBb2EqyD0QjgCzYTiwwDsSREwAAWA7gC5oBFWIpbo8aufKT2sL3aMYVivczZkccaK7ZvKWlYgIfRwYHIs7dB5cHRuHygCjMCIyGN6s6iE6jDgc6G/BbZz32d9SjRqviu0sX5CeTW+cGx/10pVv4Tcur9/O325BDd0SO/HJNw+llPC+APwXgVQ7i3gBgLQY++PdpATADgMMXWHMljp4AAMAroHxMxksqs94emXL3hzWFn9OMKyTPJkxYsK+r/otDXY3BfPelP3KxBGN9QzDeNwzjfUOR6RuKULnzzxBU9SqRq2zBCWULcpQtONXTDnuWfR4sN7EYs4PjTk8KDrnBGaf7+9wemfLhfxrP3ieAr4UVto2BNGcCBvvkfz42E+BgnCEBEMF2NeZimkE9JTLrzZEpj3xaW/guzbhC83BCxt/2ttc9X6RqP3+Tj2BFKbww3i8MmT4hSPUOxAivAIddNrACqNWqUKLpwqmedhxXtuCEshXtBsfYVyUCkBUY3TjVN+LuFyuPbee7P1y6OTzl63XNZ2/n83jteWgmATcC+A+GPvj3YUmAA3GGBACwHVP5FcAkqkElUtwemfr86tqCf9KMKzRWQHRXdNobv7bXPlStVTnkdX/+MjlSvAIx3NMfKV4BiPfwRbTCG9HuXlCI+T962GMyoE7Xg1ptD8o03SjVdOGMuhOlmi5ozEa+uzck43xDe2YERj3+euWJj/nuC9euDxu2YVNz2fWCGfr/xwrbngCSBxVag38flgQ4CGdJAAAgBMBRUDweCNg2Bt4cMeLNr+tP/51mXCFalZrldVzZ+tHejrqbarU9/I+alAS5uSNa4Y0ohRciFV4IkCng76aAv1QOf5kC/jLbr303HCokkn6TBo3ZCKPFAgus6Dbq0WXUocuoR5dRj26T7fedBh3qdD2o0/agXqeG0qS313+Xc6N9gjWXB0S+8W51/vMiFzgLfm1o0t7NLeUz+O5HP0iSANqDfx+WBDB2lwKgDbYfCGofUpHYekdUyqd2/Z/waHVmpsey6JFfxrp7G0H5c+loH15SmdVPJre6S6S894XvjwzfEPWTCRNetWZnC+oUCVeyAfH84PgcCOBzP4APC4CVg/wv3giAy5/xBgDDBtknhiEyFkA3KH8zi0Ui69KIEWvt+j/h2Zr0OZ4rotO+Hubhpwf/b3Dsg6eP8X6hykfiMv5hda4Zw35lZ2VJZwXFFIODz2e43NOqEHOSUA4mCbgJ3A7+fR8sCWDsbhJst2dR/4ZeFJr4qz3/I0Jgzc4WP56Q+cRU/4hOkQAGJPbB/YdMJLZmBUY3/yN54qNwMdmpqW5XBEaVgYPPa7Cbu/XYlKXWreMWWT0kMq6+fpcqZrYY9hn8+z6aYSvexjB2Mwu2EpXUv6HnB8fnZGdlOc0a+WA8lTThrhmB0XVuYjHvgxT7oP/hK5VbrglNyn9+xOTL4YKyE6eETPQNawYHn9sgN3fr4Sk3WTtm32ftmH2fdVPmQj5mAuz15H/+B5sJYOzuagAGcPANPdk/ouHR5Mwge/5nhOTN1Okjb44Y8VOUwsvl9wk4w8dIr0DdXVGpG1elzYn+0xfbRTwcN2bMCM8ADTj4/PpI3ay/Trzhv4N/34edZwLs/eR//gebCRAYV1jTuwm2Xa7Ui82P9A5Uz/KLnPxeXeEp2rEdxb6sLMWmamX28e6WFTnKpkABnZFmLsFDIsX0gMiqMd4hb7xamfuxK+zov5i/xo9avKGxcm2zXkP9fcJb6oaNYxcg0zf0gn+/v6Met+Tv4OIOByuAhwG8B2ApgG/AwfvgILHTAQLiCgkAAKwA8Ak4+P9GKrzMN0aMuPGtyuMbacd2NM8kTBhXpuvOzle2zi7VdLP+FL1fAAAgAElEQVT6vQIkFokwzjdUM84n9Oc03+Cn7i/aU8l3n/h2R3TaMxsaS17QmI3U3x/cJVKsz1iAyf7h/f47jpOA/wC4GfwP/n1YEiAQrpIAALY1MU4u0PCRullvjBj+1Ke1Ra9xEd/RWAHR08PGLytWdT5yrLsptUXf6xLHxoRsmKefMdMv7NAor8Dnnyk5tI/v/gjFTRHD121oKltistK/TEkuluC7MfORFRg1oH/PYRIgRCwJEABXSgAA4D4AHwCgPiBJRWIsDk/+fm3j2aW0Yzsy6+LFkufzGm4+pW5/IEfZPK5GqxLKU4jTS/TwNY71CT052iv4/WfKD33nylP859uXlSV9/0z9/k0t5VO5iO8ukeKb0VfiisDBbalwsSSAXSDEM1dLAADgLgCrwdF02Pzg+BMTPGOnZTvpTWgkjmf+Rba+8+RfSrXdy8+oO9JK1F1yNiLRIxOJMconSD3CMyBnpHfAe8+WHP6R7z4J0aPxU2IPdlYeO6ZsvvCiPCFvqRu+z5iPSX79T/tfjIslAWwmgEeumAAAtg0xXwPgpO79aJ8g5ZyA+Kw3qnPzuYjvLF5MmjqpVNt5b5W2Z06BqjVMZTK46vfjkEUoPK0ZPiF18R4+2zMDQ99dfmLXWb77JGQPxY9esrmp4j91OjUnP/sBMgXWj12AMT5kl2yyJICxB1d+w70KwAYACi6CB8gUlkVhiY99WVf8Nhfxnc2PU6/2Lm7vWFKj7bmmVN01Kb+nLbDLqHPl788LCnHzsI7wCmiOVHjmBsk9Nt4RMH7tuBOfOOZtQna2LCr1k3VNJXdrzdwMqsFu7tiYuRCpXoFU4gkpCZCIRHhv5BXIU7XiszpODj2x5QAeuPob7GwAWwBwcpesVCTGNaGJ29KayxZl24pzMAP0S/ptnr/1lixt0KoXNuo1Y6p7leGVWqXMlY4ZysUSJHv662LdfWrCFZ7HE9291z+RHrlNtH69me++OZKH48b4nVJ3HtnTXjuCqzYiFV7YnLkQiR5+VOMKIQmQiET4IHUGloQnwwrg8TO/44v6Yi6aYjMBdubqCQAATAPwMwAfrhqY6h/ROCE4dsLbpUcauGrDFXw5ZvawU8quxS16TVabQZtcr1OHVWuVcke9Tvdc/jIFEjx81WFyj6ZQN/fiUDfPXdN94zbMz1vfxnffHNkj8WOn72it3nlW08lJkg8Ase4++HHc1YhWeHMSf19HHW7N38lLEnDu4N+HJQHOgyUANuMA7ARAZ+7uAuLcfQxXhyTd9F7Nyc1cteGKjmf+xWOn5vTMVp36ik6DPq3bpI/tNOpCWvUarzqdWqq3COdh2Ufqhki5lzFY7q4MkCma/WWKan+ZIi/Rw3vX/cFZR0X7s/mf63UiK2LSsjc0lf2j26jn9H3OR+qGjWMXYqxvCGdt8JEEXGjw72MF8MTZA/icm+UAlgTYCUsA/mcYgO0AkrhqwF0ixaLQxB9GNJYszWZLApxrnvOY59qGnImdBkOyyqRP0pqMUSqzMUpjNgZqzSZfrdmk0FpMcq3JJNNYjJIek0FsBaA2GdHfuXC5WAJ3iRQSkRieEqnFSyIzeUhlBneRVC+XSHReEjelt9StWSGRNPnIZDU+EvfSGJn36WUjvQtE69cb7PcZcE0Px43xK9F07/2lvWasxU5LRs6WBPQ3+PdhSYDjYwnA/xcE254ATs4G9xnvG9qe5R8zm50SEB5rVrZU6dny37nc8q7egPzuBp8rIhI6AuWSnr4/9/v5oy5+esj054G49Jt2ttZ8VdGrlNu7bV+pHBvGLnD4JGAgg38flgQ4NpYA/JkcwOcAbuGyER+pm/Wa0MSP1zScuZ/LdhjGFfyweLFk/cGC9T+2VFxr4HHZx0fqhg391P2ngcuNgYMZ/PtYATx19iA+rSui3h+w0wGcYlXZ/swMoG+dPourRvQWs6igp338ZP/w5YvCh23O7W5WctUWwzizRxMyp60pKij4taNuDN+nRPQWM35sqcD0gEhEKLw4aaO0twtbWspB+/86lMEfsD1FzgyKQbdJjxPKVqp9AuAF4AbYlmfZhljKWAJwcfsB1AKYDw4/T/U6tV+9tuevN0eMUJ9QtR7lqh2GcUZ3RKa89V1jyeoarYqTeh5DwWUSsKu9BssKfgHtza1DHfz7sCTAMbElgEubBVvBIF8uGxGLRJgbFJufFhI8743i3GYu22IYR/dIwoRxR7vqth7pagrjuy8XQ3tPwM+tVbircBeMlC8ukohEWJU6E4vDhxHH4ng5gO0JoIzNAFxaJYCtsCUCnB0TtAIo7+0Oq1QpH1kcMVyRr2rdy1VbDOOoslNT3UKk/uvXNZ35d2WvkpuD95ToLWb81FKJywIjES73JIrlCIM/wPlMgDeA62F7P+6kHdwVsRmAgfMG8AVsU1Gcm+Ab1nKZX/i1b9bkHbFHewwjdA/Epd+0r6Ph09M9HdwsrnOEdGPgttZKrCjczcngTzLt3x8rgGdKDmF1bSH12GAbA6lhCcDgiAA8BOANcHSR0LncJVIsDE3YM88tYuFydrsg46KeSpoeXKSq/2lHW/Ukvjf5DdVQkwBHHPz7sCRA+NgSwOAdA3AYwDwAZPN6l2CyWlDc05Fw1qj6243hI+pzlc0FXLbHMEJzZ1Tq6z80nd6Yp2qLsdPQXwVgE4CxNIMOZTlga2sl7uZo8P8wbSYWczj4A7anJZXJgK2tlVyE9wJwLdhyABE2AzB00QDWA5hoj8YkIhFmBMacHu0efOObdcc5qbrBMELx1/iMq491NX2W291Mdq/u4GwEsAJAN4BXATxBuwFfqRwbMxcgw6f/jYE/tVTgL0V7OBv8bwijs+bfny0tFbinaE+/VTUpYBsDCbAEgIwUwIvg4I3iYjwkUuvMoJj9af5Bi185m9Nhr3YZxh6eSs4cUdDduX5XW00axwPHufSw/Qy/B9vMdZ8XATxDu7FLLQdwOfhzPe3f56eWCtzN/eDfhy0HDBFLAOi4FcAqcHij4PnC5J7meSHxayaFyO+558QJx78Oj3Fpj0RNDqgytX23p71mjtpktOf7UjmAGwGcvMjf23Um4Mc/Bn/aA6cTPvmfj80EDAFLAOiJBbAGwGX2bHSEZ4BubnB09rvVBa/Zs12GoSEbEFdFpry5p6PuwQadWmrn5jcBuAu2Kf/+2GUmgD35E2MzAYPEEgC6JLA9LWTDDqcEzjXJP7x5nG/ofR9U52+xZ7sMM1T3RKc/9ntn/b/OaDo97Nx0D4C/AfhsEK/hdCagRtvDyVOzRCTCR2kzcb3zPvmfj80EDAJLALgxDsB/AAy3Z6NikQhT/CPqM3xDHnm/Km+DPdtmmIG6OybtqaNdzU8W9bTbbcnsHL8DWAbbbv/B4iQJ8Ja6QWs2scGfHpYEDBBLALjjDtsbxoOw8+dZBGCiX3j7WJ+wRz+szVtjz7YZ5mIejBvz8KGuxn+dVLbyMfDrYJuZexO2C7+GipPlANpcaNr/YthywACwBIB7cwB8CSCCj8YzfEM7J/mHPfZRdcGXfLTPMHdFjXr8iLLxOR4r+BUCuB0ArToaLwB4llIs6tjg/18sCbgElgDYRxCAtwDcxlcHJviGtY3zC8n+sKbwQ776wLiO1ZmZsqOt+pcPdzY+UKLpdOepG0YAL/3xYaIcm5PlAFISkQgfp83CdWFJnLfF1YkFythyQD9YAmBfswF8BCCRrw6keAZoxvmFfpPoJ/57dnGxmq9+MM7piYRpMVW9bR8c6m6Yx8Ou/nMdA3AP6D31X4igkgCpSIyP0maywf/PWBJwESwBsD93AP+EbReyXU8KnCvYzd0yzT/ytzi554Nv1xYU89UPxjk8Ep85p1jd8ebhzoY0tdmu5/jPpwTwNICPAdhjdBJEEuAMg7+bWIy5QXFclQ5mScAFsASAP6MAfAJgEp+dkInFmOgbVp/uE5T9YU3h53z2hXE890Sn31+sbn/qSHdTlAAu6tkG4D4A9XZul9c9AbSv9O0PV7UK3MRifJE+B/OC4/FSeQ7eqjpBNf4f2J6A87AEgF8SAA/AtrOY97vNR/sEKUd5Ba9Pcvd/JrviMPXLvBnn8Fj0uLRao/Kl46rWuZW9Sjnf/YHtSN8DAHbw2AdeZgKkIjE+TpuJax38yf/L9Lm4Mjjuv3/2r7KjeK86j2o7f2AzAedgCYAwRMN2xfASCOBr4iWRYbJfRPVwb7/3gqoL3s22z1QqI2DZqaleld3Wp85oOpblK9siaD8BDpEOwNuwJdC9PPcFsHMSYM/Bn6vd/hca/PuwJIB7vA82zP8zHrY3tKl8d6RPqNzDlOETfDTRy+eZVVVFv/PdH8a+/paUubhC3f3Ewc6GjA6DTsx3f86xDcBKAJwsGBOwy3KAPaf9ubqW+Nxp/4thywHcYgmA8IgALIXtaSKa5778l1gkwhjvoK6R3kFbI7w8X3695HgJ331iuPH3uIzLq3Wav+f3tM0s03Qp+O7PeY7DtoH2AN8d6QenMwHO/uR/PjYTwB2WAAiXO4BHYXsj4auAygVJRCKM8g7qHuEZsCfS3ef1f1fm5vLdJ4bMQ3FjFtVp1Q8Vqzsnl/J3br8/jbDt7v8GjrEktQHA9bSDSkVirB41C9eEcn+SmMsNfwMd/PuwJIAbLAEQvnDY1jiXARDSFCwA2zdQqnegOsUz8LdoT+9/v1VxYh/ffWIuzQqI7osZfWuDXn3fKVVbZpVW5cZ3ny5CDduy2GsANDz3ZaCuAbAOANXPqasO/n1YEkAfSwAcx2jYapkvgoC/bsM8/XXDvfwKw+WeW4I8PD555WxOB999YmyeTB6f0KLV3l+v7ZlXrO5IbuS3UM+l9MJWNOs1AG0892Uw2OB/ESSDf5/ssiN4vzqfXqf+xyWTAMEOJMxFjQLwHIAbIPCvn1QkxkjvAHWqd9CJOLn3ugz3uM+XFK838N0vV5Edl6VosXTd0GrQ3Fyp7Zl4StUWIJDd+/0xAPgKwL9ge1N2JFcB2AiA6tFIiUiED9Nm4gY73OrH5Ya/z0fNwfyQi2/4G6gXy4/h7aqTFHr1Jy63MVDQAwjTr7GwzQgsgIN8HQNkCkuqd2B9lML7UIhcsTlREv7TQ+U79Hz3y1k8GTPNX2ntubHDqJtfpVNOKu5pD+410y6BzxkjbJdmvQigjue+DMW1sD35U63uac8nfy4Hf9In//OxmQA6HGLgYPqVCVsicBUc7OvpKZFZh3n6KaPdfc4GubnvC5S6ff9m1clCvvvlKB5LGpfVptUuaTFoptTpepJKNV2eRovgn/DPp4dtY98rEN6RvoHibPD/ZNQsLGKD/wWxJICcQw0YTL/Gw3ZP+UIIcLPgQEUqvEwJHr6NoW7uxf5u7rk+EuneieOSDi1Zv57kDneH9lbUZPdaiXaG0mK6osuoy2zWaVLKe7uD2w1ah/06w1az/2MA7wJo4rkvJK4D8D3Y4P8nAznnT4olAWRYAuB8hsFWIGUZAE9+u0KHp0RmjVF494YrPJsCZe4l/jL5MQ83ya8pfpKce06cMPLdP1reSE/3bFBKLlNajDO6Dbqx7UbtsGZdb3C1TqlwwCf7i2mEbdD/GICK576QYoP/Rdhj8O/DkoChYwmA8/IHcDeABwFE8dwXTsjEYoS6eZqC3BRqf5miw0cib/CWSSs8JLKz3hJ5nlRkzXmt8oSS7372eTptYqharZ/UazFl9JpMw3vMxjiVURfeYdQHtBl6PdoMWomF/wt1uHIWwJsA/gPbtL+jux7AWrDB/0/sOfj3+WfpEXxQw5KAwWIJgPOTwXZi4BHYlglcipdUZvWRys3eEjejt1SmdZdINQqxtMddLO2Wi8Udcom0SyYSd1msFotcJNWbgS4AcJdKVWaLRQ0AwW5uyjaDwRcARCL46c0WD7EYIovVGmSymCUSiUSqNRv9TWZroM5iCui1mPx0ZpO3xmz00JhNCpVJL1OZDBKt42zIo8UMYCuADwHsAeAs2Q0b/C+Cj8G/D0sCBo8lAK5lGmwzAotA+agSw5yjGcBnsF137Yg7+vtzA4DvwMHg/+moWbjaDoP/ttZKrHCywb8PSwIGhyUArskPtpsH7wWQwXNfGOdxAsB7sD0dO83ejHNw8uQvEYnwUdpMXG+Hc/5cDf4ykW3wp3HOnxSrEzBwLAFgxgG4E7YLiPx47gvjeOpgW9dfA9s6v7NaDNuTP9XqibI/pv0d/cmfVpEfWthMwMCwBIDp4w7bE86dsH2Ds+8N5mJ6AGyCbdDfD8e4nIfEPAA/gQ3+fyLEwb8PSwIujb3JMxcSB9sTzw2wbRxk3yeMGcBe2Ir2bIKtVr8riAOQD8CXZlA2+NsHSwL6x97YmUuJhS0RuAHARLDvGVdigG3Q3wxgCxzrUh5avgJwB82AMpEYn6bPxsKQBJphL8gV1vwv5R+lh7GqpoCL0A6fBLA3c2YwomBbJlgMYDIcuOIgc1Fa2Ab99QB+hK1in6vyAtAOiidm2IY/frxQfgzvsI2Bf8ISAGaoIgHMBzAHwEzYCg8xjqkWwC4A2/74VctvdwRjLoCdtIKxJ39+sZmAP2MJAEODBMAE2N4w5/zxewmvPWL6owHwG2yD/S9w7t37JO4E8DmNQBKRCJ+nz7HL4P9zaxXuKtzFBv8LYEnA/0d1VyvjsswAjvzxkQ3bbMBM/G92gPt3PaY/RgB5APbBNugfgnOU4+UatdKNZqsVZZouWuEuisvB/3MHH/wB4PnkKQDARRIQAduJmCw4UBLAZgAYewiDbc/AlD9+zQSg4LVHzq0bwOE/Pg4CyIXr7Nqn6TLYZkqoeSZpAv4Wn0kz5H9xPfhf5eCD/7nYTIANSwAYPrgBGIv/nxRE8tojx2UAUAzbUbUc2Ab803D+s/n2IIPt5APVI4DPJk3EI/FjaYZkg/8QPFd6GB+6eBLAEgBGKPwBpAIY+cevmQDSAXjz2SmBUQEogm3APw1b6d3jAHR8dsrJvQrgCdpBn0qcgMcS6MwE7GqvwbKCX6C3mKnE6+PMg38fVz8dwBIARshEsBViSYMtKUiDbT9BHGzLCs74/WsEUAnb00MpgPI/fl8GoIbHfrkqPwAnAVAfBZ9LmoiHCWcC2JM/OVeeCXDGN1DGNchhK1J0/kc8gBgAgQA8eevdhVlhezJo/OOj4Y9f6//4fTlsg7zL3RsscKMA/A4O7sp4btgkPBw3tPu4trdW4U42+FPhqkkASwAYZ6YAEABbMhBwzu/7PnxhSyQ8/vj3Hvhf0Rcv/O/WNw/8/010527n7oFtwNbAtvlO+cev5/5eCaAVtsHfGW/JcwXjAOyGQJIALgf/z9JnY4EdjisKjSsmASwBYBiGGZgMAHtgSySpGszpALbmzx1X2xPAirUwDMMMTDNsswCLYbs9k5oDnQ2QicWY7B/R779jgz+3Lg+IgsFixtHuZtqhvWC7T2U7BHSnBksAGIZhBo63JICrwd92P8EsLLLDzYSO4PJA10kCWALAMAwzOJwmAW5iCSb7h/+/P9/dXsvZ4P9x2ixcF5ZENa6jc5UkgCUADMMwg8dZEvD7eUnA7vZa3FGwkw3+duYKSQBLABiGYYaG8yRAbTaywZ9Hzp4EsFMADMMwZDg7IigViWFiR/1492zpYXzkhEcE2QwAwzAMmUbYblmkPhNggZVmOLbhb4hmBEZzNRPgDWAJeJoJYAkAwzAMOc6WA2hh0/5knHE5gCUADMMwdAg2CWCDPx3OlgSwBIBhGIYewSUBtmn/mbg+bBjfXXEKzpQEsASAYRiGLsEkAWzw54azJAEsAWAYhqGP9ySADf7ccoYkgCUADMMw3OAtCWCDv31cHhgFvcWMYw6aBLAEgGEYhjt2TwLY4G9fjpwEsASAYRiGW3ZLAtjgzw9HTQJYAsAwDMM9zpMANvjzyxGTADHNYAzDMMxF5QGYC6Cbi+CLQhPZ4M+z54ZNwj0x6VyEDoUtgaT6BWYzAAzDMPbDWdngM+pOiEUiTPWPoBmWGQQRgJlBMVzNBFAvG8wSAIZhGPvibDngYFcjSwIEwFGWA1gCwDAMY38sCXByjpAEsASAYRiGHywJcHKXBUZBaTLghLKFdmgqSQBLABiGYfjTDOBX2NZ2FTQDH+xqhFQkxhSWBPBGBGBGUAy6TXqcULbSDu8F4FoAPwHoHEoAlgAwDMPwi7ONgQe6GthMAM/6NgZyNBPgDWABgHUANIN9MUsAGIZh+MeWA5xY30wAR0mAP4AsAGsBGAbzQpYAMAzDCANLApwYx8sBEQAyYJsJsAz0RSwBYBiGEQ62J8CJ9S0HcJQEDAMQAuDngb6AJQAMwzDCwvYEODGOk4BxAEoBnBrIP2YJAMMwjPCw5QAnxnESMBO2pYBLlpxmdwEwDMMIUx6AWRjiEa/+vFqRizcqj9MOywyS2WrlIqwfbAmA7FL/kM0AMAzDCBenewIkbE8AL6wAHjvzG76sL+aqiUgAZgC/9fePWALAMAwjbJztCTjI9gTYnRXAE2cPcDn495kM20zARWeQWALAMAwjfJzuCRCxJMAu+gb/z+sGtEePlBRAFGxJwAWxBIBhGMYxcJYEHGJJAOfsPPj3SQFwFEDFhf6SJQAMwzCOg7M9AYfYngDO2GHNvz8ZAD7BBQoEsQSAYRjGsXC6J4DNBNBlxzX/iwkBcBYXqA3AEgCGYRjHw5YDHABP0/4XkgRg9fl/yBIAhmEYx8SSAAET0OAPAGEADgCoOvcPWQLAMAzjuFgSIEACG/z7hAL/196dxcZ1VgEc/zt20knq7KUtOEsbStXwwGqQQK2KyqaWLjxAVQmo2heQgC50Ey+VCk8klUBpAUFBJYgWmrIkaSUEaSBO2qYtSRPSxW4SkmZxnNhxEttZJvEyl4fxVMa1je17v7nX4/9PupIz45w7vi/nfOc7cy9PDHzBAkCSJragg4HeJ2BsIuDe9Ab+RvJ+4GmgvfSCBYAkTXwBBwPtBIxWBgb+RlIFHAMaSi9YAEhSZbATkKIIuKdxIysDJP+FuZl8vW4pWzpb44a6GPhp6R8WAJJUOewEpKC08g+R/BfkallbfxNfuvBSnjq8k5O93XHCXQA8Q7FYtACQpApjJ6CMClHEvU2bgq38n63/Mounz6Kmagq56hrWte+PG7YDWA8WAJJUiewElEEEfH/nC0FX/ounz3rntaW181jZ3Ei+0Bsn9CzgF2ABIEmVyq8IBhQBDzRt4vGAyf+SAckfoKZqCu3d+bizABcCjwJ5CwBJqlxuBwRQiCLuadrIbw81Jh57YW4mzwyR/EsW5Gby63j3F6gCXgR2WQBIUmVzOyBBpYG/EMl/uJX/QPOn5Xi2bS/t3fk4pzoIrLcAkKTKF7QTMFmKgDRX/gO1defZfKIlzumqgMctACRpcmgB/oFFwLiUkv/vDjUlHnthbiZr62/8n4G/keSqa3gi3ueYCSybEieCJGlC2QpcAxxPOvCyPVtYvndr0mEzodT2D5H8F+RqWTOG5A/w4VnvYXp1TZzTzgEusAMgSZOL2wFjUIgivpeBtv9A1VVVNBxr5uDZk3FOv9oCQJImn2CDgS+eaOFcoY+r5y9IMmwq0h74G8mOrna2dbXF+QgNFgCSNDkF6wS80nFkwncCsrjyH2h/vovn2g/E+RjbLQAkafJyMHAIpeQfc9BuSGMd+BtOZ+85nj68K06IbQ4BStLkFnQw8Ie7X046bFAR8MBbzwdJ/uMZ+BvO/Gmxd25mWABIkrYDnyNAEbBi3/YJUwREwP1Nm/hNGW/vO15zp54XN0StBYAkCYpFwBcpPi0uUSv2bc/8VwQLUcRdjRuCJP8k9vwHq62eFjuEBYAkqWQr8HkCFAHL9mxh2Z4tSYdNRCGKuLupgScPvZV47KT2/AeLiOKGmGYBIEkaKNhMwPK9WzO3HVDa8w+R/OtytawOkPyhWLTEdNICQJI0WNDtgKx0AkK3/Z+tv4lLAyR/gDN9vXFDWABIkoZU0Z2AibryLznafSZuiC4LAEnScCqyE1CIIu58M8zKf0GuNujKv+RovMcBA5yyAJAkjSTYYODyvVvLXgQU2/4N/L4l+ZX/glwtz9TfFHTlX7Iv3xU3RJsFgCTp/6mI7YAIuP+tTUGSf12uljVlSv4AjaeOxQ2xywJAkjQaE3o7oNT2X9kc5sE+5Wj7D9R4MnYtttsCQJI0WhOyE1BJK3+A0309vHGyPU6IPNBsASBJGosJ1QkoRBF3VNDKH+DljsP0RIU4IXYDBQsASdJYBR0M/FFCRUAhirizsYE/TPCBv8E2HGuOG+JVAAsASdJ4BNsOeDiB7YBCFHFH44YgyT+Ntn9JIYpY27onbpgGsACQJI1fJp8iWEr+T7XsTPhTFZP/2hTa/iUvdxym5eypuGE2ggWAJCmeoDMBY90OCJn8S23/tJI/wJPxOxr7+w8LAElSbMFmAh4ew0xA6OS/NuFH+o7V0e48q4/8J26YDaUfLAAkSUlItQio9OQP8PjBNzhX6Isb5s+lH6rjRpIkqV8LsA74KjA9ycCbT7RwttDHZ+YveNd7lbznX3Ks5yzffH193ALgOPBtoA/sAEiSkhVsMPCRfdv5waDBwMmQ/AF+vPdVunq744ZZBbwTxA6AJClpR4B/AjcDuSQDv9JxhAi4cl4dhSjiu29uYNXhyhz4K9l5+gR3NzbQF0VxQ91H/wAgQFXcaJIkDaMeeA6Yk3Tge5d8nOb8qWDJPwt7/lDscFy3ZTVbOlvjhtoNXAG8cwtBCwBJUkjBioAQspT8AX6+fwcP7tqcRKhvAY8NfMECQJIU2keB9cC8tD/ISLK05w/wamcr129dQ3ch1n3/AVqBS4CzA190CFCSFFqwmwUlJUt7/gDt3Xlue21dEskf4CcMSv5gB0CSVD6Z3A7IWtv/dF8PN25dy7+7jiYRrgNYDHQNfsMOgCSpXILdLGi8spb8uwsFbt3xt6SSP8BDDJH8wWbHj2UAAAMkSURBVA6AJKn8MjETkLU9/zN9Pdz+2jrWtx9IKmQj8BGgZ6g3LQAkSWlIdTsgayv/9u48t2z/K9u72pIMew0D7v0/mAWAJCktqXQCsrby39F1lNtfW8f+/JCd+vFaBdwy0i9YAEiS0lTWTkBd/7R/Flb+hSjiVwdf56HdLyU17V/SSrH1f2SkX7IAkCSlrSydgCyt/N8+08ndTRt54fihpEMXgGspPpRpRDVJn1mSpDEq3ScgaCfgG3VLWZSbGSr8qJzoOceKfdt47MDrSTzadyjLGUXyBzsAkqTsCL4dcPn5c3lgST03XLSEmqryfRP+eM9ZVja/yc/276Cj51yo07wEXM0wU/+DWQBIkrKkLDMB78vVclvdB/la3RVcfN75Qc4RUbyd7xOHmvjj4d2cLfQGOU+/g8CngebR/gcLAElS1pRtMHBKVRWfmH0R11+4hM9esIjLz58bKzGeK/Txr44jbDh2kDWte5Ke7B/OceAqit/7HzULAElSFqVyn4B5U3N8cs7FLK2dx2Uz5rBkxmzmT8sxu+Y85k7Nke/rpTcq0BMVONp9hrZzed7Od9J06jiNp46xrbMt1N7+cM5QvLtiIo8MlCQpC+qBExS76R7vPnqAG8Z9dSVJyrCPAYdJP9lm7TgD3BjjukqSlHmXAE2kn3SzcpT2/CVJqnjzgOdJP/mmfbQAH4p5LSVJmlBmAH8i/SSc1vEKsDD2VZQkaYK6FThN+gm5XEcBWAFMS+LiSZI0kS0FdpB+cg59tAHXJXTNJEmqCNOBR4Fe0k/UIY6/AO9N7GpJklRhlgJ/J/2EndSxi+IT/SRJ0ijcDOwn/QQ+3qMTuA+YmvSFkSSp0k0HvgPsIf2EPtqjDXiQ4lcdJUlSDFMo3iZ3M+kn+OGOfcBdFL/eKEmSEvYp4BGycUvhTmAl8AWgOuDfLEmS+lUD1wC/BA5QvqTfCqwCvgLkgv+Vo+TjgCVJk9ViivfUvwq4EvgA8Qfw+ii29rcAG4FNQGPMmEFYAEiSVFQDLAIu6z8WAXMp7tFPB2b3/14eOAWcBDqAo8BuYCewF+gu66cep/8CGNciOyTsdNIAAAAASUVORK5CYII=;rotation=0;" parent="1" vertex="1">
          <mxGeometry x="809" y="55" width="388" height="388" as="geometry" />
        </mxCell>
        <mxCell id="M6gj8kt36gLy5a3jpEOS-11" value="" style="shape=image;verticalLabelPosition=bottom;labelBackgroundColor=default;verticalAlign=top;aspect=fixed;imageAspect=0;image=data:image/png,iVBORw0KGgoAAAANSUhEUgAAAgAAAAIACAYAAAD0eNT6AAAABHNCSVQICAgIfAhkiAAAAAlwSFlzAAAOxAAADsQBlSsOGwAAABl0RVh0U29mdHdhcmUAd3d3Lmlua3NjYXBlLm9yZ5vuPBoAACAASURBVHic7N15nGRleS/w3/OeU0vv3bPDAC6M7GKGkVlghAEGEUQ0xiFGo3G50WhMXGJubtQYEjW5iSZGb4wmGk1UsoDGDdmmcVBZhRFBxUEYWQYYZum9u+qcqnPe5/7RA8zW07WcqrPU7/v5zAemu+qcZ7rrPe/z7gIiSjS9e1WuNFpcrNAlLsIlVmTQiA5aK0MiMgjoIKADCukRoBvQHhHJq2IAAleAgQOup+gFkDvoNlURTB/0unEAoQgmVLUCyIwCJYHOADIO1XE1Mm6g49aaMWPsuAl0d9Xk9nTncrvlvJuDFv9oiKgJEncARJ1s6tqXLDa54BhH9ViIHAfRY1RxDIDlAJYAWLzvTxrtgcpuiO6B4HEBnoDK47D6aCBmh835j/eft3Vv3EESdSomAEQtpFdtcryBR48TR1bAyvEwWAHV4xWyAsDxALrijjFmZQAPCXQ7YB6C4CFAt2sVDxXvvOMxuQI27gCJsooJAFFEZm48+2jHhKfA6qkq5hRATwXwawB64o4tpSoAHhLBz1Vxv6r83HGD+/N7n7tNLr86jDs4orRjAkBUJ717Va4yaU6wobtKVVeJYBWAlQC6446tQ1QBPAjIVlG7VQVbi17wY3nF1lLcgRGlCRMAoiPQqzY5laHHT7GqawCshWA1gJMBuDGHRgcKFLhfBD8C5A4Typ3522+7n0MIRHNjAkC0H712Tb/vYr0aORuKdQBeDKAv7rioIZMA7gJwhxjcWig4t8j6W6fiDoooKZgAUEfTW87u871wDYCNqlgPYDUOXSJH2RACeACQW1QxHOQqW7gKgToZEwDqKHrbui6/ZNdDcSGACxXyIrAcdCorwL1QbIbB5oJTvEXOu9mLOyiiduGDjzKvcv3qFwWuuUhmK/31AIpxx0SJVAbkhwq72YG5oXDh7T+NOyCiVmICQJmjWzYU/dBbby1eIYJXATgu7pgolR4F5Aaxek0hX9zM3gHKGiYAlAmTw6sX5tR5pQKXCXQjuPaeojUjghvV4tsVK98eeNnto3EHRNQsJgCUWpNbVi3KBflLFLpJgIvAyXvUHiGAO0T16tAGV/W8bOvOuAMiagQTAEqV6eE1S12VyxW4HMBZAEzcMVFHCyF6q1hcVQ3yV/Vd8sM9cQdEVCsmAJR4etu6rvI0LoXoG9nSpwSb7RkQ/XKh6P4n9xygpGMCQImkWza4fui/TFXfAOAV4KE5lC4lKL4tYr9aGHvO9Ty7gJKICQAlive9s0/UMPwtAG8GZ+9TJshOVb3aMfqvhY133hd3NERPYwJAsdNbzu7zyuFrAX0zIOvijoeohW6FyJeKTuG/5bybp+MOhjobEwCKjX/DupPU0TcBeJsqhuKOh6iNpgD5TycM/yn/sh/dG3cw1JmYAFBb6VWn5suD/a8U0bcB2Bh3PERxE8FWQP+l0G2+ImfdXo47HuocTACoLWZuPPtoI+E7AbwNwOK44yFKoN0A/sWG1X/i3gLUDkwAqKVmblp7hrHydkDfCO7BT1SLigi+ZWE+2b3xttvjDoayiwkARU6vgCmvX/NqsfJeCM6KOx6iFLtFgU923XrHN+UK2LiDoWxhAkCR0atOzXtD/a8F9E8BnBR3PETZIb8StZ8u5Lr+mYcSUVSYAFDT9Jaz+/xS8BYV+WMAy+OOhyjDdgH4nOcW/2HovJvH4w6G0o0JADVs4vp1C/KOvhfAHwAYiDseok6h0HERfNr3cv8weOktY3HHQ+nEBIDqNnv0rvkDhb5bIINxx0PUwaZF8Bk/kL/lEcVULyYAVLPZ43dz7wLwHrDFT5Qk06r4ojX6V70b79wVdzCUDkwAaF66ZUNvuer9vgj+FKz4iZJsWgSfKWj1r+XCrRNxB0PJxgSA5qRXnZr3F/S+SVX+EsDSuOMhopqNqOLjXbnip7hqgObCBIAOoVs2uF7gvRmKD0NwTNzxEFHDHgPkL4pjx/w7jySmgzEBoAN4w2s3quLvAbww7liIKDLbxOB9xQvuuC7uQCg5mAAQAMAfXnOKVfk4gEvijoWIWkOBa4wx7ylecNv2uGOh+DEB6HClm9YtF9WPQvFGACbueIio5XxRfKoQ6Mfkkjsn4w6G4sMEoEPp3aty/qj7ThX5CIC+uOMhorYbEdWPFMaP+0fOD+hMTAA6UPnGdRdA9NMATok7FiKKlwD3qDXv6broth/EHQu1FxOADuLddNbxUPvXqtgUdyxElCwKXCPW/mHXRT96OO5YqD2YAHQAvXtVzhvN/TEEfwagGHc8RJRYZRVc0eUU/17OuzmIOxhqLSYAEdq0aZOzbVupP+449vcPb5964anHBJ8yRn8t7lgoufq6NO4QKEEUuE/F/K+ejbfdFXcs1DpMAGq0YsXFhb4+5yQRe6IqTgDMyYCuEMUiCPoB9ADoijtOokbkXWDZUIi1J1bw0pUVnHwsG3+EQBX/1KWlD8hF983EHQxFjwnAHDZs2OCOj/esFtHzBeY8QM8Cu8+pA4gA55xawXtfOYPFAzbucCh28isRfXtx4x3DcUdC0WICsJ9NmzY527fPXKhq3iDQywD0xh0TUVwW9ln8ze9M4eTj2BtAgAiursC+o3/jj0bijoWiwQQAwMqVF58CmLcI8DoAR8UdD1FS9HUrvvAHEzhmIZeJEwBgFyD/u+vC278cdyDUvI5OAF78oktXW6MfBPAKdPjPgmguK44K8KX3TMCwhNA+CvmWhpV39Lxs6864Y6HGdWSRXrnyFecC9oMCXBh3LERp8H9eM41XrPbjDoMSRKHjELyje+Od/xV3LNSYjkoAVq687GiB/b+AviHuWIjS5PnLQnzlfeNxh0GJJF8puoV3ynk3T8cdCdWnIxKAVatW5TRc+h6IfBic2EfUkKv+ZAzLF3JVAB3Wwyrm9d0bb7s97kCodpk//e2MMy47XXXZjyHyt2DlT9Swh3a6cYdAyfU8UfuD8ua1V+hVm5y4g6HaZDoBOOPXLv1daHgHFKfFHQtR2u2ZzPTjgprnAvhzb+ixH5ZvWP28uIOh+WWyRJ966qbeM854+Vch+i/g7nxEkfD8jhgxpKbJOhhzT3l47evjjoSOLHMJwKpVrziukC/dCQU/fERE8RiA4qvl4bVf0i0bOPSaUJlKAM444+Unqw1vAc+5JyKKn+JNXuBt9b935qlxh0KHykwC8OIXXboaih8AcmzcsRAR0TNOsKFze2l4zWviDoQOlIkE4MW/dukGa3QLgEVxx0JERIfoE5WrSjeu/ZRu2cDlJAmR+gRg1apLXmhFvwGgO+5YiIhoTiKCP/QCb3h6eM3SuIOhlCcAZ5758uerlRsBDMYdCxER1eRcx8rdpRvWrok7kE6X2gRgzWmXLQ0D3AhgWdyxEBFRHQTHiMH3y5vX/m7coXSylCYAV5hqLrwSwPFxR0JERA0pAPiX8uZ1X9bb1nG/lhikcjLGypV3XQHggrjjOIwQwOSRXmBETVcBPUbS+bOn9PCrgkoQdxRE89E3eDM4YXrLma/qPe+up+KOppOkrhJaufLlGwX4YMxhPATBFlHco2IfCAL8csGC8t6bb77ZO9Kb/BvOOs0a+10AA22KkzrYZ6/rxle3sGFFqbDGCZy7p28869Lel972k7iD6RSpSgDWnHbZ0grCryKeoYu7Ffiy67rfvOuub+2o983e8NqNVu3XwMqfiOhwljtif+DdtPY3ixfccV3cwXSCVCUA1Zz9uADtXD5SVeA/nBCfuPu+7/6s0YuUN695syr+GUAuwtiIiLKmTy2+7Q2ve1dx4+3/HHcwWZeaSYArV77iXEB/u023Uwj+zWp4wj33fPdNjVb+qpDy5rVXAPJFsPInIqqFq6qfK9249lOq4AlULZSKHoBVq1blYO1nFG35MPxUjHnn1q3fuaWZi+i1Fxe84bF/BXgoERFRvUTwh/5Na4/SLcU3ynlHnl9FjUlHD0C47N0KtPowCVXIpyen7JnNVv4T169b4OXGbgArfyKihqlik1f1bprcsorbvLdA4hOA009/aY8K/qTFt5mGyG/cc881737ooev8Zi7kDZ/5/LyjtwI4N6LYiIg6l+CsXJC73btxzQviDiVrEp8A5Jzc76GFh/woMKqQl/74x9d8o9lrlW5at1rVuQPASRGERkREs1aoyA9nblizKu5AsiTRCcCGDRuKCryvhbd4yhhz9j33XHN7sxcqb167QaxuBrA4griIiOhAS42Rm8vDa86LO5CsSHQCMDXR82YAR7fo8pPG2ku2bv3OtmYv5N2w9hUArgPQ33xYREQ0h16oXOPduOalcQeSBYlOABR4V4suXVWYy+6+97p7mr1Q+cY1v60G/wOgGEFcRER0ZN0q8p3Sjet+Pe5A0i6xCcDKlZe8GMAprbi2AH96zz3f+X6z1yltXvteiHwZKVlOSUSUEXkR/e/S8NrfjDuQNEtsAgCYN7TksoLvbr3nu3/f7GVKm9f9sQB/j/bsTUBERAfKieLK8vC6t8YdSFolMgHYsGGDC2j0mZ1iKgzl7QC0mcuUblz7JwL924iiIiKixjhQ/Xxp87r3xB1IGiUyAZge731pS/b8N/rn9957zRPNXKK8ee0VIvi/UYVERERNEYF+srx57Z/HHUjaJDIBsMa2Yobng/39pf/XzAXKm9d+BAA/ZEREyXOFN7yWjbM6JDIBgMr5kV8S+Jubb745aPT95eG1HwPwoQhDIiKiCKniT8o3rvvLuONIi8QlACtXXrwYwGlRXlOAxyuV7q80+v7y5rUfgeIDUcZEREQtIPpn5c1r/k/cYaRB4hIAEed8RDyz3gJf/PnPr6408t7yjes+DLb8iYhSRP66NLy2lbvIZkLiEgDArov4gqoqX23kjaUb1/wRRP8i4niIiKjFRPGJ8ua1vxt3HEmWvARAJdKDdBS46yc/uebBet9X2rzuPSLyiShjISKithEAn+VmQXNLXgIQ8Ul6othc73vKN655g0Cb3iyIiIhi5YjiK/vOa6GDJCoBWLduUxeAY6O8popsqef1/uY1r4TIF8Ed/oiIsiCnBl/zblp7cdyBJE2iEgDf91+AaGOyYVi5o9YXl29Yfb6F/Be4tz8RUZbk1eJr5RvOOifuQJIkUQmA2DDS1j+AHffdd+NMLS8s3bRuNYz5FniqHxFRFnXD2G/P3LBmVdyBJEWiEgAr2h/xJX9Ry4vKN6x+nlj9DoDeiO9PRETJMWCMXO9dv25F3IEkQaISAFETbQUs2DHfSyauX7cARq4DsCTSexMRURItUke/M37N+qG4A4lbohIAFfRFej3F5BG/f9Wp+byLqwE5Mcr7EhFRop1UKFa/qddeXIg7kDglarKbqO2DRDf5XkSm5/qeKsQb7v8CVCM/d6CdKsjhYXkuHpej8TiOxlOyFDPSDU+L8KSjP9sdb8+5Br1nRJfjX99v8SPXRnY9Sp8ueCiqhx6UsAy7cJw+juW6E8/TR+AijDu8+qic47lj/6aK14k0d0R8WiUqAVAxxSh/D6LWm+t73k1rPwroGyK7WRs9LMfhDlmNe82p2CYnooLcoS/iIkYaAJyB6C43uu8PdbjDPFuK8HCqPoDT7c9xlt6J5fpk++NqhOC13vDaB4A7rog7lDgkKgFol/LmdW+BaqoO95mWXgzLBgybc/EreW7c4RARPcNDEVvlRdjqvAhfwutwkv4S59sf4Hz7A3SjHHd48/lweXjtw10b7/j3uANpt45LAMqb124A9LNxx1GrCRnANXIRvum8HDPojjscIqJ5bZMTsM05Af9mXo+X2xvwGvtt9GEq7rDmIlB83hte+0Rx4x3DcQfTTomaBNhq/vCaUxT6DQD5uGOZTwU5XOlswpvcf8KVziZW/kSUOiXpwtXOq/Dm3GfwDXMpQjhxhzSXnCq+7m9e98K4A2mnjkkAZq5fdZRVuU4gg3HHMp8fmxfhHblP4kpzOfzk5ypEREdUQhc+7/wO/sD9OO6P9ry3KPVb0W9PbzlzWdyBtEtHJAC6ZUPROLlvATgu7liOJISDK83l+DPzAezE0rjDISKK1CNyLP63+xe40lwOlQRWP4rnOoHzjU5ZHpjA30D0vKr3jwDOjDuOIxmVIfyx+5e40tmUzIJBRBQBC4MrnU34M/MBTEtP3OEczlrPHf1U3EG0Q+YnAXrDa96mirfGHceRPCVL8SHnQ3hSWtfzpArAVoEwgIYBNKwCaqFWAdh9LyCiziOAGEAMxBjAcWEcF3ByEKd1VcSPzYvwfvkoPhJ+DIt1b8vu0xCRt5eH193VtfH2f407lFbKdAJwwtHBsapyRdxxHMl2eR4+5HwQExLhgu2nhSFspQxb9YGqB1Vu4kJEc3u6GfD0k0LEAPkiTK4Ak+8CTLST+B6TY/B+5yP4q/Ajyds7QPUfZ25cfW/PS390d9yhtEqm+5rPPrX6WwASO5bzpCzDn7kRV/6qUG8G4cRuVMeeRDgzBq2UWPkTUd1ULdQvIZweQzD2JIKJPbD+TKQ9hntkEf7U/TD2yKLIrhmRohHz9cktqxIXWFQynQAUXCT2sIdRGcIHnQ9jHBFV/jZEWJpAdfRJBNOjs61+IqKIqAJa9RBOjSIYewJhaQJqo2lY7MVC/JnzQUxL4g5kPS4X5P5Lr9qU2PWLzch0ApBUARx81Hk/dsni5i+minBmHNWxnbClSYAtfSJqMbUKW5pEMLYTdmYCGkGPwGNyDD5m3gebvGrpAm/Bjr+MO4hWSNxPuhN80fltbJMTmr6OrZRnK/7yFCfxEVH7qUVYnkQ4thPWm2n6cveaF+Jr5pURBBYxxZ+Whte8Ju4wosYEoM3uMmfgW+blzV3Ehggm9iCc3AvYlJ3ARUSZozZEOD2KcGqk6cbIV5zfjKSBFDERlS/6w2tOiTuQKDEBaCMfeXzWvBXaxFF9WvURjO+CVuc86JCIKBbWLyEYewoaND4HKYSDTzu/hyB52wb3WZWrdcuGxE1UaBQTgDb6L/MbeEqWNPx+W55GMLEHylY/ESWU2gDB+B5Yr9TwNR6RY3GN87IIo4rMKV7V+4e4g4gKE4A22SOL8D/OZQ2/35YmEc6M4dmVukRESaUIp0dm5yc16EpzOaaTeAia4K2l4bW/GXcYUcj0RkBJ8nVzGaoN/rjD6TFYbzqSOMRxIbn87C5fxp3d+QsGkMaHJYgozXTfrqB2dofQsApbrUQyvyicGYeqhdNd/3LnGXTjGnMxXmu/3nQckVP9XHnz+tu7LrzlsbhDaQYTgDaYkAHcIOc39F5bmmi68je5AqTQA8kXIIa/ciI61P5NAAcAwgC2Ukbol4Cg0vB1bWkSMAZOsa/u937DeTleab+LLiRrzpNABiHVr+hVm86Xy69O7ZgshwDa4HpzAXypf0PC0JtGWJps7KYCSKEbuaFlcAaWwBR7WPkTUe0cF6arD7nBpcgNLoUpdDfcUagz47B+/XMCptCHm81LGrtpq6mcU16w44/iDqMZTADa4HtyTt3v0aoHOz3e0P1Mvgu5oaPh9i0EnFxD1yAieoabh9O3EO7gMkiuWPfbVYFwahTaQE/C95KaAAAQxUdLN61bHXccjWIC0GIPyAuwQ5bX9R5Vi2BqBPVO+BMxcPsXwelfFPmhHUREcHJwBxbD6Vs4e4JgXRTh5Mi+E0hrd7+chKdkaZ33apucWL0yrUsDmQC02G3mzLrfE06OAHXusS25ItyhoyD5rrrvR0RUD1PoRm5wGYybr+t9agPYmZH63gPBHVL/c7SNVniB9/G4g2gEE4AWu1deWNfrrTdT9yY/ptADt38xYPjrJKI2cRw4g0sg+fqW6lm/DK2U63rPvXJqXa+Pwe/5m9ckcA/jI2ON0UIldGG7PK/m16u1CEsTdd3DKfbB6VuAJjYXJCJqkMDtXwAp1JcEhDPjdW0Z/FNzKsLk7Qx4AAv5wsz1q46KO456cFp4Cz1oVtT1obWlibrW3ppiD0zvYCOhUSexCg1n/wCYffDuG2HS0M7+XQzE2ZdFGjyzL4RxzezfDTNMmovA7VuAQLXmlr2GAWx5Cqa7v6bXl9CFx+QYPE8fbSbQVltknPznAVwadyC1YgLQQjtwdO0vtmFdp2lJrgind6iBqCgLVAFUQ1jfwnoB1LdAJYQNLBBY2KpC9/3/MxV/E8QIJGcgOQO4+/7fNTA5B1JwIAUDU3QheXYqdiaB27cQwcTummf6h+VJmK6+mjche0KOTnoCAEBfXt687nVdF97+H3FHUgsmAC30JGrvDQrLU6h11r+Igdu3AOz3zz4NFLYUwJaqsKUA6gUIfQv4AbS+eaLNxWEV6oeAP08PlRGYwmxSYLocmC4XpseF0+0CDpODTBOB078Q4fguaC2TmFVhy9Mw3bVtEPR4PQ2qWOmnp4fX3NS78c5dcUcyHyYALbTTLKvpdaoWWsduf07/Qi7zyyD1Q4RTVdiZAGGpCi0FsPNVuEljFbYcAOUA4UHbWJjiswmB6c3B6c2zxyBjxLhwegYRTI3W9PrQm4Tp6q2pF2Cn1PY8TYCFRs0/A3hV3IHMhwlAC9V6kIV6M9AaJ8SYQndDG3FQ0ihsOUQ4WYGdrCKcqsB6Kavs62S9cPbfOPbsUbGSN3D68nD6cnAGCpBul8dSpJwUeiBeqbbVTNZCK+WaJhEm8mCgOQj0laXhNa/p3njn1+KO5UiYALRQGbWtya99i0yB08NJf2llSwHCsQrCCQ/hVDWSsfm004pFMOIhGPEATEEcgenPwx0swBkqwBTZ05VGTu8gwvGnaprob/0ZODUkAJ6kq+EjKv84fs36mwYvvWUs7ljmwgSghXzMv/+/BkHNk2ZMsYdd/ymiocJOVxCM+ghH/fR158dAQ0U45iMc84GHZ4cNnIECnME83ME85xGkhDg5SL4L6s+/KsBWfDjWzruPSanGBlWCLC0Ugr8C8I64A5kLE4AWqmUJoFZrWzYjgpony1B8NNjXot3rI5z0693NmQ4yO2xQQnVXCTACZyCP3MIinIXFZ5ctUiJJVz9QQwIAKLTqzTsMkPR9AObwttJN677SfcHtt8UdyOEwAYiZrdS265+4RZ7ml1AaKMJRD9URD3bCb+vs/I5in+0dkO0TMIOF2WRgQRHiMhlIGuPmEbo5IKjO+1pb9WoaBkghI1b/We9edYa8eOv8P4g2Y40SJ0XN3f/17rRFraUWCEfLqO5hpR8HVTw7VGAm4Q4V4C7ugjuUr3ldObWeU+hBGMx/qqmteOls39fmtPJo7n0A/ibuQA7GAbUYaVhBrTWHFFI3/pVJthzAf3QKpa274f1yAuEYK//YWUUw4sHbNoaZrXvgPzqV+RUVaSG5Gp9bNoSGQWuDiZEIPly+6aznxB3HwdgDEKNaP/Di5CB1H71JUVHFbBf/U2WEE/78b6DYaMWi+sQMgidnYPoLyC0uwl1U5FbGMRHXnZ3cV8PGQGpDiJPZKqlbQv0EgE1xB7K/RNUqJy6v1n5yTgZoWNuQkOTmX01A0dOqRWXHNEp37Yb3wDgr/xRRBcIJH95DE5jZugeVHdOzWyNT2xm3xudXjc/DtFLR13ib110Udxz7S0wCoFedmn/hc4ML446jnerpAaD20XIA/+FJVhwZsX8i5z84MbtTIbVNzc+vGiYLpp1CP6l3r0rMAz0x/S3egv4/6srrgrjjaCexYU2rxMTJ8PSYBAknfFSeKCEcZ0s/i1SB6p4ygr1lOAuKyB3VDac/H3dYmSdubfWdVZucFmnrnFwez/0BgL+POxAgIT0ApZvWLYfqB+KOo91q3f6Xm/+0VjhVRflnoyj/fIyVfwdQBYIRb/Z3/tNRhJO1rcShBtW6KsN2xqYZovjz6eE1S+OOA0hIAiChfgxAb9xxtF+tXcuJ+DVlTjhZQfnnYyj/dISVQIcKpyrPJn/T2e+CjkXNE5g7Zqit31Hzl3EHASSgZqlcv/pFELwh7jjiUGsPgHBdc6TC6SrKvxhD+WejnNhHAGaHf8r3jTARaIVaE4COWk+rb/U3r3th3FHEPgcgdMwnkIBEhLJPvRD+I1MIRmvbfZE6Tzjhw/upD2dxF/LH9cHwuGJqDccK/gHABXEGEeun2xtedymAjXHGQNmnVlHZMY2Zn+xl5U/zUgWC3WWU75ldBdIpY9PUZqrnx70sMLYEQLdscFX1b+O6P3WGYMRD+Z69fJBT3TTclzj+eC+C3bUd2kVUD4V+Qq/aFNss79gSAD8svwXAyXHdn7ItnKqidN8IvAfGeQwvNUUrIbyHJlD+2Sj3EKConeYN7ohtDlwsCYBu2VBUlQ/FcW/KOKvwH51C+aejsJzMRREKJyso/WQv/EenUOsKXqJ5Ca7Qay+OZbvXWBKAclB+F4Bj47g3ZVc4WUHp3hFUn5gBatpiiahOClSfmEHpJ3u5dJSi8hw/P/b2OG7c9lUAesvZfV45/ON235eySwNF5dEpVHeVWn6v3oKDga7YF89QDWb8EOMt6rLXcoDyz0aRW9qN/HP6IC6X6lLjVPEhveXsL8n6W6faed+2P8m8cvi/ASxp930pm4JRH/72CWi1NWuIB7tcvPSUBTjnhEGcvrwXxRyXhaVJJVT88qkSvv/gGG68fww7I973obprduvowooBOAPcVpgattgrh+8G8NF23rStCcDkllWLEODd7bwnZdS+sf7qzta0+guuwetWL8Ub1i5Db4FbMadV3hGctrwHpy3vwdteshxf//FufOHWnZiMsGfA+iHKPx9F7qhu5J/TX/vGd0QHev/4Nes/M3jpLWPtumFbP6r5MPd+AH3tvCdljy0FKN030rLKf3FvDp97/Yl4x7nLWflnSM4RvPbMpfiPt56Ck5Z1R3796s4SyvfthS1xpQA1ZKBQrL6nnTdsWwIwObx6oSre2a77UTZVn5xp6UN2aX8eX3rTyTj16J6WXJ/it6Qvj8+9/iSc1oLf8TPJ6ZMzkV+bOoDKe8avWT/Urtu1LQHIWfkjD0sWhgAAIABJREFUsPVPDdKqRfnno/AfmWrZluEF1+BvXn08lvRxLDfruvMGH3/Nitb8rq3Cf2QK3rZxaMDVKFSX/kIhaNsweVsSgInr1y2AyLvacS/KnnB6dlOfcKK1y67e9pKjccpRbPl3ioU9OfzJRce17PrBqIfST0c4JED1alsvQFsSgLyj7wNb/9SAYHcZ5Z+NQlu8m9/ivjw2reLilE7zkhcMYtVzWvdo0nKA8k9HEOzlGRRUs4FCIfjDdtyo5asA9No1/WXo7wu4TpZqpwr42yfatgf7q1cuTuwSv2o1QKlcQsWvILQW821y5DgOhgYH4bqtKd6htRgfH0e1eqSdFgWOY1DIF9Dd3dWyWKLwmjOWYOujrVt+raHC++U4chPdKDy/H3wU0nxE8G7dsuHv5Lybp1t5n5aXSi+HdwpksNX3oezQSojytvG2buV77guS9xFVVYyPT2CmVPtqh1wuhwVDC+A4rUtmHGOwYGgII6Nj8Ly5W7ZBAPh+BVPT0+jp6cZAfz9Eklf7rXv+APKuQSVo7Xn01V0l2HKA4kmDEDeZySYlgyqG/MB7M4D/18r7tPRTOLu/sWlLVwZlgy0Fbd/Hv6/oYMWSrrbdrxbWWuzes7euyt91XSxatLCllf/TRAQLFwyhWJh/C3NVxfT0DPbuHYEmcBP97rzBiUujXxZ4OOFkBeX7RnioEM1Lgffqlg0tbaS39Enh58ffBOhRrbwHZUcwXkH5ZyNtP70vibP+R8fG5uliP5AxBosWLoBj2teyFBEsWLig5u59v1LB2Ph4i6NqzJK+XNvuZb0Q5Z+N8iwBms/zylX/11t5g5Y9LfSqTY6q/lGrrk/ZEuwqw/vFaCzLphb0tO/hX4ty2YPn1bdl7eDgQCzj7GZfT0CtXfulUhm+H+12vFFY1Nvez4BWLbyfjyLYw8mBNDcRbem5OS1LAMoLHvt1AC9o1fUpOyo7puFtn4jtAD/XJGtcenqmvk1kisUCurviG8LI5XLo7al9+eTMTOsPbaqX67T/M6AKeA+Oo7KjpfO8KN3OLG9es75VF29ZAiCK97Xq2pQVCv/BCT4A96OqqFTq6xoeHBhoUTS16+/vg6lx+MFLYA9AnCo7puE/PBl3GJRQArSsJ70lCcDMDWtWAbKuFdembFALeA9MoLqnPcv80iIMw7omynV3JWOJnYigt7e2XgBrLaxt7Yz7tKnuLMF7cGK2W4BoPwp5pb957cmtuHZLEgBjhK1/mpMq4D8whmCE458Hs3VWAD11dL23Wm9PT81zAer9d3aCYE95XxIQdySUMGKBlqymizwBmLnx7KMBvCbq61I2qFV4948hGGM3cLMcx0GhkJwVDMaYRMWTRsFeD+VtY4BlFkAHeNP08JqlUV808gTAmPD3AfApQIfQcLbyDydY+UehWJx/DX67FQvFuENIvXDMR3nbGDRkEkDPKDoqvxf1RSNNAPTaiwtQ/G6U16Rs0FDh/YJrn6NUyCcvAWAPQDTC8Qq8bePsCaD9vXN2c73oRJoAeO7oJgCLo7wmZYBVeNvGEE62b3e/TpDLxT/572BJmJCYFeGED++Bcc4JoKctKbvjr47yghEPAcg7or0epZ4C5QfGW36UbydyHCfuEA4hIomMK62CMR/eL8fBLIAAQIyNdBggsgTAH15zOgRnRXU9ygKF9+A4Qk74a4la1923m0nggT9pFox48B7iPgEEQOUc/4azTovqcpE9Qayy9U/PUgX8Byd5DnqLJPFUvWckObaUCnaX4T/SuiOLKT1CsZHNs4skAdAtG3oBvC6Ka1E2VB+b4iY/LaSqiTxZD0Bi40q76pMzqDxR3zbRlD0i+B294fRINgCJJAHwAu+3APRHcS1Kv2B3mQ+qNkjqbnpJjSsLKo9O8QAhGvCke1MUF4pqCOAtEV2HUi4c9+Ft53hlOwRBe49NrgW3+W09b/sEl9N2OqNvjuQyzV7A+97ZJwJYE0EslHK2FOxbtsQu4HaoVpO3rDKJMWWOVXjbxmHLQdyRUFxUXuJdv25Fs5dpvgcgDN4KgLN+OpytWJR/wd3L2slP4Kl6vs+WaTtoYOH9YgxaZW9LhxJ19E3NXqSpBEC3bHAV5rebDYJSzs7u8qd+8rqks8zz/cRNuCt7HJ9uF+uFs3sEJOwzQG3zJr1qU1ObbjSVAPgV72JAj2rmGpR+/q8mYWfYHRmFerrSVBXlcnJWWlSr1ZqHANhlGI1wooLKY9Nxh0HxWO4PPb6xmQs0NwTg4A1NvZ9Sr/pUGdXdyamE0q7ezX2mppOz2mJquvaKKKmbGKVR5YkZBHtZBjuRQpuqgxsuhXrL2X2quLSZm1O6hdNVVB6eiDuMTHEcp67KsVqtJqLbvRoEKJVqq4Rc1032RkYp5G+f5KTAzvSqffvwNKThBMDzwlcD6Gr0/ZRuWrXwto1z+LEFisX6jtQdH5+IfS7A+HjtiWBXnf8+mp+GsysDOAm34/SUq/4rGn1z4/1wKtz5r0OpAt4vx6GVbEz6Kyfs39HfV19CH4YhJibi23themam5hUJIoLe3kg2MYtUuZL+2fS2HMB/iD1yHcfobzX81kbeNHXDWUsAPb/Rm1K6VZ+YztTpfntnkrV23XVdDPTXt7Hm9MxMzV3wUapUKnUlH4MDA4k8LXDXVDY+z8GIh4BzcjqKKF42Obx6YSPvbSgByDn2tQB48HcHCqerqD6erVnHu6eqqCSs67Svrxd9vfX1BIyNj7d1b4AgCLB3ZLTm4YeB/n709HS3OKrGPDmejQQA2Lcqh/MBOkkub01DWwM3lACo4vJG3kfpplbhPzgBTX9v6QEqgcXdjyRv++KBgX4sXLgArltbrq2q2DsyinK59ZMCq9Uq9uwdqWnb31wuh8WLFqKvzqGNdtk54ePhDM2iV6uzQ3QZK6c0NzXSUAJQdyt+esuZyxBgXSM3o3SrPDyV2ZbFlgfGcNbxA3GHcYiuYhFdxSIqlQr8SgVhGM7b4vZ8DyL1TyasVaVSQalcRrFYmPM1IgLHcVAsFJDL5VoSR1S+t2087hAiZ2cCVB+fRv64ZCZdFDHVc6duOGtJ30W37a7nbXUnAG5oXq3RHSJEKRGM+ajuKsUdRstc+7MR/M66o3DM0NyVWpzy+Tzy+XzcYQBIVizN8gOL/7xrV9xhtET1iWk4A3k4A9n4XdEROa7YywB8oZ431V2RK8xv1PseSjcNbOZnF1dDxT99/4m4w6A2+/LtT2F3RiYAHkwV8B6agNpkzW+hFhHUXTfXlQBMDq9eCNVz6r0JpZv/8FRHHDoy/ItRXLW1rh40SrE7H57EF2/bGXcYLaV+iCq3Cu4UF4xfs36onjfUlQDkVC4DZ/93lHDcR7AnOxOk5vPJ4R24adtY3GFQi/3siRl84JvbEXZA67i6cwZhRns56AC5Qr5a1+68dSUACnlVffFQmqlV+L9K3uz4Vgqt4gPf2I7P//BJWG5zmEnfvncvfu/KbZjykrUBVKuozm4VDH6cM09gLqvn9TUnAHrtxQUBuPlPB6k8OgXbIQ/J/SmAz9/yJH7rC/fjBw+O87mZEfc9Po23fXUbPnrtI4nb96HVbClA9YnkHBxFraGiL9NrL655JnPN3fm+O3oBIFxT0iHsVBXBU9md9V+Lh/eW8f6vPYTFvTm85AWDOH15Lxb35bC4L4+cw8NskiwIFaOlKnZPVvHArhK+/8sx7Bhr3yZJSeQ/Pg1nYQGmi6O4Gdbr58deAmC4lhfX/ElQEZ781yFUAe/hSR70s8+e6Sr+5549+J979sQdClHjrML/1RS6Tq1rnhiljerLUWMCUM8cgEsai4bSJthdgp1O1v74RNS8cMJHMBr/8dHUOlrHPICaEgB/eM3pAJ7TcESUHqFFhcuGiDKr8sgUe/cyTZ/v37DupFpeWVMCEEJe1lxAlBaVHTMdseafqFNZL0R1JycEZlloUFOdXVMCIIoLmwuH0oAPBqLOUNkxA60w0c8qgdZUZ8+bAOiWDUUAZzcdESVe5RFO/CPqCKGF/9hU3FFQ65xby3LAeRMAv1o+B0BXJCFRYoWTFQSjnb1MiqiTBLs9aEZP9yT0eLmxeU/tnX8IQAy7/ztAZQcn/hF1FoXPcp9dMv/Q/bwJgJXaxhIovcKJCsIJ7hVO1GmCvR5siUt+M6mGuXtH3Aho4vp1C0T1hdFFREnUTOt/qNvF+hWDOHFZN5b25bGgx0XOqfuU6SMKrWKsVMWe6Sq27ynjhw9OYOcEhysoudJULvzHptF1EjcHyqBVY1s2DA6dd/P4XC84YgLgujgHWt+BQZQu4biPcLL+1v/zF3XhnRuWY/2KARhp77a4779wdl/3z37/CWzlRCZKkDSWi3DURzhVhdOXa2F0FAPTFZTOBvDdOV9wpHc7qudEHhIlSr2b/hgRvOu8Y/Af/+sUnPOCwbY/5J52+jG9+OzrT8THXvV8dOWYo1K80l4uqo9zLkAmqTliHT7fJ+TcCEOhhAnGfIR1bPlbcA3+7jUr8Ma1y2J7wB3swpMX4AtvPAmLe9l6oXhkoVwEYz63/84glSPX4XMmAHrtmn4FXhR9SJQU1Sdr3/RHAHzokufi7BUDrQuoQS9Y0o2/2/QCFNkTQG2WpXJRqeN5QKmxSm85u2+ub875yfBdrAfgtCQkip2dCeqa+X/5i5fgolMXtDCi5py0rBvv23hs3GFQh8lSuQj2+rBe2OKIqM1c3wvWzvXNuXsAgPWtiYeSoJ5sv6/o4HfXH93CaKJx2YsW44Sl3XGHQR0ie+VCEewstTweai+15iVzfW/uviGRObMGSjethAhHyjW//jdfvBT9XUdcMJIIRoA3n3VU3GFQh8hiuajuKvEwsKwRrJnrW4dNAPQKGACrWhYQxaq6swSto4xfkKI1wmcfP8C5ANQWWSwXahXB7tobB5QGumZfnX6Iw6avlfVrToOiv7VBURzUKqq7au/mW9afx/GL03MURDFnsOq4Pty6fSLuUAAFYAGEAAKd/TvVRUSgLmZnIyVoRlKWy0VlZwm5o7uBhKxooKYNVNavOQm48/6Dv3HYBMCqzNllQOkW7vGgQe010bELii2MpjWOXVAE4koAFEBFAQ+QigCWtX5zFM9UQwZAQaAFBfICxFg/ZblcaCVEOFaBs2Dew+QoJayatQAOSQAO3yekc48ZULrV0/oHkMr19bHErICUABlRyDggHlj5R80CKO/7+Y4opIzYelWyXi4qdT4nKPEOW6cfPgEQrG5pKBQLWwrq2vgHALry6RtP7863ua+4qpBRAFM6291PrRcCmFRgVIFq+7OArJcLO+7D+vwwZ4WK1pYA6JYNRQAntzwiart6W/80DwUwo5AxzI7xU9tJgNnkq8Sff5RUgWCPF3cYFBFRnLKvbj/AIQlA2fqnY55DgiiFrCLYywIdJZlUyDQ4uS8BZAqzPTD8XURmtsHAH2hG5ErWO+XgLx6SABjFyvbEQ+0UjHhc3xsVBTAxO9GPkkNKmE0CKBLqhwjHeT5AVhiVQ+r2Q4cArGUCkEHBHq7tjYrM7JvkR4kj5dk/FI3qbg4bZoXi0Lr90JksIme0JRpqG61aBBPM5KMgFXC8OemmFAjiDiIbwlEfytUsmSB2nh4AvWqTA+C0tkVEbRGM+LOzeqh5kxxnTjwFZBL8PUVArSIc9+MOg6IgOP3gHQEP+Iu/4NHjAaRneyuqSbCXfaJRkBK4zC8tqgr4zACiwNUAmdHrrVv9nP2/cEACYK1zanvjoVbTqkU4ye7/pimg7PpPFeHx9pEIx31oyM9+FohzYB1/QAIgoocsE6B0m136x8LbLKkAwtZ/ugSY3ZaZmqKhIhzjMEAWWBxYxx88CZAJQMYEI+y+i4THiiSNxOOBNlHgcyQbxGLuBEDAHoBMCZTd/1FQAGwApRN7ACIRjvmcR5wFcmAC8MyOf3oFjAc5sf0RUasE4z7Y/R+BsD0z/1UtrLVQDaGa3U2bjDgQIxBxIa0+cjbc9ydBRwmnkVqFnazAGcjHHQo152TV2VO2gf0SgH2zA7kCIEMCLt+JRiBoVQagGqJSKSOseggDv7PSNQEcp4BcrohcvhsiLTpghwlAJMIxnwlA+vWWb16zHLjzcWC/BEAcWcEunmzh+t2ItGAjFFWLql+C709CO7XgKRAGPsLAh+9NIVfoRqHQH3mvgITsB4tCMOYj/9y+uMOgJkkgKwA8Duw/B0BlRVwBUfTC6Sq0kt1u5LaK+McYhlXMTO2G5010buV/EFWLijeNmendsDbibfz4I46ELQc8IjgLFM/U9c8mAILjYwmGWoKt/+gIomuRBoGH0vQeWMsH6eHYMMDM1B6EQXSfXyZZ0eFzJQNEnqnrn0kALHsAMiUcr8QdAh3E2gDlmVFWSPNQtSjNjMKG3NA/afhcST85XA/A/l+kdFOdHQKg5FBVlKZGWPnXSNWiVBqBsv8+UcIJJgCpJ/bABEAVAtHnxRcRRclOVVoycY0aV/EmYZUt2nrYMEDV536+SaKBhS3zc5xmioOGAKave8kiAN2xRUSRCqfY+k8StSEqrMga4nuTmd4TIY34fEm9vvFr1g8B+xIAU6geG288FCU7yW66JKlUZtiV3SBVRVDhaZZJEk7x+ZJ2XcXZOt8AgGuVCUCGcPw/WYIqZ043o1plApAkltuLp56qPpsAKAwTgIyw5QBaZZdpUqiGCEO2mJoRhBVwMX9y8BmTBeY44OmdAFWPjXCpM8XIxjw+Z62F5/nwfR+htQ3PehcBjHGQz+fQVSzCcdK5l6sN+aBsmiqstTAmnZ8BIHvlwk5X4AwVY7k3Ne/pHgAXAFRwTLzhUFRsKb4ZutPT05icmoa10VV6pRIwIZPo7elBf39f6w+PiZhVbvgTBbUBkNIEIIvlIpwJ4Qy19ZYUJSPPJgAAjo4xFIpQOBNPAjA6OoZSuTVjtaqKqelp+JUKFi1cAGNadGhMK3DdfyTSun9CVstFnA0NioDiKODZjYCWxhgKRciW2j8EMD4x0bKH3P4qlQpGR8dafp9opbPiouZluVzYGU4ETLmlABOATNGKbfvknGq1iunp9q1x93wfpRJnhVOyZb1c2HLIzcbSbQkAGL17VQ4AR3MyII5uuanp6Y64J1E9sl8udDYJoLRapFs2uKY8kV8CcA1AFoQxdP97XvvXuFerVYQhHz6UXJ1QLjgMkGpmJiwvNGpnuwIo/drdA2CtjXRmcz2CgJOQKJk6pVzE0eCg6OSApcZRuzjuQCga2uZDOuJ6yMV9b6Ij6ZRyYT32wqWZtWaxa40MCedyZIL12/vgqfdjk8vl4LouXMeBmNlRJ1VFGIYIghDVarXm5V78yFJSdUq5UI9JeJqp2EHXQAZ5UEn6qQVQTVZGLiLoKhbR1d2FQqEAM89mJaqKSqWCUtlDuVxmK58yKSvlQischkszURlyVe0Q5wBmgB8kZs8ZEUFfby96e3vq2pxERFAoFFAoFDA40I+ZmRKmpqc54Y8yIWvlQgMFAgVc1h9ppKKDLmAG2KGafmGbu//n0tVVxODAQNN7lIsIent70N3TjcnJybauqSaKWlbLRegFcHpzscZAjRHIgAvoYNyBUPPUj7c7TkQwODCAnp7uSK9r9l23WChidGwsMd2fRLXIernQSgiACUAaqeiQAXQg7kCoeRpjD4CIYNHCBZE/5PZXLBawZPFiuK47/4uJEqATyoWWmZCnlagMGhXpjTsQat5sJt5+IoLFixaiUCi0/F6u62DxooWpPRqYOkenlAtN2MRjqp1Ae4woWpeeUttoEE8mvnDBEPL5fNvu5zgOFi1ayGmrlGidUi7ieu5Q8xSm24Wii0/T9NOg/RM5jTHIFYttv2/Oddt+/jlRrTqpXMTx3KHIdBkRZQ9ABrT7FEAAcNp4/vjBXA4DUEJ1UrlgD0B6iWi3UQgTgAyIIwEgos7G5056qaLbAOiKOxBqjiq74oio/ZgApJigywBo/2AVRSu04GZORNR2fPakl6LLiIALq9MuZAEkovab7X2MOwpqkGtUmQCknVomAEQUFz5/0kihjgHA6dRpx2E4IooLGyCpJBCXCUAWJOUYQCLqOMoGSFqxByALOARARLFhAySt2AOQCSx/RBQXJgBp5cS3ZRVFh+WPiGLCIYD0MgB4nFPaMQMnorjw+ZNWIROALODBOEQUGz5/UipgApAFLH9EFBPhLLK0Yg9AJjABIKK4sAcylRQaGBFwI8eUE8MCSEQxYQKQSgIJjSoTgNRjASSimAjXkqVVYAB4cUdBTWIBJKK4sAGSToKyAVCOOw5qDocAiCg2fP6kk6JsBFqKOw5qEgsgEcVABHz+pJQISkZVmACknWvApQBE1HaO4QhASqlKyUA4BJB2IoC47S+F1sa3B2ic9yY6kk4qF5LjBKQUKxsVsAcgA+IoiKG1qFarbb+vtRZ+pdL2+xLVopPKxeyJ8pRGAlsyojoddyDUvLgK4t6RUQRh+/aSUlXsHRmFcv9xSrBOKReSY/9/WilkxgAyHncg1Lw4hgAAIAxD7N07giBo/cPOWou9e0dQYeufEq5TygV7ANJLgVEDVSYAGRDnWFwQBNizd09Lux9n77GXXf+UGp1QLjgHIL1EZdyoYQ9AFkgu3hM5wtBiz569mJycirwbcmamhF2796Ba5aaVlC6ZLxdMAFJLYSdcAx1XLiFLPSkmoyBOTk2hVC6jv78P3V1dTV3L931MTE6xy59SL6vlwhR5FGBaiZgx16qMs/pPP1Nw4w7hGUEQYHR0DJPuFLq7u9Dd1Q3Xre1BEVqLcrmMUqmESqX9M6mJWiWL5ULyTADSSqHjrhEdU2UKkHamkIwegP0FQYDJySlMTk7BdRzkC3m4rgvXcSBiAAHUKkIbIqgGqFQr7OanzMtSuTAFJgBpJSoTbmCdPY5wU5XUK7gQAZK6Oi4IQwQl7jlFtL80lwtxhZMAU8yo7DJi/V1xB0LNEwOgzRMB4+w3Yp8VJVWnlAvJJ2fYkepXAXab7kLfHgDsAsiAdg8DGBNf9m8cdj1SMnVKuUjKxGNqSNg7sXzEyHk3BwBG446Gmidd7c3IjTFwYqqIcy5bH5RMnVIuuAIg1fbK5VeHT6dwu2MNhSLhdOXafs+uYrHt9ywU8rG2sojm0wnlwulu//OGoqHALgB4+tPCeQAZYHra3yru6+uFtPk80P6+vrbej6henVAupJu9cGkl+xr9TycAO2OMhSISRwLgOA4GBvrbdr+enh4UCoW23Y+oEdkvFwKHCUCKyU5gXwIggh3xBkNRkJyJZVlOb08P+vtb3/ro7u7CYBsfqkTNyHK5kC4DGK7FSS99DABmUzirO9Dm7ipqDdOdQzjht/2+/X19KOTzGJ+YjPwsdMdxMNDfj+7u5rZQjQfLVSfLarlwevJtvydFR0R2AE8nABD2AGSE0+PGkgAAQKFQwNIli1GtVuH7FYRhCKuNrTAVETiOg3w+j0I+vQ+bdo8DZ5WkeNJnFsuFYfd/uln7bAIQiuwwSOgWclSXJBTMXC6HXI4zhAFAhEulopCFn2OWyoXpTv/vo5OJOo8B++YAhBI+Fm84FBWnLxsPmKwQwwdl00S47DNhnL709soRkDf+DmBfAtC/8UcjAEqxRkSRkC6X+3MniDEGxmFS1gzXyYNzKZLD8BmTdpNy4dYJ4NllgADwq5iCoYgZ9gIkSi7X/k1hsiSXS+Pkz+zi8yXdBNj+9P+bZ7+oD8UTDkXN6Wf3XJLkCt1gC7YxIgZunglAkrh8vqSb4Jm6fr8eAMMEICOcXmboSWLERb7YE3cYqVQo9kKE3c1JwnlG6aZWD5MAqG4/7KspdUxfnpt0JEyh0McJgXVyHBe5fG/cYdB+xDVtP3SMImbMoUMAMEwAskKEvQBJI2LQ07MQ3HCrNiKCrp6F3EchYZwBdv+n3n6N/WcSAA05ByBL3EHul580xsmhu3sBk4D5iEF3z0IYw5Zm0jiDTADSTt3DDAEUb//RowDKsUREkTMsqJHRCDfJcnNF9PQugRFWbodjHBc9vYvhuNElsOxFiI7DhkXaTXdtuPOJp//y7CqAK2AF2BZPTBQ1pzcHyXPyVBSirkAcx0VP/5LZeQFcHQBgdoikUOybrfydiJMj/ogjYbpcmALnsaSa4n6RZ1s07oHfw/0AVrY9KGoJZ7CAYDc7dZqlTvR1iIig0NWPfKEHlUoJQdVDGFYivkuyCQDHLcDJFZDP97Rstr+yzoqEO8TWf+oZ3L//Xw9MtRX3M1vODpcJQDRaWIGIcVAo9qFQ7IOqhbUhVEOoZvdsDhGBEQdinPYs8eNoSyScIQ4rpp2qzJ0AWCP3mww/eDrN7ERAAXjQU3NctOXHKGLgOAYAV3BExuDA/U6pIWIEpp89AGlnEN5/4N/34xz0TUo5V+D0szJpmgDIs2sslQr8vUXBGSpw8UoGqMXcCUBh9DnbwUOBMsVZxH3oo6BF9qKkEX9v0XAX8jmSAdP7Vvs944AEQC6/OgTw07aGRC2VW1gEp0FHoCCcTJY2DthzEwFxBA4nAGbBT+QK2P2/cLjRsXvaFAy1geQMnAEOAzRNAHTHHQTVQ7mLcCScoSLEYSKVdnqYuv2QBEBEmQBkjMthgGh0S0tXBFCEcsLx/4i4i9j6zwKB/OTgrx2SAIRWf9yecKhd3IVFbj8bEe2POwKalwDoB0e+IiCOcFvxjLC19AB0Bwt/CqDaloioLcQ1cHiGdzTywq7lhNNeQLn2PxLOUIEni2ZDpbs6eMgqv0OHAC65zlfgF+2JidrFXcJhgMh0C7Qr7iDosLpkdqiGIpFbwokvWSDQ++WS6/yDv37YLTIEuLP1IVE75RYWAZcPxkgIgD4mAYnTLRyiiZAUHDiDnECcBQq543BfP/weWSJMALLGCPKL6q+x/CB966j9wM7/ombtSwLQKxxrToI+gfa173adUC5yS7rAD3dG6OEb9YcOE43qAAAgAElEQVRNAEzIBCCL3GX1d+ftnU7fATV72hWzANoD6CBXB8QmB+hCgba5pzrr5UIEcJewiysrjNbRA5C//bb7AUy0NCJqO9Ptwumrr0vvqYn0PejaHnMe0EX7WqBMBNrDmV2RoUMSy2E/WS8XzmCBR/9mhELH87ff/svDfe/wcwBmdwu6u6VRUSxyS+trKj0y4uHJ8UPmjiRWaBU/emQynpt3y2wiMAigKDyEJmpGgCKAQYEulNkJfzH1UGe9XLhL2frPCoHccfAOgE87Uu58B4ALWhMSxcVZWIQ8PAkNax/D/MGD43jtmUtbGFV0fvzYFKa8MN4gCgItAIAAgQKBAFYhKjyYsR6y748BNDf73yTtZ5HVcmHyBu4QVw1lyJxD+nMmAGJwq7ZhLhW1lziC3LJuVJ6Yqfk9/3nXLrx65WLk3eQ3af/99qfiDuFA7tNd1MK6P2OyWi5yR/Vw7l+GiOCWub435ye3UHBuARC0JCKKVe6obkgdz6ydExX89927WxdQRG7bPhFf9z91nCyWCzHCyX/ZUi2Epdvn+uac1YCsv3UKh9k7mNJP8g6chfUV8s9+/wncs2OqRRE1b890FR+79pG4w6AOk7VykVvWDcklv0eDaqV3y0X3zdnde8TftKj+IPqAKAnyR/fU9frAKj7wjV/hkRGvRRE1bqwU4H1XPYg909zBmtorW+VCGloqTMklIkesw4+cAAgTgKwyPS6cgfoO+RiZqeIt//4L3LY9OStEH9xdwpv+7Rd4YFcp7lCoQ2WlXLiLCjBFLv3LFHvkOvyIK2i90Pww76gFFzRlUu7oboQT9S1lmvZDvPeqB3H+SUN454ZjcOxQPCeFTZQDfOWOp/Bfd+9GpR07/xEdQRbKRb29gpR4YTnXdduRXnDEBGDgZbePepvX3qvAymjjoiRwhwpwenMI6+w6VwA3bRvDzb8cx8pje3HOCwZx8lE9WNybQ1+xNbuyeNUQuyar+NXeMn744DjufGQSXpUVPyVHmsuFO1SA6eW+/5mi2Dp03s3jR3rJ/J9KxWYIE4Csyh/Xi/L9Yw29N7SKux+dwt2PJncSFFG7pbFc5I7hGdeZI9g830vm79o381+E0ssZLMDpz8cdBhHFxFlQqHuLcEoBleYTgIJTvAVAOZKAKJHyxzL7J+pUheNY/jNophgMHvYAoP3NmwDIeTd70Ll3EqL0cwbycAbYC0DUadxFXTDdbP1njQJb5JLr5p3hXdPsfpX5uxIo3fJsBRB1GEHhWM78zyJTw/g/UGMC4Fi5rrlwKOmcvjzcmJYuEVH75ZZ2QbpiOEuZWs84N9T0slpeVLjotp8BeLipgCjx8s/rT9Jha0TUKo5hr192bS+ef+sDtbyw5g1+FPhu4/FQGpiigxw3AyHKvPyxPdzzP6NE8a1aX1vzJ8CIMAHoAPljeiB5PhiIssoUndkjfymTVG3NdXXNT/pCZXALgPTsbEGNcQwKx/XFHQURtUj+uX0c6suuyeLETM2r9mpOAOSS63wRDDcWE6WJs7iL24ISZZAzUIC7oBh3GNQ618vlP6/U+uK6+nrV4tv1x0NpIwIUOSGQKFuMoPB89u5lmup36nl5XQmAlyt+E0DN2QWll+nL8WxwogwpHNMLw2V/WVbxK7m65urVlQAMnXfzOBTfry8mSqv8c/ogPB+cKPVMt4vcck78yzbZPHjpLXWd7FZ3OihGvq6qF9b7PkofMYLC8/rh/aKx0wKzqLfgYICtqFSY8UOMl4O4w4idCFA4vh/gkF7G2a/X+466n2QB7DcdyGcAsGnYAdyhAtzFRQR7vLhDicVgl4uXnrIA55wwiNOX96LItdOpUgkVv3yqhO8/OIYb7x/Dzol5t0fPnNyyHjh9POsj44KqG9Q1/g80kAD0brxzV3l4za1QOafe91I6FZ7bj3CsAg1s3KG0TcE1eN3qpXjD2mXoLTDXTau8IzhteQ9OW96Dt71kOb7+4934wq07MdkhPQOm4CDHHf+yT7Gl/7yte+t9W0PNGVFzdSPvo3SSnEFxxUDcYbTN4t4cPvf6E/GOc5ez8s+QnCN47ZlL8R9vPQUndcAEVxGgsGIA4rDvP+vE6NcaeV9DCUC16v43gM5Iof9/e3ceJ0dd5g/883yruququ2d6jkxCAgEhnCYEksAmAVRiZiYQDi+SnyvrsehPvH6Kvz10XV0j4m9lPVDXRVEXfwqsLiBeQEQCCQiZGWISRDkXDCxX7pnJHH1V1bN/TKIhJJnq7qr+Vnc/79crr+QVqr71MOmueup7PF8BADA6LJhTHd1hRG5aaxLff88pmC0lkRvW1JYkvn3pyZjT4P/GiRkZ2ea7ORSL4LLH/4EKE4CW5b/ZAUhRoGZjHdfa0MuILFPh6rfOwlQZL214qaTCly45vmH/rVXaRGKmdP03Awatbu1+aFcl51Y+o4n5Pyo+V9QlUgT7xDZQg86De//rZuC1UiO9aXSmE/jEsqN1hxG6Rv+eigMQ/6jSUyv+iNicuw3AWKXni/qk0iYSRzXem0VXSxIrFkzVHYaosded0IYFxzRWdbxG76kTrzDmeOO3V3pyxZ8SWvbIWO7uRbcD+F+VtiHqU+LIDLzhIrzhxikK+dZ5XbFd4lcquRjPjaNYKMLzfQB82OMNw0B7WxtMM5qHgOf7GBoaQqlUOsxRBMNQsJIWUiknsljCcMn8qdj4XGPsc2Z22E0xV0fsQ7fRskcqfhGv6ltJ8G9gKEkAmgwRYJ/YhvHf7QIXPd3hhOINJ7TpDuFVmBlDQ8MYGx8PfE4ikUBHewcMI7pkxlAKHe3t2LV7EPn8oetDuC5QKBQxMjqKdDqFbGsrKIYbTCw+LoukqVCs82WuyjFhndA8q3UEQOTfUM35Vd0lrMFjfgXGC9W0IeoTJRTsk9saYsOgFtvA8TF7a/J9H9t37Czr4W+aJqZM6Yz04b8PEaGzox22ZU16LDNjdHQMO3fuAvPhey90SCUVTppW38sCyaCJ76Ms+WsejBes3UffW00TVd0paOUtHincVE0bon4ZmQSSx7XqDqNqcZwJvntwcJIu9ldSSmFKZwcMVbthDCJCR2dH4O79QrGIwaGhiKOqzNSW+t7+2pol4/7Nh75PK2+pqgs2hLuFfz0mG5QUDSsxLYVEzN6ey9WRjtfNP5fLI58vr2RtW1tWyzi72tsTELRrf3w8h0IhfuV4p2Ti9RkoR/LINMwp9f0dFGVjMugH1TZSdQJgdz/0FBh91bYj6pd1XCuMOr6Bmipe3aajY+XN6bFtCylH3wMgkUggkw6+fHJsLPiwRq2Yddp1bmSTSEqp32Z0n710/TPVNhJOf6Gi60NpR9QnRbBObgdJ2dyqMTOKxfJWV7Rl9U/8am1tgQo4/JCPYQ9APVK2AfvENjTERBxRJvp+GK2EkgDYhvWfAPaE0ZaoTyqp4JzSLpOQquR5XlkT5VJOPJbYEREymWC9AL7vw/fre8a9bmQq2Ke0g2K6dFVEh8FDdr5YUe3/A4Xy6aEl60YZuDGMtkT9UikTlryRVMUvc5Z8uoyu96hl0unAcwHK/f8U+1EE+5Q2mfTXrEj9gC7aGMo4Wmjpo0H8b5DJgE3PbLdgz6r/lQH1wDAMWFZ8VjAopWIVT6OyZ7XCiOHKFVEbhnK/G1ZboSUAVvfAYwAeDKs9Ub/MqQ6SDb7TWhzY9uRr8GvNtmzdITQ065gWmF0y47+JrbPeuOHRsBoLdwCJ8O1Q2xN1KyE3qshZyfglANIDEJ3E9BQSR0pi3cw45GdsqAmAXWy/FcCOMNsU9YkIsE9olfXJEUok4jcGHIcJiY3InOog+RoZWmty25zdIz8Ns8FQEwBavroAJukFEHsRrOOzMNrj96baCAwjfssuiSiWcdUzs8OGPatV5taKb9HKR0PdgS30NSS+X/wWgMbZJk5UhRTgnNQGo1W6hsMWdN19rSl5UoXG7LBgnyQrawQKnuldF3ajod9B0udtfBmEm8NuV9QxRbBf2w6jzuutx0kcd9X7kzjHVkeMrLW30I/uSEQM/EdmyYatYTcaySuET7gminZF/SJFsE/pgJIkIBTMHMud9QDENq56YmQt2Ke0ATErUy308Fh9I4p2I0kA0kv7NwF4IIq2Rf0ik+DM7oCRlTkBYYhrNb24xlUvjHYLziltIHn4CwAgujfTu/7hKJqObBCRIb0A4tVo73CAKRMDq+a6Ve0EGgkp81sdc4oN5+R2efMXf0Iefy2qtiNLAJwH+38G4LGo2hf1iwiwTmqH2SlFY6pRKpV0h/AqcYypXphdDuwTsjLmL/b3uNXXf0dUjUeWANAq+CD6alTti/pGCrBPzEqxoCoUYrirXqEgC4AqkZie2vvwl6e/2B99kVYhsi61SNcR2W3FHwJ4PspriDpGBPuELJIzZT/zSuQLhdhNuMvl87pDqDvJmRlYx0qRH3EAxgv24J4fR3mJSBMAOmNjicGRzF4UjSM5MwN7lnR9AuX9CJgZuVwusljKVSqVAg8ByD/1vmqZbZIAi4Mi8JfDLvxzoMgriTiOeR0RBqO+jqhv5jQH9ikdILO5Hw3lFvcZGR2LKJLyjYyOBj42rkWMaoUSCvbsDphdMg9GHNRuK+H8e9QXifxbSOc8OMLgf436OqL+mW1JOHM6QVbzlpI1DKOsh2OpVIpFt3vJdTE+Hqw3wjTNeBcyipiyDThzOqQ6pjg04q/RknXBM+oK1SQNt9n9KoOHanEtUd9UykTq1A6odPNuKmPb5b0VDg0Na58LMDQ0HPhYp8z/v0ZitCbhzO2Ecpr38y0mNZw3nJq8NNckAaCejcME+mYtriXqHyUNOHOnIDEtVZPr5YrxWk/f2lLemLDneRge3hNRNJMbHRsLvCKBiJDJxG9L21wx+toFiWkpOLM7QGZzD3+ISTB9tX3Jupq8MNfsk5g37a9IL4AIigiwZrXCPj4beVGUnWPxWrtumiayreXNCh8dGwvcBR+mYrFYVvLRls3GcrfAbSPRzbUig2Cf2AZrVqvMfhSTGc4nrJpNnK9ZAtC+ZN0QEV1bq+uJxmBOdeDM6Yh0XsD2kRKKXryW07W0ZNCSKa8nYHBoqKa1AVzXxc5duwMPP2RbW5FO16ZXp1wvDUWTAJBjwjm1E+aU5h32EGW5plZv/0ANEwAAKMH/KgB9fZWiLhmZBFJzO2Fko5k0VXR9/PbZ+H0ss9lWdHZ2wDSDjRczM3bu2o1cLvpJgaVSCTt27gpU9jeRSKBrSidayhzaqJWXhwvYsjP83hOzw0bq1E6olIz3i8kRYTBv2l+v5TVr+sls7X5oV+7uRV8FsKqW1xX1jxIKzuwOlF4aQ/G/R8AhD9mufXIQZ83KhttoCBzbhmPbKBaLKBSL8Dxv0jfufCE/scY8osl2xWIR47kcbPvQ+zkQEQzDgG1ZSCTivQPkvU+E/MKlCNbRGSRmxG+ug4gvBn2plm//QI0TAACwTfsreTf/QQDTan1tUf8SM9Iw2izknxqCP+6G1u6df9iFdy+ejqNiuklRMplEMhmPZWNxiqVaBdfHjzZsC609lTJhn9gmb/2iXNttW9V8onzNp6PSknWjDPpira8rGodKmUjN7URienjjySWPce19L4bWnqgPP+zbiu0hTQBMTE/BmTtFHv6ibMR8JZ3z4Eitr6tlPYozuOdaAFt0XFs0CEWwjm2FfUo7KBHOx3jN47tx88btobQl4m9gyx5cv/7lqtshy4AzuwPWsa0gWeEnykV41nI7vqfj0lo+rhP1jekqHdcWjcVst5Ca1xVazYBr1jyPe56QytWN7g8vjuFTP3sGnl/d6o/EtBRSp02JbIKqaAJMn6Xlq7Vs7aktX7UHj/oBA4/our5oHGQSrFmtcOZ0VF1hzfMZn/rpM/jub16CH7Od9kQ4fvG7nfjATU9gJF95AShyTDhzOmDNam36/StE5Qj8sD141E26rq8tAaCVt3hEfIWu64vGY7QmkTqtE4kj06im4goD+O4DL+Evv/cY7v+vIUga0BgeeWEU77/xCVx157OV130gIHFkGqnTp0gtf1E1ZnUFrbxFWylSrbNVnO6Btfm7F/6MQW/WGYdoIIpgHdOCRKeNwpY98EYqr/K3ZWcOf3vr0+jKJPC6E9ow98gMuloS6GpJImHIW1+cuR5j93gJ2/eU8OS2cdz31CCeH6yul9XIJmEd2yqT/ERYbnZ6++7TGYD+TzL5fwM2zgcQz/VXoi6pTALOqZ1wd+VRfHYEfqHyJHvHaAm3bd6B2zbvCDFCUS/IMmDNzMCc6ugORTSOPFx8QncQ2ues2t0b/kiMmlY/Es3D7LThnD4FyZmZyPcUEI2FFCE5M4P0vCny8Bdh+7Jzfv+zuoPQngAAgJUyrgKo+vU4QhwEGXtv5KdPgdkhNdnF4RFN7EGRmt8liaOIwou2aV+tOwggJgkAnfPgCAif0R2HaGxkG7BPboMztxNGTCv+Cb2MrAX71E7Yx2dByVjcHkWjYf4kLVk3qjsMICYJAADYD/R9fyyvmqoXgCjYm0XQ3dZEMEYmAeeUdjhzOmBkJREQEw/+1NxOOLPbYWTivXdB3Qm6cUdzVFEasHsGtC37O1BsfuK0Cv7mP5prdMdRW0F//CHvfCMATCwbdGa3wzm1U5Z0NSmjJQlnTgec2e1Q8uCPRuCdu2LzOIoKA/y3RPFZWax/FcB+tmwzX4zRzyZ6QTNe1rZMtCkYLQk4czrgDRdQfHEMXkR7w4t4IAKMdhuJGSlJ/GqAA2wZDaAJ5lrQjU5P/wO6o9hfrBKApqOCJQDsuiB5OYmckbXgZC1wzkVx6zhK23JAlaViRXwQAeYUB4mj0lVXjBTBsR9s104KeD+sU6Os8A+6gziQfAs0UoaJIO/27IW37a2YHDkmrGNbkTwqg9LWcZS2joNLMgxTryihkDgihcT0FMhs6IdMPHnBinGRatzHEYM+k1raF7vtRhv3J14PVLDXet8twIg4FPFqlFBIzswgeWQa7mABpa05eMNa9uwQFTBakjCn2kh0OU3QvRxffingkJrRsN2cG5zBo/5VdxAHIwmARmQG/MC7JbDvgZSkAVoogtlpw+y04edclLbn4G7PSa9ADFFSwexykJiWgrLl+6Ibuy7gB5vDRGZDPo5cH3S5znr/h9OQP/F6QUZiYiJggFmyXMyD7HQNohKHoxwT1jEtSB7dAm9XHqUdOfjDheATnUX4FMFst2B2OTDbkxOD/SIWuJQLdBwpo1GHAL6Y7unbrDuIQ2nIn3jdIIDMJLiUn/RQvzAOJQlAbExMKLNhTrHBLsPbnUdpVx7eUAHNtJBFFyJAtVlIdNowOmzZkjem/MJYoOMo2ZAVOp+yTfsLuoM4HEkANFNJG16ABABuHuy7jZol1zUyCeZUB+ZUB+z6cHfl4e4swNsjyUCoFMHMJmF22jA6bZDsyBhr7BbBbrAJgCrRcAkAw/c/SEvWBbi56yNPkwipAAV8KOEAGJr0OGbAz43ASLeHEJmICpkKiWkpJKalwD7DHynC3V2At7tQ1Y6EzYpsA2bWgtGWhJG15E2/jnjjIwGPJFCABMAItGYqNq5zlj10r+4gJiMJQIRsTJ78kWlODAO4k8+U9XNjMJxWQCYD1gVSBCNrTZQbPhbwcy7cwQK8wSL8kSJYagy8CpkEoyUJo82C2ZYEyXr9usReCSiNBzpWJa1ANVFSCDafQD96OW9asVvzfzDy7YqQE/ADq6wUvAAJAMDwxgZhtEypLjChhXJMJB0TmJEGwPBzHrw9Rfh7SnD3FMFN2ENASTXxwG9JQLUkJ+rwy0t+3fNGhxB0CxOygs1tsjnWvel/wowPty9ZN3m3bgxIAhChDAJmwFYa/vhwoE1//EIOys4H6jITcUZQjjlRkW4aYAHgggdvTwneeAk87sIbc8HFxkkKyDKgUiaMVAIqY8JoSYCS0pvVaPz8eKCJzQBApEBJJ9CxQe+nOhHTrU5v3091xxGUJAAROoK3BXubUQpkZ8C5YGNm3p5dMNunBy4lLOoDWQbMLgMm/pzcccmHn3Phj7nwx134eQ9ccCfmE8RwBIEIgG1CWQrKMqHSCai0CZUyZdJeE2DPhT8+GPh4SrUE3hV1Om+tNKxa2e4q/yO6gyiHJAAROpJfCnys4bSA8yOBus2YfXgjO2FkuyD9pY2NEgpGInmQTWsYfsEHFzxw3oNf8MAlD1xisOtP/Nr751D2M1AEMtXErwSBEvv+rEC2AbX3oY+EIcvwmxUz/JFdwTf/IYJhZwI3fxSC3081YPLxvsyygW26AymHJAAROqqMBADKAFkZcH400OF+qQCMDsLIdFQYnahvBGUZgGUArYc/kj0Ge/ynRIBdH0QE9nzsn3GSUntL5jJgqL1/R4BB8vYuJsHwRnbBDzSXaYLhtAbfERXADH65ksBqgomvdZYN/FJ3HOWSBCBCJ/LTMODBC1jJX6Wy8Iu5wKUz/fwYQApGuq2aMEWDo1c9wGXcXYSJ4Y0OTty7gjIMKKcl8OEp5HA0P19BbDXxuJNz/153EJWQQeQIpZDDLN4S+HhSCkYqW9Y1/NwIvNHdsRwPFkI0OoY3snviZaQMRrq9rJLNp/JjCLZ3as0VPFbvoIs2xn+G4kFIAhCx0/j3ZR2v7HTZM/z9/BjcPTvAUpBeCFErvgd3eDv8QnnPPmWloALO/N9nrv+Hso6vFSZ8KtO7/mHdcVRKEoCIneVvKPscs6Wz7Bn+XMrDHXy5vG44IYSoABfGURraCg661e9epMyy5y0RGIu5/Pto5Bh3Ow/0f013GNWQBCBiJ/F/YSa/WN5JSsFs6Sx/NrXvw9uzE96enYHnEQghRFDsleANb4c7sgsIOtv/TwhG65Syd2s8hZ+cWFIdI0QYZPbeS6sC1HuPMUkAamCJ/5uyz6GEDZWqbHKfX8yhNPgSvNHdEyU5hRCiCuyW4I7sgju4bWIFUgXMlnaQmSj7vDf691d0vSj5Pl2eWrYhtrMSg5IEoAbO89fAQnldZQCgnBao1CRrvA6F984NGNwKd3g7vPwo2HMra0sI0XTYd+HnRuAObYU7tBVcGEels42NdHvgkr/7y/AozvUfqOia0aHvpHr7btEdRRhkGWANtGEYvf69+KU6r+xzjVQW8L2yZ9nuj0sFcKkAHwAZJsi09v5uTqzDJaPsbjkhRP0jYKIEOXtg3wf7LuCWwKXixJ9DoFKtUE7wgj/7ezPfEbdNgH5v+2P/V3cQYZEEoEYu8X+O1dQNl8r/kRuZDpAy4Y0PVx0He670BAghasJIZSvuxUxjHBf7q0OOqHIMHlKeeiud90jlb2MxI0MANdLFO/EWrrxQlEq1QmXaIaV/hRBxRwQYLR2VD2ECuNS7BRmOzbOWweoy+7y+p3UHEiZJAGroHf5PcARvr/h8w87AzHaBlFRyE0LEExkmVOtUqArG/Pc5Bs/jwhi9/YP486k62uUvKEkAasjiAi73rgdVUbaPEhaMtmlQSdkOWAgRL5RMwWybBpWwKm5DwcdH3eviU/mPcbe9++grdYcRhYZOAAolBN+XskYW8ka8ybuzqjZIGTBauybW1EpvgBBCM1IGjEwHzNbOsjb4OZi/8m7GKfxkSJFV7blSovQOWnlLTLKRcDV0ArDuUesGIF5TSAHgMv8GnMxPVd2OSjpItE+HYbfILH4hRO2RguG0wmifDmVX3uW/z1z+A1b6selpz/s+v611ycadugOJSkMnAFteVi+D+XLdcRzIhIdPe1/GNN5RfWNEUJk2JNqnT0y4kURACBE1UlCpVpjt06HSWVAI950j+WX8g3cNVGyK6/GH0ssGNuqOIkoNnQAAgNM7cAOYr9Mdx4E6eBBf8K5Elqtf2gcAUAaMVBaJjhkwMu0gs/IxOCGEOBDRRIVSI9OBRMd0GKksqMw9Sw6lE7vxBffzyPKeUNqrFgPfdHoGvq87jqg1fAIAALbb8TEAA7rjONAM3oorvX9GK0L80JOCsjMw26bCbJ8+kQwknbI3FxJCCCgDykrBSLfDbJ8BM9s10dVf5Tj//vY9/KcihB7RMDDWO4Mjf6M7jFpoikJAtHx1YXTtmW82XKMfwDG649nfCfwMvuT+Ez5tfBo7aEqobZNhgowMlJ0BwGDXA3slsF8CuyUQ+2AGwB4m/iCEaCYMTHTf760GSkqBjATIMIF9v0doJr+Iq7yr0MWxGWbf4il+K618tPza7XUoVgmAAo+H+RjyQal9f84s2bC1cPei85nwIDPaQ7xM1Wbyi/iq+4/4vPl3eIqOj+gqBDL3lv9FeXtxCyFE2E7zf49PedegBSO6Q9lnWPnqYmfZ+nhtPRihWPULM4X7SSDGKwpQWz39j7NPbwFQ2XZWEerEbnzF/TQu9W4BcVwmwQghRLgIjBXez/AF76o4PfxLYHqbtWz9H3QHUkvxSgA45E8DIXvgXzm9ffcx01+j0m2tImTAw6X+zVjlX11VxUAhhIijo/kFXO19Fn/t3xSj2f5ggN7n9PbdozuQWotVAkDEoSYADBx3sL9P9fb9CMSfD/NaYTrT34RvuR/H2/2fIAHZuEcIUd8c5HGZdyO+6f4t5viP6w7nlYg/6/T0/VB3GDrEKgEAwpwODxBw0qH+m710YBXAsf1Ht1DEu7wf4welD2CF9zNYHLtRCyGEOKwUcniTfye+634Ul/g/j0953z/hH9lLB67SHYUusaoac8bc807yDeOJMNssuej4/e/vOGhJYP7tgkR+MLEawNIwrxmFYWrFr9Ubca96PZ7DTN3hCCHEIc3iP6Lbvx9L/bXIYFx3OIdyn11qX0bLVzft21WsEoAFCxYk2D9iDEAirDYZeNPmzXf84pD//e4F2TwSDwCYE9Y1o/YMHYc+OhO/U3PwJJ0AF7IfgBBCnyRKOJmfxOn+H3AWD+BofkF3SJN5rFAwz2m78IHY7RdTS7FKAABg/vwLnwDzIbvuyytIUpwAAA7wSURBVEb89U2b7rzicIfkVi96DUz0A5gW2nVrJA8bz9CxeJ5m4AWagW00FeNIYRRpFGChGF4uJerQtiEDXohzrY5o96EodvNnRQ0kUYKNPNIYR5rHMJ234Ui8hKP5RRzHW5BESXeIQW2FUoucpeuf0x2IbrGqAwAAYH4Shxm7L789WjbZIc75/c+O3bXwAqXoHuDVKwfizEYes/lxzOaYTawRsXDhNe0YGQlvqs+PPjOI9pbYzN4WoiwMHvLZOD8jD38A8ZsECALCfpKdPG/e8jMmOyi9bGAjkzofwGjI1xdCCKHfOBFfnOld/7DuQOIidgkAGL8Jv1H1ziBHpbrX94HpzQDy4ccghBBCkxyIL3S6H4rg+VK/YpcA2DnjfiDcxe8EftfChee3BjnW6e27h0BvRgyrBQohhChbiYhWOt0Da3UHEjexSwAefPIXIwA2hNxsm1ukDwU92O7pu4uBdyDkREQIIURNeUz8Lru773bdgcRR7BIAAADj3vCbVB8/+6SLW4Ien+rpvw2E9wHxqVcphBAiMAbjA6nugR/rDiSuYpkAkKF+FX6rPHU85X22nDOc7v4fEPNHw49FCCFEhJiIP+L09n9PdyBxFssEYOPGXz4Ixh/DbpeAj82bd+Fp5Zxj9w78G4M+HnYsQgghosGMf7C7B67VHUfcxTIBAMBMuDGCdk2C/8PFi1c45ZyU6un7GoCmrRcthBB15HOp3v6rdQdRD+KaAIDIuAGRbNlLcwu53JfKPcvp6f8MMz4ZfjxCCCHCQISrnZ7+VbrjqBexTQA2bfrF0wD6Immc+MPzT1/+nnJPS/X2X82ET0QQkRBCiGoQ/5Pd3S8vaWWIbQIAAAy6JrLGib43f/6Fbyn3tFR3/78Q44OQ1QFCCBEHTMxXON0Dn9cdSL2JdQKwefMZtyH80sD7GGC+8YzTl/eUe6Ld2/9tEN4FqRMghBA6eQC/1+4d+LruQOpRrBMAYJXPoC9GeIGUT3T7vHkXvL3cE53u/psYuBSony2whBCigRSZ+O1Oz8D3dQdSr2KeAADZ7Oh/RLEkcD9JAm5aMO+CzwCryvp5pHr6byb4bwGQiyg2IYQQr1ZQ4JWp7oFbdQdSz2KfAKxbt84F6J8ivoxi4Mr58zbctXDOxdPKOdHueegOMJ0PYCSi2IQQQvzZGBEutHoGfq47kHoX+wQAADY9fPtNAIVeHvgguksJ74kFp1/4sRUrVhhBT3J6++7zSS0FsDvC2IQQoqkxeIgV9drd/Wt0x9II6iIBAAAQfwRAsQZXamPirz3z9Fjf/PnLzwt6Urp7/Qbf514A2yKMTQghmtVWhnpjamnfet2BNIq6SQA2bbrjcQKiWxb4KnQmmFbPn3fBhvnzl68899xz7cnOSC8b2AjfX4zoVi4IIUTzYXoUSi1K9/Rt1h1KI6mbBAAAoNSVAB6r8VXPANN/7hlOvzz/9Auumzfv/PNnz16ROdTBzrKHthQK5tkAZO9pIYSoFtG9+YR1jrN0/XO6Q2k0pDuAcp122kWzDeU/BCClMYwSAw8R4XfMeEL56kk2/F1E/lCp5I0wJ0oLj80nV70797VkgsteYihEWN7+L+0YGgvva377ZwbR3iI1sESNEP6/vXvkclr5aC2Gf5tO3SUAADBv3gWXEfDvuuMQotlIAiBqhAFcaXf3f44oij1hBFBvQwB7bd58x/UE/qHuOIQQQoSuCOZ3Oz39q+ThH626TAAAIGmnPwDgN7rjEEIIEQ4iDAJY5vQO3KA7lmZQtwlAX98tOVKFiwh4WHcsQgghqraFGGc7Pf3rdAfSLOo2AQCAjRvXDPswLgDwrO5YhBBCVIix3vXVIqunX5ZQ11BdJwAAsHnzL15SnncegJd0xyKEEKJc9B17aGRJy7L123VH0mzqPgEAgN8+8qsnGXwWiJ7UHYsQQohA8gC91+npk2V+mjREAgAAmzff+ZxVKJ0FQMpECiFEvP23T+r1Tk/f9boDaWYNkwAAQN+jd+0uFFPLGLhTdyxCCCEOgrG66NG8dPf6DbpDaXYNlQAAwKOP3jK6efOZF4HxjwBc3fEIIYQAADARrrbX91+YPa9Pdk6NgbqsBBjUggXLF7JPPwbwGt2xCFHviIB7v7ALSVN3JKIO7WGm96R6+36qOxDxZw3XA7C/jRvvHGD4fwHQT3THIkS9a3F8efiLSjyhgEXy8I+fhk4AAGDz5tU7Nm2+/RKQvxTAE7rjEaJenXqMpzsEUX++a/vjZ8j6/nhq+ARgn02bVt/bmh2bB6LPAcjrjkeIevO62QXdIYg6weAhJv5Lp6f//bTskTHd8YiDa+g5AIcyd27vVNNMfgjMHwfQqjseIeKuK+vjx38/BDshe7OISd3Dit6dWtr3ou5AxOEZugPQYdu2Z8ZefvmpdUdMP/7fAbgEOg2ApTsuIeLqE28bw4lHyqIacVglAFfZD/a/L3nZC3t0ByMm15Q9AAdauPD81lLJeBszv4uA16OJhkaEmMzKc/L42MXSiysO63EfdGm6p2+z7kBEcJIAHGDevOXHENFfgfEWAPMgyYBoUkTApefmcPl5OSiSrn9xKHSD7Y99UMb6648kAIexePayjoKVeAOY3wjgjQBOQpMOm4jmcuw0Dx++YByLT5YS7eKQdpCP99rL+n+pOxBRGUkAynD88edbbSl1gmfwSYrViaz4RDB3MqiFgBYAbQC1AJyoVUyKWFlJpEyFml1TNJ6UxZja5uP4I1ycM7uIvzixBCV3B3EIBPzEJf5wpntgm+5YROXkK94gxn+9eAURXwtgiu5YhBANaysT/59U98CtugMR1ZPx7QaR6u27xfXVbIBu0B2LEKLhMEA3FD2aLQ//xiE9AA1ofM3CS4jpXwEcoTsWIUS94yfhG+93lq2/X3ckIlzSA9CAUt0Dt9ooncyMbwCQ+q1CiEq4RLjaNp3T5eHfmKQHoMGN3bNovsH4DjMW6I5FCFEfCNjs+fy/08sGNuqORURHegAaXHpp/yarrbSYGZ8EMK47HiFErI0x6OPW4Mwz5eHf+KQHoImM37P4SPLxzwC/U3csQohYYSLcyqT+zlm6/jndwYjakASgCeXWLFwCpm8AmKM7FiGEbvRbZr4i1dv/oO5IRG3JEEATcroH1tqmPY+YrwAwrDseIYQWLxHx5faDfQvl4d+cpAegyY2uWTjNYHUlwO+FlDkWohnkAXzF9sf/Wer3NzdJAAQAoHDX4pPZ4CuZsUJ3LEKIaDBwO/n+R51lD23RHYvQTxIA8Qr5NYu6feDLxDhNdyxCiHAQsJl9dYWs5xf7kzkA4hXs7v41zu6ZCwC+DIDMBhaivm0B6N3Wg/1nyMNfHEh6AMQh8c2zk4WOzHuY6XOQssJC1JOdzPiyk7C/TkvW5XUHI+JJEgAxKb5rbjpHqY+A+JMEatMdjxDikEaIcK1V5P9Hywf26A5GxJskACIwfuDslty49yFJBISInREiXJvPm1e3XfjAoO5gRH2QBECUbV8ioBQ+wYx23fEI0cTkwS8qJgmAqNjg2nPbbDf/MQAfBdChOx4hmsguEH/dZvcb1LNRinmJikgCIKrGa8+1825hJeB/CqCTdMcjRAPbCuA6G6Vr5MEvqiUJgAgNr4IqLF50ARM+CcJZuuMRooE8TczftNyOb9Py1QXdwYjGIAmAiETu7oXnEPA3DLoYUm9CiEqtJR/XWL39txOBdQcjGoskACJS+TVnHuf7xseI8D4AKd3xCFEHikT4ue/hK6ll/QO6gxGNSxIAURMjd76uyzTdD4L4wwCm6o5HiBjaBuDbHvG3Mt0D23QHIxqfJACipvjm2clcW+ubiPj9AJZCPoOiyRFhI8DfsVLqBjqrL6c7HtE85OYrtMnfe/ZJ8L2/Zsb7AHTqjkeIGhoG6D8V8E2rp+/3uoMRzUkSAKEd3zU3nafUChBdBvA5kM+laEwM4H6ArrfzxVvpoo3jugMSzU1utCJWxu86cybIeAcRLgdwrO54hAjBi0S4ES59zz6v72ndwQixjyQAIpZ4FVTh7MU9DH4ngDcDSOuOSYgyjAD0MyL/BuuBgXtoFXzdAQlxIEkAROzx2nPtQjHfAwPvZMabACR1xyTEQXgA1gJ0g21at9GSdaO6AxLicCQBEHVlz5q/6EzCuISBlWB+AwBDd0yiqbkA1gG4uejRT7Ln9e3WHI8QgUkCIOrW8K8WdyQNXMjgFQT0QnoGRG14APqJ+RZX4ceyZl/UK0kAREMYXHtum13KXUREb+KJZKBFd0yioewhwl3s8y9scn8pG/GIRiAJgGg4fPMKI9/+34uJ6EJmXAzgFN0xiXpEfwSwhny+3RoeuYtWPlrUHZEQYZIEQDS8wl2LT/YUziNwD4A3QFYUiIMbBeg+Yv9uKF5tdz/0lO6AhIiSJACiqfDNs5P59pazwNwLUj0Az4NMJGxWHoBNAH4NprvtoT198pYvmokkAKKp8dpzMwUvv4gZ5wA4G8DrIZMJG5VHhId9Hw8C9EDJxz0ya180M0kAhNgPrz03UyjlzmKoc0BYCPBCAFndcYnyMXiIgAGA+onwgOWN99GyR8Z0xyVEXEgCIMRh8Cqo4jkLT/YZCwG1iIkXEuO1ABK6YxOvUCLwo8wTD3xFGEh29z9BBNYdmBBxJQmAEGXi3y5IFPeoE33PXMDMC4iwAMBpADK6Y2sSo0R4kpkeI/Y3MmGjnVYbZStdIcojCYAQIRn79dkzDOW9Fj7PZlKvBXg2gLmQmgSVKgB4hgiPMuMxZnrUMN3HkvdveFxq6wtRPUkAhIgQMyj36zOPIkMdD59mkcLxYBwP8CwGzYIkB3sI/EewepoJT4P5GRCeZpOfds4deFG68IWIjiQAQmg0dPs57Y7lHcWEY8A8kwlHgWkmwDMATAPQtfeX0htp2XwAO/b+2gbQSyB+nnw8D0UvEOO5cdN6vn3JuiHNcQrRtCQBECLm+OYVxljXs10J1+zyfa+LDeogn9qYuI2w93emNiKkmNECwCaCw4w0QEmAs0R/TiCYYQNwDrhMjgj5/Y7xARoGuEiEMWYaB7hAhBFmjDPxEDENMXiISA0y+0Pk86BSxo6S6e5I37dhu3TTCxFv/wM/TyEYm2WdIQAAAABJRU5ErkJggg==;" parent="1" vertex="1">
          <mxGeometry x="421" y="72" width="354" height="354" as="geometry" />
        </mxCell>
        <mxCell id="M6gj8kt36gLy5a3jpEOS-12" value="" style="shape=image;verticalLabelPosition=bottom;labelBackgroundColor=default;verticalAlign=top;aspect=fixed;imageAspect=0;image=data:image/png,iVBORw0KGgoAAAANSUhEUgAAAgAAAAIACAYAAAD0eNT6AAAABHNCSVQICAgIfAhkiAAAAAlwSFlzAAAOxAAADsQBlSsOGwAAABl0RVh0U29mdHdhcmUAd3d3Lmlua3NjYXBlLm9yZ5vuPBoAACAASURBVHic7N13nFx1vf/x17Sd7ZveE5JAQiCEUBJ6AOklICBFBOmiXrH+xAKigIpeFQsWygUFpAWkSJFA6AmhpTdCetnN9jK7O33mnN8fk8QEUnb3nJkzs+f99LEPks2e7/m47bznWz2IiIhkXz/gQGAsMBAYuvW/A4EhQF+g6lPXlADFQCcQ2vrWvsOfG4GNwLqtb+uBtiz//+g1PE4XICIivUoQmApMBiYCE8g8+Afn6P4tZMLAIuAj4ENgGZDK0f0LhgKAiIhY0Qc4duvbNGAKmVft+SQKLCQTCGYDr5HpQRAREZFumAz8DFgApAGzwN4SwJvAD4BJNn9uREREeg0vcBxwJ7AW5x/gdr9tAv4GHGPXJ0xERKSQjQXuALbg/EM6V2+fADcDo2z4/ImIiBSMIuAi4FUKs3vfrrc0mbkCl2/9nIiIiPRKg8i82q/H+Ydvvr3VAD/ks8sURURECtZg4NdAGOcftPn+1gH8CQ0PiIhIARsD3APEcP7BWmhvCeChrZ9DERGRgjAIuBdI4vyDtNDfYsBvyexiKCIikpcCwLfJbJXr9IOzt701k5kjEOzyV0NERCQHzgJW4vyDsre/rQHO7+LXREREJGv2Af6D8w9Gt739i9ydfSAiIrKTi8gcjOP0w9Ctb63A9Xv9KomIiNhkMPAczj8A9ZZ5e5k8XTao0wBFRHqPi8nsad/f6UJ2pbQiyKj9BjBgaBUDhlQwYGglA4dV0ndgOaXlQQJBPyWlAXx+H2UVQTxeD7FoklQijWEYdLRF6WiN0t4aJdQSpr46RH11Gw01IarXNtEZijn9f3F32oGvAE86XciOFABERApfMXA3cJXDdWxX1a+U/Q8dzpgDBjP2gMGMnjCYISP7ZPWezXUdbPikgXUf1/PJwmpWLqyhoy2a1Xt2013AjWT2EXCcAoCISGEbCTwDTHGyiGBJgAMPH8HkY8dwyDFjGD1hMB6HnzCmCTXrmljy/kYWvLOWJe9vJB5NOlsUvE+mp2az04UoAIiIFK4TyXQrD3Ti5qXlQY48ZRzTzp7IwUePJlDkc6KMLkvEUyz7YBPvzvyY92d94uSQQROZQ4ZecaoAUAAQESlU3yGzC50/lzctCvqZcuJ+TJt+IFNO2I+i4pze3japZJqFc9bz+tOL+fCN1aRTRq5LMMgMB/w+1zfeRgFARKSw+ID7gGtyedN+g8o567LDOe2SQ6nqV5rLW2dda2OYN55ZwszHF9CwJZTr2/8B+D6ZQJBTCgAiIoUjCDxODnebGz95GOdcOZVjzzgAn9+bq9s6Ip02mDtzJc898AFrltXm8tYzgCuBeC5vqgAgIlIYysms7z85FzcbP3kYl3/3BCYf484D7xa9u57H/vQOnyyqydUt3yIT7NpydUMFABGR/NePzJa+R2b7RvuMH8Tl3z2BI04el+1bFYR5b63hkT+8zfqP63Nxu6XAKUBDLm6mACAikt+GArOAidm8Sd+B5Vz1g5M44ZyJeLx6NOzINExm/Wsxj/zhbULN4WzfbglwEpkTBrNKX2URkfzVH3ibLD78PV4PZ156GF/+3omUVug02z2JdMR57K53eOmReRhpM5u3WkBmqCerwwEKACIi+akUeBU4Nls3GHPAYL5+2xnsf8jwbN2iV1q3op6/3PwSa5fXZfM2HwCnkdlGOCsUAERE8k8QeIksTfjz+bx88ZvTuPCrx+D16THQE+mUwYy/zeGpu9/NZm/AHOAMICvjDvrKi4jkFx+ZpX4XZaPxQcOq+O6d53Lg4SOz0bzrrFq8hd9//9/UbmzN1i1mAtOBtN0N5/e+jSIi7nM/mW1ibXf8ORO55f8uZtjoftlo3pX6D6ngpAsOpnZjK5vXNGXjFvuRWQL6qt0NKwCIiOSP7wA/trtRn9/L/9x+Jl/+3okEigpz6958Fijyc+wZB1BcGmDp+xsxTduHBI4GashMDrSNhgBERPLDiWSW+9n6hC6vKuFHf76ASUftY2ezshuL39vAb771TDYOGkqSmRT4ll0NKgCIiDhvFDAPm0/1Gz6mPz+59yJ1+edY9bpmfv6VGdRttn0VXzNwFLDGjsYUAEREnFUMzAam2NnoQUfuw4//8gXKq4rtbFa6KNQc5udffYrVS7bY3fQiMiHA8rkBmgMgIuKs+4Cz7Wzw0OPGcMu9F1NSXmRns9INxaVFTDv7QFYuqqGhxtYTBoeQmRT4itWGFABERJxzPvBrOxs8/IR9+fHfLqSoWJP9nBYo8nH89IlsXNVIzTpbd/Y9EpgPrLLSiAKAiIgzhpBZ411qV4NHn7Y/P/zzBZrpn0d8Pi9Hn7Y/a5bV2rlXgIfMoUGPAJ09rs2uakREpFseBw6xq7GpJ43jh3++AL9fv9bzjdfn5ZjTJvDxgmo7hwPKgEnAoz1tQN8pIiK5dw1wo12NjZ88jFvuvViv/POYz+/lmNMnsPi9DbTUd9jV7H5AHZkVJN2mVQAiIrk1GlgMVNrR2JBRffnNjCuo6l9mR3OSZe2tEX5w8UN2DgeEgAOA2u5eqB4AEZHcegw4yI6G+gwo45ePXM6AIbZkCcmBYEmAQ44byzsvLCcRT9nRZDEwGHi2uxd67bi7iIh0yVnAmXY05PN7+fFfL2TIyD52NCc5NGJsf35w1wV2nsR4GXBSdy9SD4CISG4UAc8BA+xo7LqbTuGYMybY0ZQ4YMjIPhQFAyyeu96O5jzAMcD/AV3uVlAAEBHJjW8DX7KjoWPPPICrf3SyHU2JgyYcNoJNqxvZvNaWUwT7AzEyu0p2iSYBiohk3yAym7ZUWW1o2Oh+3PnM1ZSWB61XJY6LdMT59rn327U8MATsS+bMgL1SD4CISPb9HjjWaiP+gI/bH/oSA4dZzhGSJwJBP/tNGsqbzy3FhlOEtx388FpXPlgBQEQku8YAD2DD79tLvnEcx511oPWKJK8MHFZFOmWw/KPNdjR3KPAPurBDoFYBiIhk1w+BgNVG9hk/iAu/dowN5Ug+uuQbxzFqnC2nQZcCN3XlAxUARESyZwRwldVGvD4P3/zV2fgD6rTtrfwBH9+842y7lgZeT6bnaY/03SQikj23Y8PY/3nXHsXJFxxsQzmSz/oPqaCjNcqqJVusNuUDgsBLe/ogrQIQEcmOwcA6LJ72V9W/jHtf+zolZUX2VCV5Ldwe4+un3UOoJWK1qQgwij2sCNAQgIhIdnwbG476vezbx+vh7yJllcV86dvH29FUKXD1nj5AAUBExH5FwLVWGxm53wBOuWiyDeVIITnt4kPZZ/wgO5r6BnsY6lcAEBGx33lkNv+x5KofnITPp1/TbuP1ebjsO7b0AowGzt3tfey4g4iI7OQ6qw0cdMQoppy4nx21SAE64uTxjJs01I6mvrW7f1AAEBGx11jA8kb9F1x/tA2lSKHyeOBL3z7BjqZOBMbv6h8UAERE7HUdFn+37jN+EIdN29emcqRQHXb8WMYeONiOpr64q3cqAIiI2MeHDRv/nH/dkXi0SFuA86450o5mLt3VOxUARETscwxgaeC2/+AKpp2t/f4l47izD2TgsEqrzUwgc0bAThQARETsc57VBs7+8hRt+Svb+XxeTr/kM8/unvhML4ACgIiIfSwFAI/Xw4nnHmRXLdJLnHLhIfj8lh/XX+RTz3wFABERexxMZgVAjx163Bj6D6mwqRzpLfoOLOPwEyxPCh0JTNnxHQoAIiL2ON9qAyedrwN/ZNdO/oItO0KesuNf/Ha0KDuZRGYZ0MlkdmEqc7QaEXcLAxuA14D7gWVZvNdud1zrirLKYo48eZfLtSVPbFzVyKszFrJo7gYat4QAGDS8isnHjOH0Sw5h1LiBWbv3YdPGUloeJNIZt9LMKcAd2/6ihSb2CQJ/AL6KelZE8lEauAf4HpCwue0+ZE5d6/HP/qkXTeaGX55tX0Vim1Qyzf2/nMXMJxZiGuYuP8bj9XDmpYdx7U2nZG0S5x9/8DxvPmcpw8aBfmROCtSDyiZB4GXg6+hzKpKvfGQOR3mZzGE9djoWiz/7Uz83zqZSxE7RcIKfXvU4Lz+2YLcPfwDTMPnPo/O59donSCXTWanl2DMtLw8NAtO2/UUPK3v8Efic00WISJecBNxpc5vHWbnYH/Bx8NGjbSpF7BINJ7jt2idY/tGmLl+z9P2NPHDHa1mpZ/LRoykqtjxyv32bagUA6yYB1ztdhIh0y9eBiTa2ZykATJw6ipIyuzslxIpYNMkvvvokHy+o7va1Lz++gPUrG2yvqajYz0FHjLLazEnb/qAAYJ3lfb9FJOd8wLU2tRXkU8uruuvwEyytHhSbxaJJfv6VGSz7sOuv/HdkGiav/WuxzVVl2HBGxCS2DoHpwWXdKXv/EBHJQ6fa1M5UoNhKA4cfr4N/8kU0nODWqx/v8cN/m8Vz19tU0c5sGCoqAg4EBQA7WO6PERFH7GNTO4dYubi8qoThYwfYVIpYYaXb/9Maa0I2VPRZo8YNpLyqxGozh4D2AbBDudMFiEj3lZeVVCyb+ZDZUbOGdLLna6vveOg/PPnaRz2+fvzkoTr5Lw9Y7fb/jCx9UT0e2P+QYcx/e62VZg4B9QCIiEsNHzwAMDHSSUvtrN/SaOn6/Q6ydHig2MCubv8d2XCC325NOHSE1SYOBQUAEXGpaVMnY6bTmIZhqZ11NdYCwPiDh1m6XqyJRZP84mtP2dLtv6NDjh1ja3s7GjNhkNUmJgMeBQARcR2f18sl00/CSFl79R/qjNIcCltqY79JCgBOiUWT/Pz6J1n2wUZb2/V4PXbt3b9L++xvOQBUAQMVAETEda644HTGjR6BkbK2I/A6i93/5VUl9B2o40KcsL3b3+aHP8CZlx5mx6v03Ro4rIqySksLTwBGKACIiKscN2USN3/jCgCMpLUAUN3Qaun6wSOrLF0vPbNthz+7u/0hs6nTtTdld3W4xwPDRvez2sxIBQARcQWf18vVF57Jg7+9Cb8/c1iLkba2Z3uLxe7/oaP6Wrpeui9bY/4AEw4bwS33XZy1w4B2NHiE5fA4UssARaTXKispZsTQgUybOplLpp/EuNE7z542jZSl9lvarQWAwSP6WLpeuidbY/6Qefjf+sAXc7alsw3fOwoATtsw+0mnSxALRk+72NL1keb3baqkMJX2P8rS9VZ/fkzTYg+AywLAxlWNvDpjIYvmbqBxS2ajm0HDq5h8zBhOv+QQRo0b6HCFuxcNJ7j9uhmsmL/Z9rYPOGwEP8vhwx9s+d4ZoQAgIq5leQjAYgDoN7jC0vW5kkqmuf+Xs5j5xMLPHIm7eU0Tm9c08dIj8zjz0sO49qZTctIF3h297eEPUNW/1GoTQzUHQERcyzSsBYCmUKel68urLM/kzrpUMs2t1z7By48t+MzDf0emYfKfR+fz06seJxq2NrnSTr3x4Q9Q2ddyAChTABAR17K6CVCoM2Lp+tLy/D8C+P5fzmLp+10fM1/+0SZuu/aJvAgBvfXhD1DZ1/J5AKUKACLiWqa5+1e0XZFMWetBKC3P7x6AjasamfnEwm5f9/GCam699gkinT0/Y8GqbbP9s/Hwn+Dwwx+wYx8ABQARcS+PxQCQSlvrQSirDFq6Ptte2cWYf1etXFDNbdfNcKQnoDfN9t+dQJHleRYlCgAi4lom1gKA0cOH4zbFJfk9BLD4vQ2Wrl+5oDrnwwGxSILbrnkiKw//A/Lk4Q8QKLI8h189ACLiYpZ7AKwNAVgdgsi2pi3Wz7TfNhyQixAQiyb5+Vd7b7f/jvzWewAUAETEpWx49lrtAUinrA0hFIqVOQgBbuj234n171+dBigi7mR6rP8GTVtcRZC2OIcg2wYMs++sgpULqrk9S3MC3NLtv6N41NpJlkBcAUBEXMmz9X9WBPzWumHzvQfA7jPtV8zfbHtPgJu6/XcUjykAiIj0nNdaAKgotbYUK21xGWG2nX7JIXh91j5Hn2bncIDruv13EI9ZO8cCBQARcTWLo6DlFgNAR1vU0vXZNmrcQM744mG2t2vHcIAbu/13ZMMQQEwBQERcy+O1GABKrK3jb2u2tpNgLlx70ylMnDrK9nZXzN/M7dfNIBbpfgiIRRLcdm3v3OGvq2zoQWlRABAR97LYA2B1CCDUbO0woVzwB3z89P5LOOjIfWxve8X8zfzsmu4NB7h1zP/TmuvarTbRqAAgIq7l9VqbxFdearUHIP8DAEBxSYBb7rs4KyGgO3MC3Dzm/2lN1gNAkwKAiLiWx2IAqCq3diJbqACGALZxOgTo4b+zproOq01oCEBE3MvrC1i6ftgAa+vk6za3Wbo+15wKAXr4f1bTFss9ADUKACLiWl6ftR6AEYP6Wbp+85pGS9c7Idsh4NNnB+jhv2s2DAGsVwAQEdfy+K31AAwf2MfS9TXrmnt82p6TshkCPt4hBOjhv2umCZvXNlltRgFARNzL67N2otpIiz0A8ViKxlrLr+QcUVwS4Cf3XMQBh42wve2PF1Rz+1dmcNu17l3nvye1G1uIdlpeBqgAICLu5bXYA1BeGqSqvMRSG2uWV1u63kklZUXc+o9Ls7NEcN5mVsxz91K/3flk8SarTbQBzQoAIuJaXn8ReKxtdTt8YF9L169ctAnTjqMJHZLN4QC7FXK3/45WLbEcjJYCKACIiHt5PJZ7ASbsM8TS9asX1xEJd1pqw2mFEAJ6y8M/3NnOxlXNVptZAgoAIuJyvoC1zXwmjh1m6fp1y5toa2vFMPL7YKC9yecQ0Fse/kY6TVuojQ0rLE8AVA+AiIg3YO2hMHHscEvXxyJJNq9uJtReWHsC7Eo+hoDe8vAHCHW0sfGTJsIdlicAqgdARMQXsLaf/7gRgwgWWVtNsGZpI5FIJ4mE9SNynZZPIaA3PfzjiRiRcCcr59VZbgpYCAoAIuJyviJrAcDn8zJhn6GW2lg5vxZMaG1twjQLd0LgNvkQAnrTw980TdpaWwBYucByAJgPxEABQERczlsUxGPxVMCDLM4D+PijWmKRJKlUko6OkKW28oWTIaA3PfwBOjpCpFJJkok065Zb3j1yzrY/KACIiKt58OALWusFOHR/aw+5VNLg43m1QOaXfSJZ+EMB4EwI6G0P/0QiTmdHZrOolfPqSMYtTxadu+0PCgAi4nq+Imub+Rx90Fj8Pmu/ThfP+e+GQK0tTZimYam9fJHLENDbHv6GYWS+F7buE/HR6+utNpkGZm/7iwKAiLieP2gtAJSVBJk8bqSlNpa+V0MqlXnop1JJ2tpaLLWXT3IRAnrbwx+gLdRKKp0CIBFPsfS9GqtNvgds/8ZSABAR1/MXl1puY9oh4yxdH+1M8PGHtdv/HomEC36DoB1lMwT0xod/JNxJNPLfr/+SOdXEoymrzc7c8S8KACLieh5fAK/FDYGOPdhaAACY89Lqnf7eFmoh2QuWBm6TjRDQGx/+yWSCttDOPUAfvbHBjqZf3vEvCgAiIkCgpMzS9eNGDmJI/0pLbSx/fwttjZHtfzdNk5aWRgyjd8wHAHtDQG98+KeNNM0tDTstBw01R1mxQ+9QD21m6/r/bRQAREQAf3G55TaOP2S8pesNw2Tuy2t3el8qnaKlubFX7A+wjR0hoDc+/LcFvnRq55n+s59fTTplOQQ+BTufOqUAICICBIpLLZ8MOP24yZbrePelNRjGzg/7eCJGa6vlA2DyipUQ0Bsf/gCtbS0k4vGd3pdKppnzwurdXNEtMz79DgUAEREArw9/0NpkwIP3G8GYYQMstdHaEGHRO5897jUaDdPeC84L2FFxSYCf3HMRE6eO6vI1E6eO6pUP//b21p0m/W0z742NtLfGrDa/Hvjo0+9UABAR2SpQWmG5jbOPOdhyGzMfWcauevw7OkJ0drZbbj+flJQVcfuDl3LWZYfj8e6+B8br83D25VO4/cFLe93Dv7OjnY6OXX9d33rmEztu8Tif6v4HBQARke0CZdYm8QGcM20y3j08yLqiem0ry3az5jsUaiWyi1eKhcwf8PHVn53On56/jnOunMrI/QYQLAkQLAkwcr8BnHPlVP70/HVc/9PT8Ad8Tpdrq3C4g1B76y7/bfkHW9i0yvJ+ECbwj139g7UjrEREehGvL4CvqIR0ItrjNgb3q2TKhNF8uMLarm0v/3Mpk47Z9VHDra3NGIZJebn1Hot8ss/4gVx386lOl5EzkUjnbjd8Mk146cEldtzmdWDNrv5BPQAiIjuwoxfg88cfYrmNDSubt58PsCuhUAvhcIfl+4gzwuGOPU7sXPTOJjastGXi5wO7+wcFABGRHRSVWg8Apx05kYF9rb86f/aehZ9ZEbCjtraWXjcnwA06OkN73OrZMExe+Ictr/7rgGd3948KACIiO/AGiixvDRzw+/jSaUdarqV6bSvvvrjL3tvtQqFW2kKtu5jiJfmovb2N9tCeV3N88Mo66jbaciz0n4H47v5RAUBE5FOKyvtabuPik6dQXmpte2GA5+9fRLh9t7/DAQh3ttPa1tSrNgvqbUzTpKW1iY6OPT/YIx0JnrtvkR23DAP37ukDFABERD4lUFaJx2vt12NZSZALTjzMci3hjgT/eXjZXj8uEgnT1FSPkbZ8XrzYLJ02aGqqJxoJ7/Vjn7tvIR1tltf9A9wP7HESgQKAiMineDxeikqrLLfzpdOOwu+z/mv2nX+vonrtrpeK7SiRiNPQWEcy2XsOECp0yUSCxsYtJBJ77sUBWLe8iXdfWrvXj+uCOPD7vX2QAoCIyC4UVVofBhjSv5Izj55kuZ10yuChO+aS6sJ+8Ol0isbGOjo7tULAaZFImMbmOtJd6JUx0iZP/OFDu4Zx7gc27e2DtA+AiIOMXra/e2/iKyrBFywhHe/5ngAAX//Cibzy/jISKWtd8zXr2njpwSV8/rq9LzE0TZNQqIVEMkHfPn3xePRaL5dM06S1tZlodO9d/tu8/M+lXerl6YIY8OuufKC+K0REdiNYaW1ff4BhA/pwqQ0rAgBmPb6C9Suauvzx0UgnDQ21nzlgRrInkYjT0LClWw//NUsaePmfe5/n0UX3ANVd+UAFABGR3QiUVeD1W993/tpzp1FVXmK5HcMweehX75GIpbp8TSqVorG5jvb2Nq0SyKJMr0srjY11pFJd//pEOhI8+Mu5e9zvoRtagV929YMVAEREdsODh2BlP8vtVJYVc/3nj7ehImiobufBO+bu8rCg3TIzBwk1NGwhbnFIQz4rHo/R0FDbo02Znvjjh7Q0dL23YC9uBbrcRaQAICKyB8HyPni81g+gufiUqYwcZH1iIcCi2Zt5bcaKbl+XSqVoamqgta0Zw9ByQavSRprW1iaamupJpZLdvv6tZz5h3hsb7SpnBXB3dy5QABAR2ROvj2Blf8vNBPw+vnvpaTYUlPHv/1u0x7MC9iQS7qS+fkvmFauGBbrNNE06O9upr99CpAtr+3dlxUe1/Otv8+0s67tAt1KIAoCIyF4Eq/rZ0gtw0pQJnDL1ABsqyswH+PvP36W5tmdHAxuGQSjUSv22CWvKAXtnQiQapqFhC6FQK6ax92WZu1K3McQDt83GSNv2SX8UeLW7FykAiIjshcfjo9iGXgCAm6+eTt8Ka2cNbBNuj3PXjW/Q3trzneNSqRQtLU00NNZ2a+a628RiERoaa2ltaerWJL9PC7fHufvmt4mGuz9ksBvNwPd6cqECgIhIFxRV9cfjs751St+KUv7fZafbUFFGY00Hf/vRm8Qi1h4oyWQiEwQaet6t3euYJpFImIb6WpqbGy3vsBiPprj7prdprLF1k6bvAg09uVABQESkCzweL8VV1vcFAJh+7MEcN3mcLW0BbFrVwj03v00yYX1iXzKZpLW1ibq6ajo72105WTBtpOnoCFFXX0NraxPJlPWtlRPxFHff9BbrljfaUOF2LwD/7OnFCgAiIl0UrOiHN2D9hD+An1w9nbISe9oCWLWongdum2PbuHI6nSYUaqWurpqW1ibicVsOqMlr8XiM1pYm6uuqaW9v69IWvl2RTKS59yfvsGpRvS3tbVUHXGulAQUAEZGu8ngo6TfYlqaG9K/kZ9eeY0tb2yyZW829t7xNMm7fq3bThOjWkwbr6mpoC7WSTPSew4aSyQTtHSHq62toaqonEg3bujAilTK4/7bZPV6xsRsmcB1gqTtBAUBEpBsCJRUESsttaeu0IyfyJZu2Cd5m6Xs1/NWGOQG7kk6nCHe209BYS339FtrbW4knYoW1gsDMvNJvD7VSX19DQ0MtHe1tlib27U4skuTuH7/F0rk1djf9R+Alq40oAIiIdFNx36Fg0wE73/vSaRwyfqQtbW2zalE9f/zua3S2Ze8MgFQqSUdHO02N9dTWbaalpZFwuCMvjyJOJpOEO9tpbm5kS101TU31dHS2Z+Whv017S5Q/fvc1u1/5A7wH/MiOhhQARES6yRcootiGLYIB/D4vv/6fC+lj09LAbTatauH33361x/sEdIdhGESjEdraWmhoqKW2djNNTfW0t7cSjUZ6tEteT6VSSaLRCO2hNpqb6tlSu5mGhi20hVqJxSKYOZjU2FDdzu9ueJVNq1rsbroW+AJgS8rSccAiIj0Q7DOQRLgDI2X9VfaQ/pXc8fULuOG3j2LYOABdt6mdX39tJtfcciwHTBlqW7t7YxgG8XjsMxMH/f4Afn8An8+39c2Pz+vF6/Xi2fpf8IDHg9fjybRlmlt3KzQxDAPTMDAMg7RhYKTTpNIp0uk0qVQyp0Fjd9YsaeC+n75DZ8j23pckcDGZEGALj10NuZiln9YNs5+0qw5xwOhpFztdgqs5/fOTikforFtv2xj4k699xB0P/ceexnbg9Xo497pDOPWLB+LRb/2sME1465mVPHPPQtKpnu0QuBdfJ3PUr200BCAi0kP+YCnBCnuGAiBzYNDlZxxlW3vbGIbJc/ct5O8/n9Oto4Sla6KdCe695W2e+sv8bD3878Dmhz8oAIiIWFLcHNNpAAAAIABJREFUdzBef5Ft7X3vS6dx+lETbWtvR/Pf3MgdX3mZdcu7fGKs7MXGT5r51fUvs+Td6mzd4nHgJ9loWAFARMQCj8dL6YBheGwaUfV6PPz8q+cz5YDRtrT3aQ3V7fz+W6/y7/sXkcrOq1VXSCbS/Pv+Rfz2G6/QlL2JlrOAq8nSQksFABERi/zFZQRt2iYYoMjv4w/fuYRxIwfZ1uaODMPklUeX879ffZnqta1ZuUdvtm55E7+6/mVeeXS5nSf6fdoc4Dwga2s5FQBERGxQ3GcQ/uIy29qrKC3m3h9dwfiR9uw8uCs169r436/N5Kk/zyPSkX/r9/NNLJLkX3+dz53ffJW6jaFs3mo+MB2IZPMmCgAiInbwQOnA4bacGLhNv8oy7rvpSg4Ynb0lfOmUwZvPfMKtX36e2c+vxjAKaVu/3EinDN5+bhU/vezfvPGvlZh27hX8WfOB04GsJgzQMkA7aBmgi2kZoLPy8ecnGekg3LjJ1lHbjkiM//nNIyxda/uWsp8xfGwfzv/qoRx4xLCs36sQLJ6zmefuW0T95vZc3G4OmVf+WX/4gwKAHRQAXGzi6VcSjkSdLsOVystKWDbzIafL2KVYWyOxth4d0b5b4WicG373GAtXbbK13d3ZZ0J/zrz8ICYdM8J1eweYJix7v4ZXH1vO2mW2Ht+7J7OA84Fwrm7osi9rVigAuNipX/4eqzdkbfmP7MH+Y0fyykN3Ol3GbpiEG2tIhu19IReNJ/nBX55i9qLVtra7J8PH9uGMyw/i0BNG4fX27kdGKmUw77UNzJqxgtoNOXkRvs3jZGb7Z+/whl3w5fJmvdStVi7+zjUX2VSGOGFDdS0LV+Tul7H81/mnHc/xR0x2uozd8BAoLScVDWOm7dt4J+D3ccZRBxGJJ1iyJjfBs6M1xsK3NzH35bVEO5MMGF5OSZl9+x7kg1BzlLefW8WDv5jLB7PWZ/UQpV24A7gByPkOTb07zuWGegBc7JN1mznr6htJG1pPnUs+r5eZD/2OcaNHOF3KHhmpJB2162wNAds889YC7njwJVLp3H7veTweJh4xlGOn78fEo4bj9xfmXPJEPMWi2dV8+Oo6Vs6vc2LyY5LM9r4P5PrG2ygAWKcA4HI//cMDPPzMK06X4SpXX3gmP/v21U6X0SWpeJRw3QZM0/4H9byPN/D/7nqSUKcz81CKSwMcdNQwJk8bycQjhlFcGnCkjq6KRZJ8PK+Wpe/VsOidzcQijh0eVEvmYJ85ThUACgB2UABwuWQyxVU3/op35y91uhRXOG7KJB787U34/YUzgpmKhems3wRZCAGb61v4/p+f4pONdba33R3+gJcJhw1hwpSh7DtpICP364fX5+wjxjShdn0byz/cwvIPtrB2WWO29urvjjnYfKpfTykAWKcAICSTKX7x14d55NlXNRyQJT6vlysuOJ2bv3FFQT38t0mGQ4SbqrOyqWsileZPM17jsVfeJ7tL1LsuWOJn7MSBmTAwrh9D9qmi/5CyrE4kbGuMsGFlMxtXNrPh42Y2rWomGnb+iOCtTOCPwA/JdP87TgHAOgUA2W7V+s3MePEN5sxbQnVtI+FobO8XyW6VlRQzYuhApk2dzCXTT8r7Mf+9ibc3E23J3iv1OYvX8NP7nqOlPWcrybolUORj8MhKBo+qZOCwCir6BinvU0xlv2Iq+hRTXhXEH9g53AWCPuLRFLFIkkhHglg4SSySpK0pQtOWTppqO7f/18Eu/b2pA64C8mqsUAHAOgUAEemyeHsT0Zb6rLXfHApzy73PMnfp2qzdQ7rlReAaIGcbCnRVYU7fFBEpUMHKAZT0G5K19vtXlfHXGy/j5qvPprKsOGv3kb1qAq4AziEPH/6gHgA7qAdARLot28MBAKHOKHc9+TrPvDU/b+YGuMRTZNb227sdpM0UAKxTABCRHslFCAD4cMV67njwJTbUNmf9Xi73MfAd4FWnC+kKBQDrFABEpMcS4RCRphqy/RI9kUrz8Etz+cdL7xKO5nSnOzdoJbMr7N3kyQz/rlAAsE4BQEQsScU6CTdsxszBEtK2zigPvvguT8z6kFiiYJ5V+SoG3AP8ksyYf0FRALBOAUBELDMSMTrrN2JkYdvgXWntiPDwf+by2CsfEE/mfBv6QpcE/gHcDmT/jOYsUQCwTgFARGxhpBKEGzaTTuRu/4japhB/f2EOL767mGhcPQJ70Qn8HbgTyM25zFmkAGCdAoCI2MY0DSKNNSQj7Tm9bzga57l3FvHozPfZ0tSW03sXgAYy4/t/BnrNTEoFAOsUAETEZiaxUDOxtvqsbB28J4Zh8taCT3js1Q+Y9/GG3N48v5jAG8D9wLNAr5s5qQBgnQKAiGRFMtJBpKkG00g7cv+Ndc28/N4yXnl/Geu3FNwct57aADxKpqt/nbOlZJcCgHUKACKSNUYqSaSphlTM2f3919Y0MuuD5bz07hI2N7Q6WksWVAPPkNnA511y3u/iDAUA6xQARCSrTEzioWZibQ1Z3y9gr7WYJivW1/LesrV8sHwdi1dtJpFypofCghTwPvAyMBNYiEse+jtSALBOAUBEciIVCxNpqsFI5c9s/VgiyYJPNvHBsnV89PF6Vm9uIJl/gSABzAPmAnOAd8hs3uNqCgDWKQCISM6YhkGsrZ54R0tevmZNpQ3WVjfwyaY6Vm6o45NNmbfOSM7m0LUBS7e+Ldn6tpDMpj2yAwUA6xQARCTnUvEIkaYtGMnCmJzeHArT0NpOfUs7tU0h6lvaefCld602exewBVhPZsLeenrRMr1sUwCwTgFARJxhmkTbGkiEmjHzsTtgLw758m1Wm9AzzAKv0wWIiEgPeTyU9B1MxfD9CJRUOF2NFBgFABGRAucNFFE2eBRlg0fjKyp2uhwpEAoAIiK9RKCkjIqhYynpNwSv1+d0OZLn/E4XICIiNvJ4CFb2p6iiL4mOVmKhJswcnTAohUUBQESkF/J4vNuDQLy9hXioybEthSU/KQCIiPRiHo+X4qoBBCv6kehsId7eklcbCYlzFABERFzA4/USrBxAsGIAyWgHiY5mklFnzxcQZykAiIi4iQcCpRUESitIJ6Ik2ltJhNsxTQ0PuI0CgIiIS/mKSigZUEJJ/6EkIu0kO0Okop0FuamQdJ8CgIiI23k8FJVVUVRWhZlOEg+HSEU6SMUjeXnegNhDAUBERLbz+AIUVw6AygEYRppUpINkuJ1kLAym4XR5YiMFABER2SWv10dReR+KyvuAkSYZi5KKd5KKRkgno+odKHAKACIisndeH4HScgKl5dAXTCNNKhYhHY+QTkRJxWPaZ6DAKACIiEi3eby+7asJtjFSCdKJGOl4LPPnZIJ0KgEKBnlJAUBERGzh9Rfh9RcRKK3c6f1mOkU6lcBIJTHTKQwjjZnS9sROUwAQEZGs8vj8+H1+CDpdiexIpwGKiIi4kAKAiIiICykAiIiIuJACgIiIiAspAIiIiLiQAoCIiIgLKQCIiIi4kAKAiIiICykAiIiIuJACgIiIiAspAIiIiLiQAoCIiIgLKQCIiIi4kAKAiIiICykAiIiIuJACgIiIiAspAIiIiLiQAoCIiIgLKQCIiIi4kAKAiIiICykAiIiIuJACgIiIiAspAIiIiLiQAoCIiIgLKQCIiIi4kAKAiIiICykAiIiIuJACgIiIiAspAIiIiLiQAoCIiIgLKQCIiIi4kAKAiIiICykAiIiIuJACgIiIiAspAIiIiLiQAoCIiIgLKQCIiIi4kAKAiIiICykAiIiIuJACgIiIiAspAIiIiLiQAoCIiIgLKQCIiIi4kAKAiIiICykAiIiIuJACgIiIiAspAIiIiLiQAoCIiIgLKQCIiIi4kAKAiIiICykAiIiIuJACgIiIiAspAIiIiLiQAoCIiIgLKQCIiIi4kAKAiIiICykAiIiIuJACgIiIiAspAIiIiLiQAoCIiIgLKQCIiIi4kAKAiIiICykAiIiIuJACgIiIiAspAIiIiLiQAoCIiIgLKQCIiIi4kAKAiIiICykAiIiIuJACgIiIiAspAIiIiLiQAoCIiIgLKQCIiIi4kAKAiIiICykAiIiIuJACgIiIiAspAIiIiLiQAoCIiIgLKQCIiIi4kAKAiIiICykAiIiIuJACgIiIiAspAIiIiLiQAoCIiIgLKQCIiIi4kAKAiIiICykAiIiIuJACgIiIiAspAIiIiLiQAoCIiIgLKQCIiIi4kAKAiIiICykAiIiIuJACgIiIiAspAIiIiLiQ3+kCRETcYuW6Tcx44XXenb+M6toGIrG4o/WUFgcZMXQQx02ZxCXTT2b/sSMdrUdyy+N0Ab2AaeXiDbOftKsOEclTiWSS2+96iMeen4VhWPqVkTU+r5fLzjuVW264kkAgN68NR0+72GoTeoZZoB4AEZEsSiSTXPn9O3hvwXKnS9mjtGHw8DOvsGZDDQ/97qachQBxjuYAiIhk0W13PZj3D/8dzV2wjF/89WGny5AcUAAQEcmSles28fjzrzldRrc98uyrrFq/2ekyJMsUAEREsmTGC6/n7Zj/nqQNgxkvvuF0GZJlCgAiIlkyZ95Sp0vosTnzljhdgmSZAoCISJZsqW9yuoQeq64r3NqlaxQARESyxVO4q9QKuHTpIgUAEZEsGTaov9Ml9NjwwQOcLkGyTAFARCRLpk092OkSemza1MlOlyBZpgAgIpIll0w/GZ+38H7N+rxeLpl+ktNlSJYV3nemiEiB2H/sSC4771Sny+i2Ky44nXGjRzhdhmSZAoCISBbdcsOVHHv4JKfL6LLjpkzi5m9c4XQZkgMKACIiWRQI+Hnwtz/myi+ckdfDAT6vl6svPJMHf3sTfr/P6XIkB7TQwzqdBigiXbJq/WZmvPgGc+Ytobq2kXA05mg9ZSXFjBg6kGlTJ3PJ9JNy3u2v0wCdpU+edQoAVphgGknSqSRmKoVhJDFTaYx0CtNMY6YNTCOd+bNhgGluv9A0DAA8Xi/bv5U9HrxeL3h8eLw+PD4vHo8Pr8+Px+fH69/23wBenx/9CIg4RwHAWTrvUXLCNA2MRIxUMo6RiGOkEhjJBOlUEkzDWtvGzten01280OPB5y/CGyjC6y/CWxTEX1SMNxDE48nfrloRETsoAIjtTMMgnYiSikdJx6MYyRjpVMJiX0kWmCbpZJx0Mr7z+z3g9QXxFQXxB0vxBUvwBYsVCkSkV1EAEMtMwyAVC5OKdZKOR0nHY5h597TvBhOMVBwjFScZac+8z+PBX1SML1iKv7iMQHEpeDVRSkQKlwKAdJ8JqXiEVKyTVCxMOhYt7Ad+V5gmqXimVyPe3owHD75gCf6SMgIlFfiKSjQaKSIFRQFAusY0ScYipKLtJMPtGOmU0xU5ysTMhKB4hFhbI16vD39pBf6ScgKlFRouEJG8pwAgu2VikopGSIbbSEQ6wOjq7Dr3MYw0ic42Ep1teDzezDBBeRVFpZU6Vk1E8pICgHxGKh4h0RkiGWnHdPkr/Z4wTYNktINktIOoz0+gtJJgeR98wRKnSxMR2U4BQAAwzTSJznYSHS2kE85uTtKbmOkUiY4WEh0t+AJBAuV9KCrvs3UPAhER5+i3kMulEzHi7c0kwqEdNtmRbEgn46Rb64m3NRIoqyRY2R9fUbHTZYmISykAuJEJyViYRHszyWiH09W4jmka2+cL+IOlFFX2I1BWiUfLCEQkhxQA3MQ0SXS2EWtvwkgmnK5G2LqcsjGCty1IcdUAAuVVCgIikhMKAG5gmiTCIeKhRtJ68OclIxkn0lSDt62RYGU/ghV9QUsJRSSLFAB6MZPMK/54WyNGKul0OdIFRipBtKWOeHsLxX0GECjvox4BEckKBYBeKhkNE2upI53UjP5CZKQSRJq24A01U9xnIEVlVU6XJCK9jAJAL5OOR4m21pGKRZwuRWxgJONEGqtJdLRS3Hcwfu0lICI22VUAmARcB5wMjAbKclmQ9IxppIm1NRDvaMm/U/e6oCnUSXV9K/Ut7TSFOmlq66CprZNQOEpnJEZnJE5HNEY4+t+T++KJzCZFwaL/fhuXlxRTXhqkorSY8pIglWUlDOxbQf+qcgb2KWdQ30pGDu5H/6rC+rZOxcJ01q6jqLwPJX0H49E+AgVp5bpNzHjhdd6dv4zq2gYisfjeL8qi0uIgI4YO4rgpk7hk+snsP3ako/VIbu04uBgE/gB8FdDsoxzZMPtJaw2YkAi3EWupw8jzrXpN06SmsY3Vm+tZvbmB1Zvr2VTfwub6FiKx3E5OLCsuYsTgfowa3I/xowYzbsRgxo0azLABVXjyfOtej9eXGRao7Kf5AQUikUxy+10P8djzszCM/EzoPq+Xy847lVtuuJJAIDcBc/S0i602oR8AC7Z98oLAy8DnHKzFlawEgHQiSqSplnQiamNF9gl1Rlm6tpola6pZvLqaZetqdnoFn4/KS4NM2ncEB+83Yvt/K8vyc7MeX1ExpQOGZU4ilLyVSCa58vt38N6C5U6X0iXHHHYQD/3uppyEAAUAZ2375N0NfM3JQtyqRwHANIiGmki0NeXVMbyxRJLFqzfz/rJ1fLB8HSs31GEU+O6CXo+H0cMGcOj4URx10FiOmbQvZSVBp8v6L4+H4soBFPcZoGWDeermO/+PR5+b5XQZ3XLlF87gtu9ck/X7KAA4y0NmzH8R6vZ3RHcDQDoeJdJUQzqZH6+kWzsizFm8mncWrmLO4tVE4717uWEw4OeQ8aM4/tDxnHrEgQzqW+F0ScDW3oD+Q/EFS50uRXawct0mzrr6xrzt9t8dn9fLyw/+lvFjsjsnQAHAWX4yE/708M9zJibx1kbiIedf9Te1dfLKB8t55f1lLFtbU/Cv8rsjnkzxwfJMD8edj77CQfsO5/SjDuL0oyYyoKrcsbrSiRidtRsI9hlAsM9AzQ3IEzNeeL3gHv4AacNgxotvcMs3r3S6FMkiP3CK00XInhmpBJHGGlJx55b2RWIJXv1gOf+Zu5R5KzcU5C81uxmmyZI1mTkOdz72ClMPGMPZx07i1CMmUhIM5LweE5NYWyPJSCelA0fgCxTlvAbZ2Zx5S50uocfmzFuSvcZNk3hnW/baly7xA6OcLkJ2LxEOEW2uxXRohv+6mkZemLOYZ95aQKgzPycb5gPDMLf3DPzvP2dyxlEHceFJh3PA6KE5ryWdiNJRu46SvoMzWwqLY7bUNzldQo9V12Wh9q0P/nhIu5PmAz/gXL+l0LYh/2YGp9MGsz5awSMz32fZ2hqnyyk44Wicp9+cz9Nvzufg/UZw+RlHcfKUA/D5cjjSZqSJNm8h2rwld/fsIY/XBx4PHo8XPB68Pj9efwCPz4/XF8AXKMJbFMTry32vimV5vqR0T2wtfdty5bYGPfjziHYTke06I3H+9eY8npj1IXXN7U6X0yssWVPND/7yL4YOqOLSU4/kC587LL9WEeSBbb1b2waVjN1McPV6fXiLivEVFeMvLsNfXJoJD3ls2KD+rN5Q7XQZPTJ88ABb2klG2om1NZJOaFvyfKMAIIRjCZ587SP+8eIc2sP6Ic2G2qYQv3/8Ve599i0uPmUqV08/Lm/3F8hXhpHGiIVJxcLE25vx4MFbVIy/pJRASQX+YFnezQmfNvXggg0A06ZOtnR9KhYm2lpPOq6hw3ylAOBiHZEY/3z5PR579QM6I/mxrLC3C8cS/OPFd/nXG/O57PQjufyMoykvVY9AT5iYpBNR0oko8VAzXl+AQGkFgbLKvAkDl0w/mYeenknaMJwupVt8Xi+XTD+pR9emEzGirfWkop02VyV2UwBwoVTa4N/vLOSv/3qTlvaw0+W4Ukckxj3Pvs3jsz7kqrOP5UunH0kwR9uv9lZGOkm8o4V4Rwtef4CisiqClf3wODh3YP+xI7nsvFN5+JlXHKuhJ6644HTGjR7RrWuMVJJ4qJF4Z2tBnkfiRh70pXLUon/+LGf3Mk2Tme8v5y9PvU5No5bg5JMRg/ryzYtO5rQjD8z7swgKisdDoKSCYFV//A5tkpRMprjqxl/x7vzCWBJ43JRJPPjbm/D7uza/wkgnibc2kuhs6/YeJYd8+baelLijrvyw+IFxwIHAMGAgMAQYDOzqmyIBNAL1QB3QAHwCrAB61TGrCgAOy1UA2FDbzK8e+g8fLF+Xk/tJzxw+YR9+dMVZjBs5yOlSeh1/sJRg1QACpbnfvTGZTPGLvz7MI8++mrfDAT6vlysuOJ2bv3FFlx7+ppEmHmoi3t6Cafbs/1OWAsABwKnAFOAgMg9+O8bZ0sAaYAmZ3XPfBD7c+v6CpADgsGwHgHA0zt+eeYsnZn1IOp2fv3hkZ36fl0tPO5KvnX+CVgxkgb+4lOK+gx3pEVi1fjMzXnyDOfOWUF3bSDjq7KTbspJiRgwdyLSpk7lk+kld6vY3TYN4qJl4qBnTtPbssykAVAJnAaeRefB3b+zCmhDwBvAa8CKwKYf3tsxyAPj27IL6/2u7P02zto9SNgPA7EWr+fnfX6ChtSNr97BTeWkJIwb1Z9SQgYwYPIARg/szYtAABvatpDhYRLCoiIrSEvw+L1XlZRRtHTNPJFOEOsOkUmk6ojHiiQSxeIKGlhDVDc1U1zdR3dDE5romqhua6YwUxqzkIf0r+cnV0zlu8jinS+mVAiUVlPQfgtevHRO7ZNsmPm2NGGl71vLbEADuAy4DyqxXY5kBvAc8DDwB5P1aas066oVCnVF+88hMXno3i1t5WuDzetlv1DAOGT+GyePHcMj+Y5kwegR9Knr2M1xaHOzWtW0dYVZuqGbhJ+tY/Mk6Fq1az5rNW/Jue+O65nZu+N1jnHPcZG68/AwtG7RZMtpBqiZMsGoAxVX9dZri7uT3Jj7XO13ADrzAsVvf/gA8A/weWOhkUXuiANDLzFm8mlv/73maQvmzBKe0OMi0Qydy/OEHcej+Y5m03z6UlTj3MOtTUcZRk/bnqEn7b39fOBpjyeoNLPpkHW/PX8bsRSuIxvJjaeQLcxbz3rK13PaVz3Pswfs5XU6vYpoGsbYGkuEQpQOH4ysqcbqkvJKMhom11mkTn+4rBS7f+vYu8L/AC45WtAsaArAoX4YAEqk0dz/9Jg+9NDcvTucbPWwQJxw+idOPPozPTZlEsKiwtnFNpdPMW7GGV95bwNvzlrJo1XqnS8LjgQtOPJwbLz+d4gL7fBYCDx6CVf0p7jPQ9b0BqXiEaEs96SwfQGbDEEAh+QD4EfCWw3Vspx6AXmBdTSM/+tvTrNpU72gdhx+wHxefdhynHXUo+wwt7Fnsfp/vv70E11/KxtoGXnlvIU/Oms2Cj9c6UpNpwtNvzmfp2mr+9xsXMmaYPVu1SoaJSSzURDIapmzQCFfODdAmPll1JJmVAy8C3wIcf1WhHgCLnO4BeGHOYu548CWicWfG5oYM6MvnTziSy846kYP23ceRGnJt9aYtPPPGXB6f+Q6b6hodqSFY5OdbF5/CZacf6cj9ezuP10vpgOEESiudLiUnnNrEx2U9ADuKAr8DfrX1z45QALDIqQAQjSe546GXeGH2Ykv374lgUYDp06Zy6RnHc8Lhk/B53dldmjYM3pq3lMdnvsNLsz8insx9CDtn2mRuuvJsSoIaEsiGYNUASvoMzotthbNh24M/0dH9TXzs4OIAsM1KMqsYFjhxcw0BFKD1W5r4wV+eYvXmhpzet7y0hMvOPIFvXXoOQwf0y+m985HP6+XkIyZz8hGTaWxt5+//fpV7n55JW0futld+YfZilq2t4X9vuJDxIwfn7L5uEQ81YSQTlA4cnjmuuJewYxMfscUEMnMDfgn8nBxvKqQeAIus9gAUgkH9+vD1C8/kms+fSkWZZknvSXs4wt//PYu7n3qZxtaQ0+XkvYDfR0kwQGVZCaXBIoqDAYb0r2L00P6MGTqAfYYOYJ+h/SkrdnY83l9cSumgUXjz/PjhvTFNg3h7C/FQ0/ZjmJ1gGCYvzV3CLfc+51gNeeht4EvAllzdUAHAot4cAMYMG8w3v3gOl555PMGAupi7I55I8tjMt/nzEy+wYUtue2p6G6/Hw/hRgzli4hiOOHAMh+2/D6UOBAJfUTFlg0bh9Rfgz4JpEu9oJRZqxEynHC3lg+Xr+P3js/hkY52jdeSpLcC5wPxc3EwBwKLeGAD6VJTxgyu/wLXnnUagiweCyK4lU2nuf/YVfvPQ04Q6e9U5Io7x+bwctv8oph87mVOmHpDT7ZK9/iDlQ0fj9RXI6KkJiUgos4lPMuFoKYtXb+auJ19n/sqNjtZRADrJzAt4Pts3UgCwqDcFAL/Px1XnnsyPrr6IfpXlTpfTqzSHOvjV35/i4RffIJUu2LND8k5xUYDPTZnAucdN5qiDxubkJEVvoIjyIaPxOnjMcFfkyyY+K9bX8penXmfuUmeWzxaoNPD/gD9l8yYKABb1lgDwuakH88tvfJkJ3TwDXLrn4/Wbufmv/+SteYVxNGwhGT9qMNedO41TjjgQb5aDgK8oSPng0XjysCcgFQsTa2sgFXO2x2lLUxsPPD+HZ99akBebkxWom4E7stW4AoBFhR4ARg4ewG++czWnH32Y06W4ysvvzueHdz1IdX2T06X0OqOH9ufac6Zx9rEH4/VmLwj4gyWUDR6NJ0+WwaYT8cySvrCzk0/rW9q597m3+fc7i/LqBNLRwwax38hhjBs5lNHDB9O3opy+leX0qSjD6/XS3plZvdMc6qCprYO6plZWb6ph5cYaNtTUO3mM8/fInC1gOwUAiwo1AHg8Hq75/Cn87PpLKS/VzH4ndISj3HrvYzz4wuuYeoVkuwPHDOWmK8/moH2HZ+0eRWVVlA4cjpMbBTi1ic+ntXVG+ccLc3jitQ+JJ5ydaAiw74ghnHHs4Rxz8AFMOXAcA/v2fFOnzkiUD5ev4oOlq3jtg0UsWrU+lz+zJvBt4M92N6wAYFEhBoCRgwfwt5v+h2MnH+C3Z9/0AAAa9UlEQVR0KQLMXricb/z6HvUGZIHX4+GCzx3GNy86mary7ATd4j4DKe6T+62vjVSSeHsT8Y7WzD7RDonEEjwy830efnkunRFnD9AaPqg/l591Iud/7mjG75O94Fdd38SLsz/ikf+8yYp1m7N2nx2YwNXAQ3Y2qgBgUaEFgPM+dxR/+H9foaq81OlSZAdtHWG+e+f9/Put950upVfqV1nG7dd/nuMmj8tK+6UDR1BUVpWVtj/NNNLE25qIdzi7iU8yleapN+Zx/79n09Keu82vduWEwyfxjYvP4qSpk7M67LMrHy5bxf3Pvcqzb7yX7WGCOHAiYNsvCQUAiwolAJQUB/nNt67isrNOdLoU2YNH//MWP7jrwbw5irg38XjgyrOO5ZsXnYTPZ++4vcfjo2L42KweIGQaBvGO/NnE5+6n32JLU5tjdQCcfMRkbrziAo44aLxjNRiGQWd7B6s21XD306/w/Ox52QwCtcBUoMaOxhQALCqEADBu1DD+cet3OHDsSKdLkS5YvWkLV9/6x1x1LbrOxLHD+M0NFzF8YB9b2/UHSygfMiaTNOxkmsQ724i3NWKknTn0a5sPlq/jzsdedfzk0SkHjuOWr1zCtEMnOlpHKpWio70DY4elvSs31HDbA08xb2XWlj0uBI4DLC/zUACwKN8DwCWnTePO711LaXHuNksR62LxBD/+y8M89MLrTpfSK/WvKuOvN17OhH2G2NpusKo/JX1tatOERLiNWFsjRsrZTXw+WrGBPz/1OkvWVDtax8R9R/GT6y7Ji1VL8Viczs7OXc6/ME2TZ9/+kF/842k6Ilk57O8vwDetNqIAYFG+BoDiYBG/uuEKrjznZKdLEQueeOUdvv+HvxPRkIDtSouLuPNbF3P0pH3ta9QD5UPG4A9am2OjTXx2NnrYIH589UV84eRjcz7G/2mmaRLpDBOL7f1rU9PYwo1/+ScfrVhjdxlp4BBgmZVGFAAsyscAoC7/3kVDAtkT8Pv45dfO57Qj7etK9hUFqRi6b4+GAlKxyNZNfJydVLehtpm//usNXvtohZMLDBjUrw/f//L5XDH9JIoCzm+6tG28P9mNo7/ThsHvH3+R+56bZXc5fwK+Y6UBBQCL8ikAeL0erj73FG7/2mWUqMu/V4nG4vz0nkf5x/OvYRjaM8BOXq+H39xwEadMtW9ZbHGfQRT3Gdjlj08nYsRDTXmxic99z73Dc+8sdHQTn/LSEq4971S+d9l5eXMC6a7G+7vjxXfn8+O/PUosYds8jqXAwVYacD5SiSUlxUFGDRnICYdN5KpzT9FWvr1USXGQ337nGq75/Kk8+PzrvL1gGZvrm7RawAaGYXLT356mzw8uZ8oBo21pMxZqJFBeic+/5yCeTsWJtTaSdPjB39YZ5e8vzGbGrI+IJ53bxKekOMhXzj+Nb196Ln3z6DySPY33d1W/ynKCRQE7A8BYqw2oB8Aiqz0ALW89blMlIoUnmUoTjsYIdYZp6wizZnMtqzdt4eP1m3l/6UoaW9tzVkt5aZAHbrqK/W2aGBgoraRs0K6H4cx0inh7M7H2FnBwLX80nuSJWR/y9xfm0BFxbr5BwO/jS2eeyA+v/AJDBvR1rI5PMzGJhiNELU7ke+K1d7nt/qfsPgisA+j59oaoB0BEHBTw++hTUUafijL2GQqTx4/Z/m+mabJyQzVvfrSEp1+f+//bu/MwKeo7j+PvPme4BYGADjDiASggKAYFEV1JFCWggoLGi3glqKub7HoGoybZrOKx3rdRAZUQVESMIqCgkFXAA8gICgynoDADzMH03ftHeTsjM11VXVVdn9fz9PP4oFP9fWSerk/Xp36/4oPV62ydpWZPnMsnTWXKLZfQaV9Tn6sAJPdUkYrtIVz8zQ2B2Uya+O4dxKuc3cQnlc4wc+EHPDTjLXbsrnFsjkAgwMihA/n9xWM5sMTaFRlm5dL3f188meSmR6fxwlvvWjjZ18rNHkBXAEzSFQCR/Fi9fjNT/7GAp2bNo8aepVUA9DukC0/ccKElmwWFiprTqvMB7trEZ9FyHnrB+U18hg3sx8RLxtHnoG6OzlEfs30/GCsAJkx6jLJy25ZO3ovxjICcKQCYpAAgkl+7qmt5ZMZrPDLjH+yqtudu+fEjBnPV2GGWHKuoVTsSe6rIpp19QM6by1Zx//T5rN2y3dE5ftr7EG66ZByDXPosEiv6/sUrVnP13U+xs9q2qytZoDdQZuYgqgBExFP2adWCay8czaVnnMTtT8/gsRdft3xlxFOzF3H4wV04/ogepo8Vr660YKLcffTpJu792zyWrdrg6Bw9Sku47sLRjBw6kIDVuyVawOV9//fdi8mTPygAiIhHtW3dkr9ceQGnnXA0E/77Ico/s2572mwWbn1iFv0P6WrbUwTtVla+lfumz+OfLtjE57rxZzLGBZv4NMSKvr8unuDGh59j1jtLLZysXnOA66w4kAKAiHjawN49WPD4X7j6jsd5Yf5iy45bWVXLA3+fzw0XnmrZMfNBm/g0jUf6/q88C1wEWLJkw71/KyIijdSyeTMev+lKjujZnZsenmpZJfD3+csYdVx/Duu+nyXHs5NbNvFp0ayYi0//uas28WmIFX3/krI1XHnXk1TsrrZwsh9IAzcCt1l5UAUAESkYE846lY7t9uHy/3mIZMp8B5vJZvnzU68w5eZLXHv5endNHU/NXsSzc94lnnDuRsNoJMzZJw/lhl+dRYe25pdR2sljfX8FcDZg+V7CCgAiUlDGDBtM65bNOe/3d1oSAsrKt/LqP1cwYrCpXVct55ZNfMKhEL885XiuueAMOrdv59gcjeWB9f3f9hFwOhas+a+PAoCIFJyfH92fB6+fwGV/vt+SOuCJl9/mlEF9CLrg7nXXbeJz0Vkc2KWzY3M0hRV9/9aKnVxxxxMsX2P7qornMfr+PXa9gQKAiBSk0ScOYuuOSm56aKrpY5V/toN5Sz7mZz891ILJcpPJZpm35GPunTaXTV/sdGwOgKFH9uHmy87+zs6Nbuf3vr8+CgAiUrCuGDuCjz4pZ8Y886sDHpu5kGFH9XJkDfu7/1rHnc/O4ZON1i11zMWRvQ7ipkvHMaS/dY9Ptpv6/oYpAIhIQbvztxex7OM1rP/sC1PH+WTj57z7r3KO7m36IWyNpk18zFHf/+MUAESkoLVu0ZwHrvsNI666lazJhfEvv/1hXgLAms1f8MiLC3jjPdObvZlS8pP2/O7c0zj31BMIBc0/GyGf1PfvnQKAiBS8Y/r2ZNxJQ3jutYWmjjN/6SpqYwlaFEctmuy71m+t4PGZC3l18QoyDu7is2+bVlwxdgS/HjOcomjEsTlypb6/cRQARMQXbr7sl7z6zlJ21+T+JSuWSDJvSRkjh/SzcDJt4mMV9f1NowAgIr7QoW1rLhs9nNufnmHqOLMXLbcsAGgTH+uo7286BQAR8Y3LRp/Mg9NfpcbEN8RlqzawJ5aguYkawE2b+Iw+cRDX/+pMunbq4NgcZqnvz40CgIj4RtvWLTl/xL/x4N9m53yMVDrDB59sZHDfg3L6WW3iYy31/blTABARXznvlONNBQCAJWXrmxQA3LaJzx8uO5t+HtrEpz7q+81TABARX+lRWkLfg0tZ/un6nI/xXlnjq1s3beIz8ZJxHHeEdzbxaYj6fmsoAIiI74wZNthUAFi1YSt18STNihpeIvfhJ5u4b7rzm/gc0m1/rh8/xnOb+DREfb91FABExHeGHtnH1M9nMlk2bqugR7dOP/h32sTHPur7raUAICK+0/vAruzbppWpk8D6rd8NANrExz7q++2hACAivhMIBBh0eC9mLXwv52OUb90BaBMfu6nvt48CgIj4Us/SElMBYM2mz7ln2lxt4mMj9f32UgAQEV86yOT69zeXrSadce4bfzAY4BfHDeSWX5/j6U18GuLBvv92wLnuJwcKACLiS2YDgFMn/0LaxKc+6vvzRwFARHypXZtWTo/QZIWyiU9D1PfnlwKAiPhSy+beuVGukDbxaYgH+/6LgVq738hOCgAi4kstmxc7PcJeFdomPg1R3+8MBQARC5Wt28Tk2fNZsGwlG7dtZ08s7vRI4kFdO3XguvFjOOtnQwgGC/fEb1Xf/+Qr87l9yky7l2FWAOOAuXa+ST4pAIhYIJ5McuP9k3lq1lwyGc9/MRCHdGjbht+ddzoX/uJEopHC/ni2ou+viye48eHnmPXOUgsnq9eHwBl4uO+vT2H/honkQTyZ5KxrbuPtD/7l9CjiUa1bNOeKcSP4zZjhtGjm/mrCLCv6/i3bK5kw6THKyjdbOFm9nsPo+z2zvr+xFABETLrhvmd08pecFPImPg1R3+8eCgAiJpSt28TTr8xzegzxmHAoxDnDh3LNBaPZr0M7p8fJC/X97qMAIGLC5Nnz1flLowUCAUYdP5Abf1WYm/g0RH2/OykAiJjw1rKVTo8gHlHom/g0ROv73UsBQMSEzZ/vcHoEcbkBhx7MxEvGMqR/4W7i0xAr+v7FK1Zz9d1PsbO6xsLJfiANXAvcaeebuI0CgIgJhbw5i5jTs7SEGy8ey6nHDnB6lLxT3+8NCgAiJuzfcV9Wr7d9GZJ4yP4d9+U/zzudc089gVAw6PQ4eaf9/L1DAUDEhBMG9FEAEAA6tG3Nb889nfEjhxX8Jj4N0fp+b/Hnb6mIRc479QQee+F1R58LL85q1aIZV4wdwYQzT/HFJj4Nicfj1FR7pu+/DrjDzjfxAgUAERN6HdCF8aOG8fiLc5weRfLsm018zqRD2zZOj+MYq/r+5+cu4pbHp5MycfWgESqAs4E37HwTr1AAEDHpTxPO49MNn7HgfS0J9IuRQwdyy6/PoVvnjk6P4iij768hmUzkfAz1/c5RABAxKRoJM+22a5n44BSenPmG6oAC1r2kE5P/+Dt6HVDi9CiOU9/vfQoAIhaIRsLcdtWFjB81jMmz3+StpSvYuG07tXUxp0cTEwKBAM2KovQoLeGa88/gpEFHOD2SK6jvLwwKACIW6llawp8vP8/pMURsob6/sCgAiIjIXqnvLzwKACIi8qO0n39hUgAQEZEGWdH3Lylbw5V3PUnF7moLJ/uBNHAjcDugR3Q2ggKAiIj8gPr+wqcAICIi36G+3x8UAERE5Gvq+/1DAUBERAD1/X6jACAi4nPq+/1JAUBExMfU9/uXAoCIiE+p7/c3BQARER9S3y8KACIiPqK+X76iACAi4hPq++XbFABERHxAfb98nwKAiEiBU98v9VEAEBEpUOr75ccoAIiIFCD1/bI3CgAiIgXGY33/NOAi1PfnnQKAiEgBUd8vjaUAICJSADzW91cC41Df7ygFABERj/NY378co+9fZ/cbyY9TABAR8TD1/ZIrBQAREY9S3y9mKACIiHiM+n6xggKAiIiHqO8XqygAiIh4hPp+sZICgIiIB6jvF6spAIiIuJj6frGLAoCIiEup7xc7KQCIiLiQ+n6xmwKAiIjLqO+XfFAAEBFxCfX9kk8KACIiLqC+X/JNAUBExGGpVIrq3VVkMpmcj6G+X5pKAUBExEHq+8UpCgAiIg5Q3y9OUwAQEckz9f3iBgoAIiJ5pL5f3EIBQEQkT9T3i5soADisYvuOBv9dIBCAAAQIEAhAIBgkGAgSDAaNfw4GCYVChEIhgqFgHqcWkabIZmFPbQ2xupip46jvFyspALhYNpuFrHGzEADpH7lkGAgQDoUIR8KEQ2FC0TChUIgAgfwMKyL1ymYyVFVVkUqmcj6G+n6xgwJAochmSaVSpFLf+pAJBIiEI0Sixisc1l+3SD6p7xc30xmhkGWzJJMJ407jWqNCKCqKEi2KEo5EdHVAxEbxWIza6tpvruDlQH2/2EkBwEeymQyxuhixuhjBYIBINEpRcTGRSMTp0UQKhvp+8QoFAJ/KZLLEY3HisTjBcIjiomKKiosJBnVVQCRXWt8vXqIAIGRSafakaqmr3UNRcRHFzYoJ6X4BkSZJJVNUV6nvF+/Qp7x8LUuWWCxGLBYjGo3SrHlzwhH9iojsjdb3ixd57tN9x5oyVsycyqb3F1O1dSPZTJY2Jd3oOmAIvUeeQ/vuPZ0esSAkEgkSiQThcJjiZkY9ICLfpf38xcs8EwDSiTgL7r2ZFS8/+4OUvXPDWnZuWMvyF5+h98hzGHrlHwhFixyatLCkUilqqmuoq4t9GQSKtHpABEinM9RUVX136W0Tqe8XJ3kiAKQTcV76rwvY/P7iH/3vspkMK16aws6N6zht0tMKARZKp1LUVtdQV1tLtKiY4uJiQuGQ02OJOCIei1FbW0s2k/tVdPX94jRP7B+74N6b93ry/7bN7y9m4f1/tHEi/8pkssTq6ti1cye7d+0iHouRMfEhKOIl6VSaql27qamuMXXyX1K2htOvnWT3yT8NXAecjU7+Ug/XB4Ada8qMy/5NtGLmFHasW2XDRPKVVNKoB3ZWVFC1azexWMzUHdAibpVOZ6iprmH3rp0kk0lTx3p+7iLOv/V+u2/2qwSGA7ehm/2kAa6vAFbMnJrTnbXZTIaVLz/L8VffasNU8n3JZJJkMkktEAqFiUbDhKNRIpGI8VAjEQ9KJhPE6uIk4wlTO/qB+n5xH9cHgE1NuPT/g59dtsjCSaSx0ukUdXUpqIsRIEAwHCQcNp5FEI58+ZAihQJxqWQySTKRJBGPk7bornz1/eJGrg8AVVs35f6z2zZbOInkIkuWdCpNOpUm/q0/Nx5lHCYYDhIKBAmGvnrEcYBAIEggEDBWGwSyBAKub6rES7LGkzYz2QyZTIZ0Ok0mnSaVNB6mlTWxlr8+Wt8vbuX6AICJb4rBoO5Sd6tMJkMmkwBzdaqIq2l9v7iZ6wNA684l7NywNqefbdVpf4unERHZO/X94gWuDwBdBwzJOQB0O+o4i6dxv921e5i5YAmLV6xmW+UuUqk03Tp1oN8hpQzu25Nepfurfxex0ZbtlUyY9Bhl5bZXkM8DF6O+X3Lk+gDQe+Q5LH/xGbJNXF4WCIY4bMQ4m6Zyn2w2y9OvvsU9016l5nuPIV298TPmvPcRMJN927RiUJ8eDO1/KCcc2ZvWLZo5M7BIAfrnyk+46q6/srO6xs63SQPXA3egvl9McH0AaN+9J31G/pLlL01u0s8dfsb5tCs92Kap3CWbzXLtA1N4ccF7e/1vK3ZXM+udpcx6ZynRSJjBfXsy/Jj+DDuqD62aKwyI5OrJV+Zz+5SZpNO27oVRgbGxj/p+Mc31AQBgyBUTqdy4ttG7AXYdcCxDLp9o81Tu8eCM1xt18v++RDLFm8tW8uaylUQjYYYd1ZexwwZxTO9DVBOINFJdPMHvH3mOl99eavdbfYTR95fb/UbiD55YXxUuKua0SU/T9/TzCQQbHjkQDNFvzHhGTXqGoE+eZ7/5iwoeemGO6eMkkileXfw+F9x6Pz/79z/y6Etv2L1sScTztmyvZNzEu/Nx8n8eGIxO/mKhACY7pKve3mjRKI2zY90qVr78LJuWLaJq22YCgSCtO5fQ7ajjOGzEuLxf9r9nSFdTP//p9PuMpY45rj2++7lXePCF103N0JBoJMwpxxzBhNEnccB+HW15DxGv0vp+8TrPBQC3MRsAoP5n626Y+mDbUHGkRThCJBEMtMgGsp0zGUrCgUAXstku2Wy2a5bsfidfdWvPj8u32Hq5IxQMctLR/bh01DAO697FzrcS8QT1/VIIFABMsisANEEV0MrsEI01qG8PLh01jMF9e+brLUVcQ32/FBJ/FOWFLa9/h4uXr2bx8tUcekAJF556AsOP6U9xNJLPEUQcsfmLCi6/43Gt75eCoSsAJrngCsBaoLvZIXLVukUzRg05irNOHETPUu28KIVp9uL3mfjI81TvqbPzbbS+X/JKVwC8bwEOBoCq2jomv7aQya8t5KCSTpx8dH9OPqYfPbru59RIIpbZsr2SP/11BnOXLLf7rdT3S97pCoBJLrgCMBh4x+wQVivt3IFjD+/F4L49GHjYwdpkSDzl88pdPDpzLtPeWEw8afsTq9T3iyMUAExyQQAAeAHjA8SVQqEghx3Qhb4HdaPPgV3pc2BXuu//E0I/sqeDSL7FEkkWL1/NjLf+j/lLV9r9BL+vqO8Xx6gCKAwXAz2BXk4PUp90OsPyNRtYvmbD138WjYTp0rE93ffvSLdOHejcvi3t27Siwz6tademJS2Ki2lWHCUUDNKyWbGD00uhiSWS1MXjfF6xm01fVPDx+s189OkGlny8hrp4Il9jqO8Xx5kOANWfb7FiDjGnEhgCPAv83OFZGiWRTLF2yzbWbtnm9Cgi+VYJjEN9vzhM12ALRwVwEkYVMBuwvbgUkSb7CDgKnfzFBRQACs9LwAigHfAL4F5glaMTiQjANIybdtc5PYgI6B6AQlYDvPLlC+AAYCRwJsaHkIjkh/bzF1fSFQD/KAfuAY4F+mBcGdjp6EQiha8SGA7chk7+4jIKAP60ErgK2A84H7B9Y3MRH1LfL66mAOBvMWAyxofUEIy6QN9SRMxT3y+upwAgX3kH46bBARgfXnnZBUWkwMSB/8DY1leb+4irKQDI972PsUb5IIz7BPY4O46IZ6wGjgH+F11JEw9QAJCGrMe4T6AUuBb4xMlhRFwshXHSHwB84PAsIo2mACB7sx1j+VIPjA+4R9FVAZGvLAUGYVz2r3F4FpEmUQCQplgGXAZ0wNhTYDLqOcWfVgBnAT8Fljg8i0hOFAAkF3uAWRhLCDtj3PA0FdDG/lLIssBbwGnA4cB01PWLh2knQDGrGuORps9jPNq4NzAMOBEYCLR3bjQRS2zG+P1+DN0LIwVEAUCslMW4NLoCuPvLPyvF2GdgAHAEcAjQBSMsiLhRDGM1zByMK10foG/6UoAUAMRu6798Tf/WnxUDB3/5KgU6AR0x7i3oBOwDRICWQAhona9hxRdiQB3GVti7MH4/y4G1GDf1fYiepik+EEDJ1mn6JiwiInmnmwBFRER8SAFARETEhxQAREREfEgBQERExIcUAERERHxIAUBERMSHFABERER8KIixlas4o8rpAURExJ+CwCanh/CxjU4PICIi/hQE3nB6CB+b4/QAIiLiX72BFMaWwHrl75UCDm3E34+IiIjlgsBK4GGnB/GhB4Ayp4cQERF/iwJzcf5bsV9eb2A87U5ERMRxUeA+VAfY+UoB96CTv4iIuNBhwF3ACowlgk6fNL3+qv7y/+WdqPMXERGX+H9OZUIkqJCQKQAAAABJRU5ErkJggg==;" parent="1" vertex="1">
          <mxGeometry x="4.5" y="40" width="391" height="391" as="geometry" />
        </mxCell>
        <mxCell id="M6gj8kt36gLy5a3jpEOS-13" value="&lt;h2&gt;&lt;font color=&quot;#ffffff&quot;&gt;&lt;span style=&quot;font-size: 80px;&quot;&gt;抓手&lt;/span&gt;&lt;/font&gt;&lt;/h2&gt;" style="text;html=1;strokeColor=none;fillColor=none;align=center;verticalAlign=middle;whiteSpace=wrap;rounded=0;" parent="1" vertex="1">
          <mxGeometry x="519" y="507" width="162" height="30" as="geometry" />
        </mxCell>
        <mxCell id="M6gj8kt36gLy5a3jpEOS-14" value="&lt;h2&gt;&lt;font color=&quot;#ffffff&quot;&gt;&lt;span style=&quot;font-size: 80px;&quot;&gt;闭环&lt;/span&gt;&lt;/font&gt;&lt;/h2&gt;" style="text;html=1;strokeColor=none;fillColor=none;align=center;verticalAlign=middle;whiteSpace=wrap;rounded=0;" parent="1" vertex="1">
          <mxGeometry x="919" y="507" width="162" height="30" as="geometry" />
        </mxCell>
        <mxCell id="M6gj8kt36gLy5a3jpEOS-15" value="&lt;h2&gt;&lt;font color=&quot;#ffffff&quot;&gt;&lt;span style=&quot;font-size: 80px;&quot;&gt;黑话&lt;/span&gt;&lt;/font&gt;&lt;/h2&gt;" style="text;html=1;strokeColor=none;fillColor=none;align=center;verticalAlign=middle;whiteSpace=wrap;rounded=0;" parent="1" vertex="1">
          <mxGeometry x="1319" y="507" width="162" height="30" as="geometry" />
        </mxCell>
        <mxCell id="M6gj8kt36gLy5a3jpEOS-16" value="" style="rounded=0;whiteSpace=wrap;html=1;fillColor=#4D4D4D;" parent="1" vertex="1">
          <mxGeometry x="-1" y="628" width="1603" height="272" as="geometry" />
        </mxCell>
        <mxCell id="M6gj8kt36gLy5a3jpEOS-17" value="&lt;h2 style=&quot;font-size: 91px;&quot;&gt;&lt;font style=&quot;font-size: 91px;&quot; color=&quot;#ffffff&quot;&gt;当我用&lt;/font&gt;&lt;font color=&quot;#ff9796&quot; style=&quot;font-size: 91px;&quot;&gt;互联网黑话&lt;/font&gt;&lt;font style=&quot;font-size: 91px;&quot; color=&quot;#ffffff&quot;&gt;给&lt;/font&gt;&lt;font color=&quot;#66c6c4&quot; style=&quot;font-size: 91px;&quot;&gt;AI程序员&lt;/font&gt;&lt;font style=&quot;font-size: 91px;&quot; color=&quot;#ffffff&quot;&gt;提需求.....&lt;/font&gt;&lt;/h2&gt;" style="text;html=1;strokeColor=none;fillColor=none;align=center;verticalAlign=middle;whiteSpace=wrap;rounded=0;" parent="1" vertex="1">
          <mxGeometry x="-32" y="684" width="1675" height="168" as="geometry" />
        </mxCell>
      </root>
    </mxGraphModel>
  </diagram>
</mxfile>
